<svg width="16" height="16" viewBox="0 0 16 16" fill="none" xmlns="http://www.w3.org/2000/svg">
<path fill-rule="evenodd" clip-rule="evenodd" d="M14 3.33333V12.6667C14 13.0203 13.8595 13.3594 13.6095 13.6095C13.3594 13.8595 13.0203 14 12.6667 14H10.1667C10.0783 14 9.99348 13.9649 9.93096 13.9024C9.86845 13.8399 9.83333 13.7551 9.83333 13.6667V9.66667H11.3933C11.4702 9.66668 11.5447 9.64015 11.6042 9.59155C11.6637 9.54296 11.7046 9.47529 11.72 9.4L11.96 8.2C11.9649 8.17606 11.9645 8.15133 11.9587 8.12757C11.953 8.10381 11.9421 8.0816 11.9269 8.06252C11.9116 8.04343 11.8923 8.02794 11.8704 8.01714C11.8485 8.00633 11.8244 8.00048 11.8 8H9.83333V5.83333C9.83333 5.78913 9.85089 5.74674 9.88215 5.71548C9.9134 5.68423 9.9558 5.66667 10 5.66667H11.6667C11.7551 5.66667 11.8399 5.63155 11.9024 5.56904C11.9649 5.50652 12 5.42174 12 5.33333V4.33333C12 4.24493 11.9649 4.16014 11.9024 4.09763C11.8399 4.03512 11.7551 4 11.6667 4H10C9.46957 4 8.96086 4.21071 8.58579 4.58579C8.21071 4.96086 8 5.46957 8 6V8H7.18C7.0916 8 7.00681 8.03512 6.9443 8.09763C6.88179 8.16014 6.84667 8.24493 6.84667 8.33333V9.33333C6.84667 9.42174 6.88179 9.50652 6.9443 9.56904C7.00681 9.63155 7.0916 9.66667 7.18 9.66667H8V13.6667C8 13.7551 7.96488 13.8399 7.90237 13.9024C7.83986 13.9649 7.75507 14 7.66667 14H3.33333C2.97971 14 2.64057 13.8595 2.39052 13.6095C2.14048 13.3594 2 13.0203 2 12.6667V3.33333C2 2.97971 2.14048 2.64057 2.39052 2.39052C2.64057 2.14048 2.97971 2 3.33333 2H12.6667C13.0203 2 13.3594 2.14048 13.6095 2.39052C13.8595 2.64057 14 2.97971 14 3.33333Z" fill="#6B8299"/>
</svg>
