<svg width="149" height="50" viewBox="0 0 149 50" fill="none" xmlns="http://www.w3.org/2000/svg">
<path d="M9.12665 31.0734C9.92451 31.0734 10.6349 31.2583 11.2579 31.6281C11.8809 31.9979 12.3673 32.5308 12.717 33.2268C13.0777 33.9229 13.258 34.7385 13.258 35.6738C13.258 36.6091 13.0777 37.4248 12.717 38.1208C12.3673 38.806 11.8809 39.3335 11.2579 39.7033C10.6349 40.073 9.92451 40.2579 9.12665 40.2579C8.25229 40.2579 7.50908 40.0404 6.89703 39.6054C6.2959 39.1595 5.88058 38.5776 5.65106 37.8598V40.1437H4.15918V28.0718H5.65106V33.4715C5.88058 32.7537 6.2959 32.1773 6.89703 31.7423C7.50908 31.2964 8.25229 31.0734 9.12665 31.0734ZM8.7004 32.3948C8.12113 32.3948 7.59652 32.5308 7.12655 32.8027C6.65658 33.0637 6.29044 33.4443 6.02813 33.9446C5.76582 34.4449 5.63467 35.0213 5.63467 35.6738C5.63467 36.3264 5.76582 36.9028 6.02813 37.4031C6.29044 37.8925 6.65658 38.2731 7.12655 38.545C7.59652 38.8169 8.12113 38.9528 8.7004 38.9528C9.62941 38.9528 10.3672 38.6646 10.9136 38.0882C11.471 37.5009 11.7497 36.6961 11.7497 35.6738C11.7497 34.6515 11.471 33.8522 10.9136 33.2758C10.3672 32.6885 9.62941 32.3948 8.7004 32.3948Z" fill="white"/>
<path d="M15.8291 31.1876L18.7473 38.235L21.4523 31.1876H23.1082L17.7636 44.3852H16.075L17.944 39.9969L14.1569 31.1876H15.8291Z" fill="white"/>
<path d="M33.7727 28.5286C35.117 28.5286 36.2427 28.8603 37.1499 29.5237C38.068 30.1871 38.6855 31.0898 39.0024 32.2317H37.4286C37.1553 31.5357 36.6963 30.9756 36.0515 30.5514C35.4175 30.1273 34.6634 29.9152 33.789 29.9152C33.0021 29.9152 32.2972 30.1001 31.6742 30.4699C31.0512 30.8287 30.5594 31.3453 30.1987 32.0196C29.849 32.6939 29.6741 33.4878 29.6741 34.4014C29.6741 35.3367 29.8544 36.1469 30.2151 36.8321C30.5758 37.5064 31.0731 38.0284 31.707 38.3982C32.3518 38.7571 33.0896 38.9365 33.9202 38.9365C34.6306 38.9365 35.2809 38.7843 35.8711 38.4797C36.4613 38.1752 36.9422 37.7348 37.3138 37.1584C37.6964 36.5711 37.9259 35.8859 38.0024 35.1029H33.4612V33.9936H39.2647V35.3639C39.1664 36.2774 38.8822 37.104 38.4122 37.8435C37.9423 38.5831 37.3084 39.1703 36.5105 39.6054C35.7126 40.0404 34.8055 40.2579 33.789 40.2579C32.6742 40.2579 31.6906 40.0132 30.8381 39.5238C29.9856 39.0235 29.3189 38.3329 28.838 37.452C28.368 36.5602 28.133 35.5433 28.133 34.4014C28.133 33.2594 28.368 32.248 28.838 31.3671C29.3189 30.4753 29.9856 29.7792 30.8381 29.279C31.6906 28.7787 32.6688 28.5286 33.7727 28.5286Z" fill="white"/>
<path d="M48.0573 37.4846H42.9751L42.0078 40.1437H40.4012L44.6801 28.8548H46.3687L50.6312 40.1437H49.0246L48.0573 37.4846ZM47.6311 36.3264L45.5162 30.5188L43.4014 36.3264H47.6311Z" fill="white"/>
<path d="M53.6332 28.6427V40.1437H52.1413V28.6427H53.6332Z" fill="white"/>
<path d="M65.0158 40.1437H63.5239L57.5236 31.0571V40.1437H56.0318V28.6427H57.5236L63.5239 37.7456V28.6427H65.0158V40.1437Z" fill="white"/>
<path d="M74.7268 37.1584C74.7268 37.7021 74.5956 38.2079 74.3333 38.6755C74.071 39.1432 73.6721 39.5238 73.1365 39.8174C72.601 40.1111 71.9397 40.2579 71.1528 40.2579C70.3877 40.2579 69.7046 40.122 69.1035 39.8501C68.5133 39.5673 68.0379 39.1867 67.6772 38.7081C67.3275 38.2187 67.1253 37.6641 67.0706 37.0442H68.6609C68.6937 37.3704 68.8029 37.6913 68.9887 38.0067C69.1855 38.3112 69.4587 38.5667 69.8085 38.7734C70.1691 38.9691 70.6009 39.067 71.1036 39.067C71.7594 39.067 72.2621 38.893 72.6119 38.545C72.9616 38.197 73.1365 37.7511 73.1365 37.2073C73.1365 36.7396 73.0108 36.359 72.7594 36.0654C72.519 35.7717 72.2184 35.5433 71.8577 35.3802C71.4971 35.2062 71.0052 35.0213 70.3823 34.8255C69.65 34.5863 69.0598 34.3633 68.6117 34.1567C68.1745 33.9392 67.7974 33.6183 67.4805 33.1942C67.1744 32.77 67.0214 32.2099 67.0214 31.5139C67.0214 30.9158 67.1635 30.3883 67.4477 29.9315C67.7428 29.4747 68.1581 29.1213 68.6936 28.8711C69.2401 28.621 69.8795 28.4959 70.6118 28.4959C71.7485 28.4959 72.6501 28.7733 73.3168 29.3279C73.9835 29.8717 74.3715 30.5677 74.4808 31.416H72.8742C72.7868 30.9593 72.5518 30.5569 72.1692 30.2088C71.7867 29.8608 71.2676 29.6868 70.6118 29.6868C70.0107 29.6868 69.5298 29.8445 69.1691 30.1599C68.8084 30.4644 68.6281 30.8994 68.6281 31.465C68.6281 31.9109 68.7428 32.2752 68.9724 32.558C69.2128 32.8299 69.5079 33.0474 69.8577 33.2105C70.2074 33.3628 70.6883 33.5368 71.3003 33.7325C72.0435 33.9718 72.6392 34.2002 73.0873 34.4177C73.5464 34.6352 73.9344 34.9669 74.2513 35.4128C74.5683 35.8478 74.7268 36.4297 74.7268 37.1584Z" fill="white"/>
<g clip-path="url(#clip0_7770_43745)">
<path d="M89.8774 24.451C89.8774 24.451 90.1965 25.4395 91.2333 25.9157C91.5885 26.0744 91.9873 26.1393 92.3716 26.1033C92.7486 26.0744 93.3142 25.995 93.6984 25.8002C93.6984 25.8002 94.1262 26.6805 94.5685 27.0989C94.5685 27.0989 94.5395 25.8074 95.279 25.0643C95.279 25.0643 94.3147 25.2303 93.8144 25.6271C93.8144 25.6271 92.7994 23.9316 91.255 24.0037C91.255 24.0037 90.3342 24.0326 89.8774 24.451Z" fill="white"/>
<path d="M98.4404 23.5854C98.4404 23.5854 99.3032 24.5089 100.681 24.4945C101.152 24.4873 101.616 24.3502 102.029 24.1121C102.428 23.8812 103.001 23.506 103.327 23.102C103.327 23.102 104.255 23.8524 104.951 24.0832C104.951 24.0832 104.248 22.6907 104.676 21.4858C104.676 21.4858 103.712 22.164 103.363 22.8495C103.363 22.8495 101.377 21.5147 99.7165 22.3877C99.7165 22.3877 98.7232 22.8928 98.4404 23.5854Z" fill="white"/>
<path d="M105.626 23.3122C105.626 23.3122 105.952 24.3079 107.004 24.7696C107.366 24.9283 107.758 24.9861 108.149 24.95C108.533 24.9139 109.092 24.8273 109.483 24.6325C109.483 24.6325 109.926 25.5128 110.368 25.9312C110.368 25.9312 110.324 24.6397 111.057 23.875C111.057 23.875 110.092 24.0553 109.592 24.4522C109.592 24.4522 108.555 22.7566 107.004 22.8504C107.011 22.8504 106.083 22.8937 105.626 23.3122Z" fill="white"/>
<path d="M120.003 25.7931C120.003 25.7931 120.329 26.7888 121.381 27.2506C121.743 27.4093 122.135 27.467 122.526 27.4309C122.91 27.3949 123.469 27.3083 123.86 27.1135C123.86 27.1135 124.302 27.9937 124.745 28.4122C124.745 28.4122 124.701 27.1207 125.434 26.3559C125.434 26.3559 124.469 26.5363 123.969 26.9331C123.969 26.9331 122.932 25.2376 121.381 25.3314C121.388 25.3314 120.46 25.3747 120.003 25.7931Z" fill="white"/>
<path d="M125.463 30.1586C125.463 30.1586 125.39 31.349 126.304 32.2726C126.616 32.59 127.014 32.8137 127.442 32.9363C127.863 33.059 128.493 33.2033 128.987 33.16C128.987 33.16 129.081 34.2783 129.378 34.8988C129.378 34.8988 129.878 33.5063 130.98 33.0157C130.98 33.0157 129.886 32.7992 129.19 33.0157C129.19 33.0157 128.805 30.7935 127.123 30.2379C127.123 30.2451 126.123 29.906 125.463 30.1586Z" fill="white"/>
<path d="M130.052 34.0835C130.052 34.0835 130.328 35.007 131.285 35.4615C131.611 35.6203 131.974 35.678 132.336 35.6563C132.691 35.6347 133.213 35.5698 133.569 35.4038C133.569 35.4038 133.953 36.2335 134.352 36.6231C134.352 36.6231 134.345 35.4255 135.048 34.7472C135.048 34.7472 134.156 34.8843 133.685 35.2379C133.685 35.2379 132.778 33.6506 131.343 33.6866C131.343 33.6939 130.487 33.7083 130.052 34.0835Z" fill="white"/>
<path d="M142.755 36.8397C142.755 36.8397 142.545 37.5467 142.965 38.2321C143.11 38.4702 143.321 38.6578 143.56 38.7949C143.799 38.9248 144.155 39.1052 144.459 39.1412C144.459 39.1412 144.358 39.8267 144.452 40.2451C144.452 40.2451 144.945 39.4731 145.684 39.3288C145.684 39.3288 145.054 39.0474 144.597 39.0835C144.597 39.0835 144.677 37.6838 143.741 37.121C143.741 37.121 143.19 36.7747 142.755 36.8397Z" fill="white"/>
<path d="M139.783 42.3379C139.783 42.3379 139.181 42.6698 139 43.3913C138.942 43.6438 138.949 43.9035 139.021 44.1488C139.087 44.3869 139.21 44.7405 139.384 44.9641C139.384 44.9641 138.862 45.3537 138.645 45.6856C138.645 45.6856 139.478 45.5053 140.058 45.8877C140.058 45.8877 139.826 45.2888 139.507 45.0146C139.507 45.0146 140.486 44.1488 140.239 43.1604C140.247 43.1676 140.116 42.5832 139.783 42.3379Z" fill="white"/>
<path d="M135.578 38.4636C135.578 38.4636 135.404 39.5025 136.129 40.4116C136.375 40.7219 136.709 40.9527 137.071 41.1043C137.434 41.2486 137.971 41.4362 138.413 41.4434C138.413 41.4434 138.391 42.439 138.594 43.0162C138.594 43.0162 139.16 41.833 140.182 41.5011C140.182 41.5011 139.232 41.2125 138.601 41.3424C138.601 41.3424 138.471 39.3438 137.035 38.7017C137.035 38.6872 136.187 38.2904 135.578 38.4636Z" fill="white"/>
<path d="M136.093 41.1626C136.093 41.1626 135.397 42.2448 135.766 43.594C135.897 44.0558 136.151 44.4743 136.492 44.8206C136.825 45.1525 137.34 45.6215 137.826 45.8379C137.826 45.8379 137.325 46.9418 137.275 47.6849C137.275 47.6849 138.478 46.6388 139.776 46.747C139.776 46.747 138.855 45.975 138.087 45.809C138.087 45.809 138.899 43.5147 137.608 42.115C137.608 42.115 136.847 41.2708 136.093 41.1626Z" fill="white"/>
<path d="M139.819 39.1633C139.819 39.1633 140.007 39.827 140.689 40.1589C140.921 40.2744 141.182 40.3177 141.443 40.3104C141.697 40.296 142.066 40.2599 142.328 40.1373C142.328 40.1373 142.596 40.7289 142.871 41.0175C142.871 41.0175 142.879 40.1661 143.386 39.6827C143.386 39.6827 142.748 39.7765 142.407 40.0218C142.407 40.0218 141.769 38.8747 140.747 38.8963C140.74 38.8963 140.131 38.8963 139.819 39.1633Z" fill="white"/>
<path d="M86.042 26.205C86.042 26.205 86.7163 26.6306 87.5573 26.407C87.8474 26.3276 88.1084 26.1689 88.3186 25.9596C88.5289 25.7576 88.8189 25.433 88.9567 25.1371C88.9567 25.1371 89.6455 25.4474 90.1095 25.4835C90.1095 25.4835 89.457 24.7403 89.5222 23.9395C89.5222 23.9395 89.0364 24.5094 88.9349 24.9856C88.9349 24.9856 87.5066 24.4806 86.6293 25.2742C86.6293 25.2742 86.1 25.736 86.042 26.205Z" fill="white"/>
<path d="M83.1562 25.1662C83.1562 25.1662 83.3448 25.6785 83.903 25.9022C84.0916 25.9815 84.3018 26.0032 84.5048 25.9743C84.7006 25.9455 84.9906 25.895 85.1936 25.7867C85.1936 25.7867 85.4401 26.2413 85.6794 26.4433C85.6794 26.4433 85.6287 25.7723 85.9984 25.3611C85.9984 25.3611 85.4981 25.4693 85.2444 25.6929C85.2444 25.6929 84.6716 24.8271 83.8668 24.9065C83.8668 24.8993 83.381 24.9426 83.1562 25.1662Z" fill="white"/>
<path d="M82.4092 25.2809C82.4092 25.2809 82.4672 25.4324 82.6266 25.4973C82.6846 25.519 82.7426 25.5262 82.8006 25.519C82.8586 25.5118 82.9456 25.4973 83.0036 25.4613C83.0036 25.4613 83.0761 25.5911 83.1486 25.6561C83.1486 25.6561 83.1341 25.4613 83.2428 25.3386C83.2428 25.3386 83.0978 25.3675 83.0181 25.4324C83.0181 25.4324 82.8514 25.1799 82.6121 25.2015C82.6194 25.2087 82.4817 25.2159 82.4092 25.2809Z" fill="white"/>
<path d="M82.3657 25.9809C82.3657 25.9809 82.5035 26.1324 82.7282 26.1324C82.8079 26.1324 82.8804 26.1108 82.9456 26.0747C83.0109 26.0386 83.1051 25.9809 83.1559 25.916C83.1559 25.916 83.3008 26.0386 83.4168 26.0747C83.4168 26.0747 83.3081 25.8511 83.3733 25.6562C83.3733 25.6562 83.2138 25.7645 83.1559 25.8727C83.1559 25.8727 82.8369 25.6563 82.5687 25.7933C82.5687 25.7933 82.4092 25.8727 82.3657 25.9809Z" fill="white"/>
<path d="M86.7524 24.3866C86.7524 24.3866 86.8974 24.5959 87.1729 24.632C87.2671 24.6464 87.3613 24.632 87.4483 24.5959C87.5353 24.5598 87.6586 24.5021 87.7383 24.4371C87.7383 24.4371 87.8978 24.6103 88.0282 24.6825C88.0282 24.6825 87.934 24.3866 88.05 24.1558C88.05 24.1558 87.8398 24.264 87.7455 24.3866C87.7455 24.3866 87.3903 24.062 87.0351 24.1846C87.0424 24.1846 86.8322 24.2568 86.7524 24.3866Z" fill="white"/>
<path d="M91.2046 27.0492C91.2046 27.0492 91.5381 27.3955 92.0674 27.3811C92.2487 27.3739 92.4227 27.3234 92.5749 27.2296C92.7272 27.1358 92.9374 26.9915 93.0607 26.8328C93.0607 26.8328 93.416 27.1142 93.6842 27.1935C93.6842 27.1935 93.4087 26.6668 93.561 26.2051C93.561 26.2051 93.1985 26.472 93.0752 26.7318C93.0752 26.7318 92.3067 26.2339 91.6831 26.5803C91.6831 26.5803 91.3061 26.7823 91.2046 27.0492Z" fill="white"/>
<path d="M93.3506 24.3434C93.3506 24.3434 93.6551 24.7835 94.2424 24.8629C94.4454 24.8918 94.6484 24.8629 94.8369 24.7835C95.0182 24.7114 95.2865 24.5887 95.446 24.4372C95.446 24.4372 95.7867 24.8124 96.0695 24.9495C96.0695 24.9495 95.8592 24.3146 96.113 23.8384C96.113 23.8384 95.6635 24.062 95.475 24.3362C95.475 24.3362 94.7209 23.6508 93.9669 23.9105C93.9669 23.9177 93.5101 24.0693 93.3506 24.3434Z" fill="white"/>
<path d="M101.471 25.5631C101.471 25.5631 101.638 26.0898 102.182 26.3423C102.37 26.4289 102.581 26.465 102.784 26.4433C102.987 26.4289 103.284 26.3856 103.487 26.2918C103.487 26.2918 103.712 26.7608 103.944 26.9845C103.944 26.9845 103.929 26.299 104.328 25.9094C104.328 25.9094 103.82 25.996 103.552 26.2052C103.552 26.2052 103.023 25.3034 102.203 25.3322C102.211 25.3322 101.718 25.3394 101.471 25.5631Z" fill="white"/>
<path d="M103.422 25.5915C103.422 25.5915 103.951 25.7863 104.502 25.5049C104.69 25.4111 104.85 25.2596 104.966 25.0864C105.082 24.9133 105.234 24.6535 105.285 24.4227C105.285 24.4227 105.807 24.5381 106.133 24.4876C106.133 24.4876 105.568 24.0691 105.502 23.5063C105.502 23.5063 105.249 23.9681 105.256 24.3144C105.256 24.3144 104.19 24.1773 103.704 24.8555C103.697 24.8555 103.4 25.2596 103.422 25.5915Z" fill="white"/>
<path d="M112.209 22.6266C112.209 22.6266 112.565 22.8575 113.014 22.7421C113.167 22.706 113.304 22.6194 113.42 22.5112C113.529 22.403 113.689 22.237 113.761 22.0783C113.761 22.0783 114.124 22.2442 114.37 22.2659C114.37 22.2659 114.029 21.869 114.073 21.4434C114.073 21.4434 113.812 21.7392 113.754 21.9917C113.754 21.9917 113 21.7175 112.528 22.136C112.528 22.136 112.253 22.3813 112.209 22.6266Z" fill="white"/>
<path d="M101.703 21.7611C101.703 21.7611 102.116 21.9992 102.609 21.8477C102.776 21.7972 102.928 21.6962 103.052 21.5663C103.168 21.4436 103.334 21.2416 103.414 21.0612C103.414 21.0612 103.828 21.2344 104.103 21.2416C104.103 21.2416 103.697 20.8159 103.726 20.3325C103.726 20.3325 103.45 20.6788 103.4 20.9674C103.4 20.9674 102.537 20.7005 102.037 21.1911C102.037 21.1911 101.732 21.4797 101.703 21.7611Z" fill="white"/>
<path d="M109.069 23.5209C109.069 23.5209 109.483 23.9322 110.113 23.8961C110.331 23.8889 110.541 23.8168 110.722 23.7013C110.904 23.5859 111.157 23.4055 111.302 23.2179C111.302 23.2179 111.738 23.5426 112.064 23.6364C112.064 23.6364 111.716 23.0087 111.89 22.4531C111.89 22.4531 111.462 22.7778 111.31 23.1025C111.31 23.1025 110.374 22.5253 109.635 22.951C109.635 22.951 109.185 23.2035 109.069 23.5209Z" fill="white"/>
<path d="M111.295 23.94C111.295 23.94 111.302 24.5533 111.81 25.0007C111.984 25.1522 112.194 25.2532 112.426 25.3037C112.644 25.3542 112.977 25.4047 113.231 25.3614C113.231 25.3614 113.318 25.9386 113.499 26.2488C113.499 26.2488 113.702 25.5129 114.253 25.2171C114.253 25.2171 113.68 25.145 113.325 25.282C113.325 25.282 113.042 24.1493 112.158 23.9256C112.15 23.9184 111.621 23.7813 111.295 23.94Z" fill="white"/>
<path d="M113.725 26.1398C113.725 26.1398 113.884 26.6304 114.392 26.8613C114.566 26.9407 114.761 26.9695 114.957 26.9551C115.146 26.9407 115.421 26.9046 115.617 26.8108C115.617 26.8108 115.827 27.2509 116.045 27.4529C116.045 27.4529 116.03 26.818 116.4 26.4428C116.4 26.4428 115.921 26.5222 115.675 26.717C115.675 26.717 115.175 25.8801 114.413 25.9089C114.406 25.9161 113.949 25.9306 113.725 26.1398Z" fill="white"/>
<path d="M116.501 27.2873C116.501 27.2873 116.697 27.7202 117.19 27.8717C117.357 27.9222 117.538 27.9294 117.712 27.8933C117.879 27.8573 118.133 27.7923 118.292 27.6841C118.292 27.6841 118.532 28.0593 118.756 28.2252C118.756 28.2252 118.669 27.648 118.967 27.2656C118.967 27.2656 118.539 27.3955 118.336 27.5975C118.336 27.5975 117.785 26.8905 117.096 27.0059C117.103 27.0131 116.69 27.0781 116.501 27.2873Z" fill="white"/>
<path d="M120.946 29.6024C120.946 29.6024 121.2 29.8766 121.613 29.8766C121.758 29.8766 121.896 29.8333 122.019 29.7684C122.142 29.7034 122.309 29.588 122.41 29.4653C122.41 29.4653 122.686 29.689 122.896 29.7612C122.896 29.7612 122.686 29.3427 122.816 28.9819C122.816 28.9819 122.526 29.184 122.425 29.386C122.425 29.386 121.83 28.9819 121.337 29.2417C121.33 29.2489 121.033 29.4004 120.946 29.6024Z" fill="white"/>
<path d="M128.994 28.6506C128.994 28.6506 129.023 28.8166 129.182 28.9104C129.233 28.9465 129.298 28.9609 129.363 28.9609C129.429 28.9609 129.516 28.9609 129.581 28.9392C129.581 28.9392 129.632 29.0908 129.697 29.1629C129.697 29.1629 129.719 28.9537 129.849 28.8527C129.849 28.8527 129.69 28.8599 129.603 28.9176C129.603 28.9176 129.472 28.629 129.226 28.6073C129.218 28.6001 129.073 28.5929 128.994 28.6506Z" fill="white"/>
<path d="M128.965 31.5943C128.965 31.5943 129.037 31.8251 129.284 31.9334C129.371 31.9694 129.458 31.9839 129.552 31.9767C129.639 31.9694 129.769 31.9478 129.864 31.9045C129.864 31.9045 129.965 32.1137 130.067 32.2075C130.067 32.2075 130.059 31.9045 130.226 31.7313C130.226 31.7313 130.001 31.7746 129.885 31.8684C129.885 31.8684 129.646 31.4716 129.284 31.4932C129.284 31.486 129.066 31.4932 128.965 31.5943Z" fill="white"/>
<path d="M128.994 35.1449C128.994 35.1449 129.03 35.2604 129.153 35.3181C129.196 35.3397 129.24 35.347 129.283 35.3397C129.327 35.3325 129.392 35.3253 129.435 35.3037C129.435 35.3037 129.486 35.4047 129.537 35.4552C129.537 35.4552 129.529 35.3037 129.616 35.2171C129.616 35.2171 129.508 35.2387 129.442 35.282C129.442 35.282 129.319 35.0872 129.146 35.0944C129.153 35.0944 129.044 35.1016 128.994 35.1449Z" fill="white"/>
<path d="M131.887 36.0096C131.887 36.0096 131.908 36.0817 131.981 36.1105C132.002 36.1249 132.031 36.1249 132.06 36.1249C132.089 36.1249 132.125 36.1177 132.154 36.1033C132.154 36.1033 132.183 36.1681 132.219 36.1969C132.219 36.1969 132.219 36.1033 132.27 36.0528C132.27 36.0528 132.205 36.0673 132.169 36.0961C132.169 36.0961 132.096 35.9736 131.988 35.9808C131.981 35.9736 131.916 35.9736 131.887 36.0096Z" fill="white"/>
<path d="M134.692 38.0885C134.692 38.0885 134.845 38.2328 135.077 38.2184C135.156 38.2112 135.229 38.1823 135.294 38.139C135.359 38.0957 135.446 38.0308 135.497 37.9586C135.497 37.9586 135.656 38.0741 135.772 38.1029C135.772 38.1029 135.642 37.8793 135.7 37.6772C135.7 37.6772 135.548 37.7999 135.497 37.9153C135.497 37.9153 135.156 37.7133 134.888 37.8793C134.888 37.8793 134.729 37.9731 134.692 38.0885Z" fill="white"/>
<path d="M142.625 38.9972C142.625 38.9972 142.697 39.192 142.907 39.2786C142.98 39.3075 143.059 39.3147 143.139 39.3075C143.212 39.3002 143.328 39.2786 143.4 39.2353C143.4 39.2353 143.494 39.4085 143.589 39.4878C143.589 39.4878 143.574 39.2281 143.712 39.0694C143.712 39.0694 143.523 39.1127 143.422 39.192C143.422 39.192 143.204 38.8601 142.893 38.889C142.9 38.8962 142.719 38.9106 142.625 38.9972Z" fill="white"/>
<path d="M134.809 37.3887C134.809 37.3887 134.845 37.4897 134.961 37.5329C134.997 37.5474 135.041 37.5546 135.084 37.5474C135.12 37.5402 135.186 37.5329 135.222 37.5113C135.222 37.5113 135.272 37.6051 135.323 37.6412C135.323 37.6412 135.309 37.5041 135.388 37.4247C135.388 37.4247 135.287 37.4464 135.236 37.4897C135.236 37.4897 135.12 37.3165 134.961 37.3309C134.947 37.3309 134.853 37.3381 134.809 37.3887Z" fill="white"/>
<path d="M130.35 36.2627C130.35 36.2627 130.256 36.4142 130.306 36.6018C130.328 36.6667 130.364 36.7245 130.408 36.7677C130.451 36.811 130.524 36.876 130.596 36.9048C130.596 36.9048 130.531 37.0563 130.524 37.1646C130.524 37.1646 130.69 37.0203 130.871 37.0275C130.871 37.0275 130.741 36.9193 130.632 36.8976C130.632 36.8976 130.741 36.5802 130.56 36.3854C130.56 36.3926 130.459 36.2699 130.35 36.2627Z" fill="white"/>
<path d="M124.346 31.3139C124.346 31.3139 124.404 31.5808 124.665 31.7251C124.752 31.7756 124.854 31.7973 124.955 31.7973C125.057 31.7973 125.202 31.79 125.31 31.7468C125.31 31.7468 125.405 31.9849 125.506 32.1075C125.506 32.1075 125.528 31.7684 125.738 31.5952C125.738 31.5952 125.484 31.6169 125.347 31.7107C125.347 31.7107 125.122 31.2417 124.716 31.2273C124.716 31.2273 124.477 31.2128 124.346 31.3139Z" fill="white"/>
<path d="M125.383 26.9837C125.383 26.9837 125.506 27.3733 125.919 27.5609C126.057 27.6258 126.217 27.6475 126.369 27.633C126.521 27.6186 126.739 27.5897 126.891 27.5104C126.891 27.5104 127.058 27.8567 127.232 28.0226C127.232 28.0226 127.217 27.5176 127.507 27.2218C127.507 27.2218 127.13 27.2867 126.934 27.4454C126.934 27.4454 126.536 26.7817 125.927 26.8105C125.927 26.8033 125.564 26.8177 125.383 26.9837Z" fill="white"/>
<path d="M117.248 26.1757C117.248 26.1757 117.611 26.5365 118.169 26.5076C118.357 26.5004 118.546 26.4355 118.705 26.3345C118.865 26.2335 119.09 26.0747 119.213 25.9088C119.213 25.9088 119.597 26.1974 119.887 26.284C119.887 26.284 119.583 25.7284 119.735 25.2378C119.735 25.2378 119.351 25.5264 119.227 25.8078C119.227 25.8078 118.401 25.2955 117.748 25.6779C117.741 25.6779 117.35 25.8944 117.248 26.1757Z" fill="white"/>
<path d="M119.242 26.4942C119.242 26.4942 119.075 27.1219 119.452 27.7135C119.583 27.9155 119.771 28.0815 119.981 28.1969C120.192 28.3051 120.511 28.4567 120.779 28.4855C120.779 28.4855 120.706 29.0916 120.793 29.4523C120.793 29.4523 121.214 28.7669 121.852 28.6298C121.852 28.6298 121.294 28.3917 120.895 28.435C120.895 28.435 120.938 27.2085 120.105 26.7251C120.112 26.7251 119.619 26.4292 119.242 26.4942Z" fill="white"/>
<path d="M123.338 27.8501C123.338 27.8501 122.961 28.4129 123.135 29.1271C123.193 29.3725 123.324 29.5961 123.498 29.7837C123.665 29.9641 123.933 30.2166 124.187 30.3393C124.187 30.3393 123.904 30.9092 123.868 31.2989C123.868 31.2989 124.513 30.765 125.194 30.8371C125.194 30.8371 124.723 30.4186 124.317 30.3248C124.317 30.3248 124.774 29.1271 124.121 28.3768C124.129 28.3696 123.737 27.915 123.338 27.8501Z" fill="white"/>
<path d="M124.861 28.5357C124.861 28.5357 125.093 29.2572 125.847 29.6035C126.108 29.7189 126.398 29.7622 126.681 29.7406C126.956 29.7189 127.369 29.6612 127.652 29.5241C127.652 29.5241 127.964 30.1662 128.283 30.4693C128.283 30.4693 128.261 29.5313 128.798 28.983C128.798 28.983 128.095 29.1056 127.732 29.3942C127.732 29.3942 126.992 28.1605 125.861 28.211C125.869 28.211 125.194 28.2326 124.861 28.5357Z" fill="white"/>
<path d="M129.095 29.3868C129.095 29.3868 128.834 29.9857 129.124 30.6422C129.226 30.8659 129.385 31.0607 129.588 31.205C129.784 31.3493 130.081 31.5441 130.342 31.609C130.342 31.609 130.175 32.2079 130.212 32.5831C130.212 32.5831 130.734 31.9554 131.401 31.9121C131.401 31.9121 130.872 31.5946 130.473 31.573C130.473 31.573 130.698 30.3464 129.936 29.7404C129.943 29.7404 129.487 29.3796 129.095 29.3868Z" fill="white"/>
<path d="M110.665 26.3639C110.665 26.3639 111.013 26.7102 111.542 26.6814C111.724 26.6741 111.898 26.6092 112.057 26.5154C112.209 26.4216 112.42 26.2701 112.543 26.1114C112.543 26.1114 112.913 26.3855 113.181 26.4649C113.181 26.4649 112.891 25.9382 113.036 25.4692C113.036 25.4692 112.673 25.7434 112.55 26.0104C112.55 26.0104 111.767 25.527 111.144 25.8877C111.136 25.8877 110.759 26.0969 110.665 26.3639Z" fill="white"/>
<path d="M112.477 26.9126C112.477 26.9126 112.39 27.4176 112.731 27.8505C112.847 28.002 113.006 28.1175 113.18 28.1896C113.354 28.2618 113.615 28.3556 113.825 28.3556C113.825 28.3556 113.811 28.8318 113.905 29.1131C113.905 29.1131 114.188 28.5504 114.674 28.3916C114.674 28.3916 114.217 28.2473 113.912 28.3051C113.912 28.3051 113.862 27.3382 113.173 27.028C113.18 27.028 112.774 26.8332 112.477 26.9126Z" fill="white"/>
<path d="M114.718 29.0552C114.718 29.0552 114.304 29.2428 114.152 29.7045C114.101 29.8633 114.094 30.0364 114.13 30.2024C114.167 30.3611 114.225 30.5992 114.326 30.7579C114.326 30.7579 113.964 30.9816 113.812 31.1908C113.812 31.1908 114.37 31.1114 114.725 31.3928C114.725 31.3928 114.609 30.9888 114.413 30.794C114.413 30.794 115.095 30.2745 114.986 29.6179C114.979 29.6252 114.913 29.2283 114.718 29.0552Z" fill="white"/>
<path d="M116.559 32.3521C116.559 32.3521 116.421 32.4675 116.414 32.6623C116.414 32.7272 116.429 32.7922 116.457 32.8571C116.486 32.9148 116.537 33.0014 116.595 33.0447C116.595 33.0447 116.479 33.1673 116.443 33.2684C116.443 33.2684 116.645 33.1818 116.812 33.2467C116.812 33.2467 116.725 33.1096 116.624 33.0519C116.624 33.0519 116.826 32.785 116.711 32.5396C116.718 32.5396 116.653 32.3953 116.559 32.3521Z" fill="white"/>
<path d="M115.327 30.6714C115.327 30.6714 115.044 30.9744 115.095 31.429C115.109 31.5805 115.167 31.732 115.254 31.8546C115.341 31.9773 115.479 32.1577 115.624 32.2515C115.624 32.2515 115.407 32.5761 115.349 32.807C115.349 32.807 115.791 32.5401 116.197 32.6411C116.197 32.6411 115.95 32.3453 115.711 32.2515C115.711 32.2515 116.095 31.566 115.762 31.0538C115.755 31.0538 115.559 30.7435 115.327 30.6714Z" fill="white"/>
<path d="M115.943 33.3622C115.943 33.3622 115.9 33.7302 116.175 34.0404C116.27 34.1487 116.386 34.2208 116.523 34.2713C116.654 34.3146 116.85 34.3723 117.002 34.3651C117.002 34.3651 117.009 34.7186 117.096 34.9134C117.096 34.9134 117.277 34.4878 117.625 34.3507C117.625 34.3507 117.284 34.2641 117.067 34.3218C117.067 34.3218 116.987 33.622 116.465 33.4199C116.458 33.4199 116.154 33.2973 115.943 33.3622Z" fill="white"/>
<path d="M118.734 36.2627C118.734 36.2627 118.422 36.5729 118.444 37.0491C118.451 37.2151 118.502 37.3738 118.589 37.5109C118.676 37.648 118.814 37.8428 118.959 37.951C118.959 37.951 118.705 38.2829 118.632 38.5282C118.632 38.5282 119.111 38.2685 119.539 38.3983C119.539 38.3983 119.292 38.0737 119.046 37.9582C119.046 37.9582 119.488 37.2511 119.169 36.6884C119.169 36.6884 118.98 36.3493 118.734 36.2627Z" fill="white"/>
<path d="M115.703 33.8682C115.703 33.8682 115.065 34.2433 114.899 35.0226C114.841 35.2895 114.862 35.5709 114.942 35.8306C115.022 36.0832 115.167 36.4583 115.355 36.6964C115.355 36.6964 114.812 37.1293 114.587 37.4901C114.587 37.4901 115.471 37.2664 116.109 37.6632C116.109 37.6632 115.848 37.0283 115.493 36.7469C115.493 36.7469 116.508 35.7873 116.218 34.7412C116.225 34.7412 116.058 34.1135 115.703 33.8682Z" fill="white"/>
<path d="M116.269 36.2272C116.269 36.2272 116.059 37.0642 116.581 37.8506C116.762 38.1175 117.016 38.334 117.306 38.4783C117.589 38.6226 118.017 38.8102 118.372 38.8463C118.372 38.8463 118.285 39.6543 118.408 40.145C118.408 40.145 118.952 39.2214 119.808 39.0194C119.808 39.0194 119.054 38.7164 118.532 38.7741C118.532 38.7741 118.561 37.1363 117.444 36.5086C117.437 36.5158 116.77 36.1334 116.269 36.2272Z" fill="white"/>
<path d="M115.885 39.7554C115.885 39.7554 116.081 40.3615 116.719 40.6501C116.936 40.7511 117.183 40.7872 117.422 40.7655C117.654 40.7439 117.995 40.6934 118.234 40.578C118.234 40.578 118.502 41.1191 118.77 41.3716C118.77 41.3716 118.749 40.578 119.198 40.1234C119.198 40.1234 118.611 40.2244 118.306 40.4697C118.306 40.4697 117.683 39.4308 116.733 39.4813C116.726 39.4741 116.16 39.4957 115.885 39.7554Z" fill="white"/>
<path d="M116.313 38.7597C116.313 38.7597 116.429 39.1133 116.799 39.2792C116.929 39.3369 117.067 39.3586 117.205 39.3441C117.343 39.3297 117.538 39.3008 117.676 39.2359C117.676 39.2359 117.828 39.5534 117.988 39.6977C117.988 39.6977 117.973 39.2359 118.242 38.969C118.242 38.969 117.901 39.0267 117.72 39.171C117.72 39.171 117.357 38.5649 116.806 38.5938C116.806 38.5938 116.48 38.6082 116.313 38.7597Z" fill="white"/>
<path d="M116.356 40.7936C116.356 40.7936 116.269 41.1328 116.479 41.4502C116.552 41.5584 116.653 41.645 116.769 41.7027C116.885 41.7605 117.059 41.8398 117.197 41.8543C117.197 41.8543 117.161 42.1789 117.212 42.3737C117.212 42.3737 117.436 42.0058 117.777 41.9192C117.777 41.9192 117.473 41.7965 117.262 41.8182C117.262 41.8182 117.277 41.1544 116.827 40.9019C116.827 40.9091 116.559 40.7576 116.356 40.7936Z" fill="white"/>
<path d="M114.616 33.1387C114.616 33.1387 114.355 33.3118 114.297 33.6509C114.275 33.7664 114.297 33.8818 114.333 33.9973C114.377 34.1055 114.442 34.257 114.529 34.358C114.529 34.358 114.304 34.5528 114.225 34.7115C114.225 34.7115 114.594 34.5961 114.876 34.7476C114.876 34.7476 114.753 34.4807 114.594 34.3724C114.594 34.3724 115.006 33.9395 114.854 33.4994C114.862 33.4994 114.775 33.2397 114.616 33.1387Z" fill="white"/>
<path d="M118.081 34.48C118.081 34.48 117.886 34.7036 117.922 35.0211C117.936 35.1293 117.98 35.2376 118.045 35.3241C118.11 35.4107 118.212 35.5334 118.313 35.5983C118.313 35.5983 118.161 35.8292 118.125 36.0023C118.125 36.0023 118.437 35.8075 118.727 35.8725C118.727 35.8725 118.545 35.6632 118.371 35.6055C118.371 35.6055 118.632 35.1077 118.386 34.7469C118.393 34.7469 118.248 34.5233 118.081 34.48Z" fill="white"/>
<path d="M117.045 35.1077C117.045 35.1077 116.936 35.4613 117.146 35.8004C117.219 35.9158 117.32 36.0168 117.443 36.0818C117.559 36.1467 117.741 36.2333 117.893 36.2549C117.893 36.2549 117.842 36.594 117.886 36.8033C117.886 36.8033 118.132 36.4209 118.502 36.3487C118.502 36.3487 118.19 36.2044 117.965 36.2188C117.965 36.2188 118.009 35.5262 117.545 35.2376C117.538 35.252 117.262 35.0789 117.045 35.1077Z" fill="white"/>
<path d="M115.725 37.6909C115.725 37.6909 115.428 37.8857 115.37 38.2609C115.349 38.3908 115.37 38.5206 115.414 38.6433C115.457 38.7659 115.537 38.9391 115.631 39.0473C115.631 39.0473 115.385 39.2638 115.291 39.4442C115.291 39.4442 115.711 39.3143 116.023 39.4874C116.023 39.4874 115.878 39.1916 115.704 39.069C115.704 39.069 116.16 38.5856 116.001 38.095C115.994 38.095 115.899 37.7991 115.725 37.6909Z" fill="white"/>
<path d="M119.612 39.5674C119.612 39.5674 119.314 39.7622 119.256 40.1374C119.235 40.2672 119.256 40.3971 119.3 40.5198C119.343 40.6424 119.423 40.8156 119.517 40.9238C119.517 40.9238 119.271 41.1403 119.177 41.3206C119.177 41.3206 119.597 41.1908 119.909 41.3639C119.909 41.3639 119.764 41.0681 119.59 40.9454C119.59 40.9454 120.047 40.462 119.887 39.9714C119.88 39.9714 119.786 39.6756 119.612 39.5674Z" fill="white"/>
<path d="M119.364 41.617C119.364 41.617 119.132 41.6025 118.951 41.7829C118.886 41.8406 118.842 41.92 118.821 41.9994C118.799 42.0787 118.77 42.2014 118.777 42.2952C118.777 42.2952 118.56 42.3096 118.437 42.3673C118.437 42.3673 118.705 42.4611 118.806 42.6776C118.806 42.6776 118.85 42.4683 118.806 42.3313C118.806 42.3313 119.241 42.2591 119.343 41.9344C119.35 41.9344 119.415 41.7396 119.364 41.617Z" fill="white"/>
<path d="M117.872 40.9668C117.872 40.9668 117.778 41.1472 117.857 41.3492C117.886 41.4213 117.93 41.4791 117.988 41.5296C118.046 41.5801 118.133 41.645 118.212 41.6667C118.212 41.6667 118.147 41.847 118.154 41.9625C118.154 41.9625 118.328 41.7821 118.531 41.7821C118.531 41.7821 118.379 41.6739 118.256 41.6594C118.256 41.6594 118.35 41.2915 118.125 41.0895C118.125 41.0895 117.995 40.9668 117.872 40.9668Z" fill="white"/>
<path d="M117.943 42.0273C117.943 42.0273 117.835 42.0562 117.77 42.1572C117.748 42.1933 117.741 42.2366 117.741 42.2799C117.741 42.3232 117.748 42.3809 117.762 42.4242C117.762 42.4242 117.661 42.4602 117.618 42.5035C117.618 42.5035 117.755 42.5107 117.835 42.5973C117.835 42.5973 117.827 42.4963 117.784 42.4386C117.784 42.4386 117.979 42.3448 117.979 42.1789C117.979 42.1789 117.986 42.0778 117.943 42.0273Z" fill="white"/>
<path d="M114.166 31.5661C114.166 31.5661 113.985 31.999 114.203 32.4679C114.275 32.6267 114.398 32.7638 114.543 32.8648C114.681 32.9658 114.899 33.1029 115.087 33.1534C115.087 33.1534 114.971 33.5863 115 33.8604C115 33.8604 115.37 33.4059 115.848 33.3626C115.848 33.3626 115.464 33.1389 115.174 33.1245C115.174 33.1245 115.326 32.2443 114.768 31.8114C114.775 31.8186 114.449 31.5589 114.166 31.5661Z" fill="white"/>
<path d="M104.784 22.5689C104.784 22.5689 105.212 22.9369 105.828 22.872C106.039 22.8503 106.242 22.7637 106.408 22.6411C106.575 22.5184 106.814 22.3308 106.938 22.1288C106.938 22.1288 107.387 22.4174 107.706 22.4896C107.706 22.4896 107.329 21.8979 107.46 21.3496C107.46 21.3496 107.061 21.6959 106.938 22.0206C106.938 22.0206 105.988 21.5156 105.292 21.9845C105.299 21.9701 104.878 22.2443 104.784 22.5689Z" fill="white"/>
<path d="M108.134 21.0322C108.134 21.0322 108.301 21.595 108.881 21.8764C109.077 21.9701 109.302 22.0134 109.519 21.999C109.737 21.9846 110.048 21.9485 110.273 21.8475C110.273 21.8475 110.505 22.3525 110.744 22.5906C110.744 22.5906 110.744 21.8619 111.172 21.4507C111.172 21.4507 110.628 21.53 110.338 21.7465C110.338 21.7465 109.787 20.7797 108.917 20.7941C108.917 20.7941 108.395 20.8013 108.134 21.0322Z" fill="white"/>
<path d="M96.3086 25.0362C96.3086 25.0362 96.6639 25.3897 97.2149 25.3609C97.4034 25.3537 97.5847 25.2887 97.7442 25.1877C97.8964 25.0867 98.1212 24.9352 98.2445 24.7692C98.2445 24.7692 98.6215 25.0506 98.9043 25.13C98.9043 25.13 98.607 24.5889 98.752 24.1055C98.752 24.1055 98.3822 24.3869 98.2517 24.6682C98.2517 24.6682 97.4397 24.1704 96.8016 24.5384C96.7944 24.5384 96.4101 24.7548 96.3086 25.0362Z" fill="white"/>
<path d="M99.2231 24.9715C99.2231 24.9715 99.3464 25.3395 99.7452 25.5127C99.8829 25.5704 100.028 25.592 100.173 25.5776C100.318 25.5632 100.528 25.5271 100.673 25.4549C100.673 25.4549 100.84 25.7868 101.007 25.9383C101.007 25.9383 100.985 25.4549 101.261 25.1663C101.261 25.1663 100.898 25.2385 100.717 25.39C100.717 25.39 100.325 24.7623 99.7452 24.7984C99.7379 24.7912 99.3899 24.8128 99.2231 24.9715Z" fill="white"/>
<path d="M102.377 24.7765C102.377 24.7765 102.682 24.9208 103.015 24.7837C103.131 24.7405 103.233 24.6611 103.313 24.5601C103.385 24.4663 103.494 24.3148 103.537 24.1849C103.537 24.1849 103.834 24.2787 104.03 24.2715C104.03 24.2715 103.718 23.9973 103.711 23.6582C103.711 23.6582 103.537 23.9179 103.523 24.12C103.523 24.12 102.907 23.9829 102.58 24.3581C102.58 24.3581 102.385 24.5817 102.377 24.7765Z" fill="white"/>
<path d="M107.359 25.8371C107.359 25.8371 107.678 26.1401 108.156 26.1041C108.323 26.0896 108.475 26.0319 108.613 25.9453C108.744 25.8587 108.939 25.7144 109.041 25.5701C109.041 25.5701 109.375 25.8082 109.621 25.8732C109.621 25.8732 109.346 25.4042 109.469 24.9785C109.469 24.9785 109.15 25.231 109.048 25.4763C109.048 25.4763 108.33 25.0579 107.779 25.397C107.772 25.397 107.439 25.5918 107.359 25.8371Z" fill="white"/>
<path d="M115.124 22.5254C115.124 22.5254 115.225 22.8284 115.551 22.9655C115.66 23.016 115.783 23.0304 115.906 23.016C116.022 23.0016 116.196 22.9727 116.312 22.915C116.312 22.915 116.45 23.1819 116.588 23.3118C116.588 23.3118 116.573 22.915 116.791 22.6769C116.791 22.6769 116.494 22.7346 116.341 22.8573C116.341 22.8573 116.015 22.3378 115.544 22.3739C115.551 22.3811 115.269 22.3955 115.124 22.5254Z" fill="white"/>
<path d="M108.699 23.074C108.699 23.074 108.888 23.1678 109.098 23.0812C109.17 23.0523 109.236 23.0018 109.279 22.9441C109.33 22.8864 109.395 22.7926 109.417 22.7132C109.417 22.7132 109.605 22.771 109.729 22.7637C109.729 22.7637 109.533 22.5906 109.526 22.3813C109.526 22.3813 109.417 22.5401 109.41 22.6699C109.41 22.6699 109.018 22.5834 108.822 22.8142C108.822 22.8142 108.706 22.9513 108.699 23.074Z" fill="white"/>
<path d="M110.715 25.1084C110.715 25.1084 110.802 25.3393 111.056 25.4403C111.143 25.4764 111.237 25.4836 111.331 25.4692C111.418 25.4547 111.556 25.4331 111.643 25.3826C111.643 25.3826 111.759 25.5846 111.868 25.6784C111.868 25.6784 111.846 25.3754 112.006 25.1878C112.006 25.1878 111.781 25.2383 111.665 25.3393C111.665 25.3393 111.404 24.9497 111.034 24.9858C111.034 24.9858 110.817 25.0074 110.715 25.1084Z" fill="white"/>
<path d="M111.375 21.4725C111.375 21.4725 111.484 21.6745 111.723 21.7395C111.803 21.7611 111.89 21.7611 111.977 21.7395C112.057 21.7178 112.173 21.6818 112.253 21.624C112.253 21.624 112.376 21.7972 112.492 21.8693C112.492 21.8693 112.434 21.5952 112.572 21.4004C112.572 21.4004 112.369 21.4725 112.274 21.5735C112.274 21.5735 111.992 21.2489 111.658 21.321C111.658 21.321 111.455 21.3643 111.375 21.4725Z" fill="white"/>
<path d="M100.528 20.8004C100.528 20.8004 100.681 21.0241 100.971 21.0673C101.072 21.0818 101.173 21.0673 101.268 21.0313C101.362 20.9952 101.492 20.9375 101.572 20.8581C101.572 20.8581 101.746 21.0457 101.884 21.1178C101.884 21.1178 101.782 20.8004 101.913 20.5623C101.913 20.5623 101.688 20.6705 101.594 20.8076C101.594 20.8076 101.217 20.4613 100.84 20.5912C100.84 20.5912 100.608 20.6633 100.528 20.8004Z" fill="white"/>
<path d="M105.829 25.0296C105.829 25.0296 105.916 25.3254 106.227 25.4697C106.336 25.5202 106.452 25.5346 106.568 25.5274C106.684 25.5202 106.851 25.4986 106.967 25.4408C106.967 25.4408 107.09 25.7078 107.22 25.8304C107.22 25.8304 107.213 25.4481 107.438 25.2316C107.438 25.2316 107.155 25.2749 107.003 25.3903C107.003 25.3903 106.706 24.8853 106.249 24.8997C106.235 24.9069 105.966 24.9069 105.829 25.0296Z" fill="white"/>
<path d="M114.174 25.4917C114.174 25.4917 114.435 25.701 114.79 25.6505C114.914 25.6288 115.03 25.5783 115.131 25.5062C115.225 25.434 115.363 25.3114 115.436 25.1959C115.436 25.1959 115.704 25.3546 115.892 25.3907C115.892 25.3907 115.66 25.0516 115.726 24.7197C115.726 24.7197 115.501 24.929 115.436 25.1238C115.436 25.1238 114.87 24.8496 114.464 25.131C114.464 25.1382 114.225 25.3041 114.174 25.4917Z" fill="white"/>
<path d="M117.719 28.6296C117.719 28.6296 117.922 28.8965 118.285 28.9326C118.408 28.947 118.531 28.9182 118.647 28.8677C118.756 28.8172 118.923 28.7378 119.017 28.6368C119.017 28.6368 119.241 28.8605 119.415 28.9398C119.415 28.9398 119.27 28.5574 119.415 28.2544C119.415 28.2544 119.14 28.4059 119.031 28.5719C119.031 28.5719 118.546 28.1678 118.089 28.3482C118.089 28.3554 117.813 28.4564 117.719 28.6296Z" fill="white"/>
<path d="M122.374 30.1949C122.374 30.1949 122.454 30.4547 122.722 30.5846C122.816 30.6278 122.918 30.6423 123.019 30.6423C123.121 30.6351 123.266 30.6206 123.367 30.5701C123.367 30.5701 123.476 30.801 123.592 30.9164C123.592 30.9164 123.592 30.5773 123.788 30.3825C123.788 30.3825 123.534 30.4186 123.403 30.5268C123.403 30.5268 123.142 30.0795 122.744 30.0939C122.736 30.0795 122.49 30.0867 122.374 30.1949Z" fill="white"/>
<path d="M127.536 27.6695C127.536 27.6695 127.449 27.9293 127.587 28.189C127.638 28.2756 127.71 28.3549 127.797 28.4054C127.884 28.456 128.015 28.5281 128.124 28.5497C128.124 28.5497 128.073 28.8023 128.102 28.961C128.102 28.961 128.298 28.6868 128.573 28.6435C128.573 28.6435 128.348 28.5281 128.182 28.5353C128.182 28.5353 128.24 28.0231 127.899 27.7922C127.899 27.7922 127.703 27.6551 127.536 27.6695Z" fill="white"/>
<path d="M130.705 30.8517C130.705 30.8517 130.821 31.2413 131.22 31.4289C131.358 31.4939 131.51 31.5227 131.662 31.5083C131.807 31.5011 132.032 31.4722 132.184 31.4001C132.184 31.4001 132.344 31.7464 132.51 31.9123C132.51 31.9123 132.503 31.4073 132.8 31.1259C132.8 31.1259 132.423 31.1836 132.228 31.3351C132.228 31.3351 131.843 30.6713 131.242 30.6858C131.249 30.6858 130.886 30.6858 130.705 30.8517Z" fill="white"/>
<path d="M129.799 35.0872C129.799 35.0872 129.733 35.5128 130.031 35.8808C130.132 36.0035 130.27 36.1045 130.422 36.1622C130.567 36.2199 130.792 36.2921 130.973 36.2921C130.973 36.2921 130.966 36.7033 131.053 36.9342C131.053 36.9342 131.278 36.4508 131.698 36.3065C131.698 36.3065 131.307 36.1911 131.053 36.2488C131.053 36.2488 130.995 35.4335 130.4 35.1737C130.393 35.1737 130.045 35.015 129.799 35.0872Z" fill="white"/>
<path d="M131.909 36.6742C131.909 36.6742 132.083 37.1793 132.626 37.4102C132.815 37.4895 133.018 37.5184 133.214 37.4967C133.41 37.4751 133.7 37.4318 133.895 37.3236C133.895 37.3236 134.127 37.7709 134.359 37.9801C134.359 37.9801 134.33 37.3164 134.7 36.9195C134.7 36.9195 134.207 37.0206 133.953 37.2298C133.953 37.2298 133.41 36.364 132.612 36.4217C132.619 36.4217 132.141 36.4506 131.909 36.6742Z" fill="white"/>
<path d="M136.701 36.4293C136.701 36.4293 136.86 36.9848 137.418 37.259C137.614 37.3528 137.825 37.3961 138.042 37.3817C138.252 37.3744 138.564 37.3384 138.782 37.2446C138.782 37.2446 138.999 37.7424 139.238 37.9805C139.238 37.9805 139.246 37.2662 139.666 36.8694C139.666 36.8694 139.13 36.9415 138.847 37.1508C138.847 37.1508 138.318 36.1984 137.469 36.2056C137.469 36.2128 136.954 36.2128 136.701 36.4293Z" fill="white"/>
<path d="M140 37.8648C140 37.8648 140.167 38.3338 140.66 38.5431C140.834 38.6152 141.015 38.6368 141.204 38.6152C141.385 38.5936 141.646 38.5503 141.827 38.4565C141.827 38.4565 142.045 38.8677 142.255 39.0625C142.255 39.0625 142.226 38.4493 142.567 38.0885C142.567 38.0885 142.11 38.1823 141.878 38.3771C141.878 38.3771 141.378 37.5835 140.645 37.6412C140.653 37.634 140.218 37.6628 140 37.8648Z" fill="white"/>
<path d="M138.637 47.2808C138.637 47.2808 138.354 47.7353 138.514 48.2981C138.572 48.4929 138.68 48.666 138.818 48.8103C138.956 48.9474 139.173 49.1422 139.383 49.2288C139.383 49.2288 139.181 49.6906 139.159 50.0008C139.159 50.0008 139.659 49.5607 140.203 49.5968C140.203 49.5968 139.818 49.2793 139.492 49.2144C139.492 49.2144 139.826 48.2476 139.282 47.6704C139.275 47.6704 138.956 47.3168 138.637 47.2808Z" fill="white"/>
<path d="M139.869 37.0783C139.869 37.0783 140.188 37.3885 140.667 37.3596C140.833 37.3524 140.993 37.2947 141.131 37.2081C141.268 37.1215 141.464 36.9772 141.566 36.8329C141.566 36.8329 141.907 37.0783 142.153 37.1504C142.153 37.1504 141.885 36.6742 142.015 36.2485C142.015 36.2485 141.689 36.5011 141.58 36.7464C141.58 36.7464 140.862 36.3135 140.297 36.6454C140.297 36.6381 139.956 36.8329 139.869 37.0783Z" fill="white"/>
<path d="M140.254 40.2817C140.254 40.2817 140.094 40.4838 140.138 40.7579C140.152 40.8517 140.196 40.9383 140.254 41.0177C140.312 41.0898 140.406 41.1908 140.493 41.2485C140.493 41.2485 140.37 41.4578 140.348 41.6021C140.348 41.6021 140.609 41.4217 140.863 41.465C140.863 41.465 140.696 41.2918 140.551 41.2485C140.551 41.2485 140.761 40.8084 140.537 40.5054C140.537 40.5054 140.406 40.3178 140.254 40.2817Z" fill="white"/>
<path d="M140.21 41.6743C140.21 41.6743 140.131 41.934 140.283 42.1866C140.334 42.2732 140.413 42.3453 140.5 42.3958C140.587 42.4463 140.718 42.5112 140.826 42.5329C140.826 42.5329 140.783 42.7854 140.819 42.9369C140.819 42.9369 141.008 42.6555 141.276 42.605C141.276 42.605 141.044 42.4968 140.877 42.504C140.877 42.504 140.913 41.9918 140.573 41.7753C140.573 41.7825 140.37 41.6527 140.21 41.6743Z" fill="white"/>
<path d="M138.564 37.9517C138.564 37.9517 138.195 38.3918 138.289 39.0123C138.318 39.2215 138.412 39.4235 138.543 39.5967C138.673 39.7626 138.876 40.0007 139.079 40.1162C139.079 40.1162 138.796 40.5779 138.731 40.9026C138.731 40.9026 139.325 40.5058 139.891 40.6212C139.891 40.6212 139.528 40.2244 139.195 40.1162C139.195 40.1162 139.681 39.1421 139.188 38.4495C139.188 38.4495 138.898 38.0382 138.564 37.9517Z" fill="white"/>
<path d="M133.257 33.6731C133.257 33.6731 133.402 34.142 133.888 34.3729C134.054 34.4523 134.243 34.4812 134.424 34.4739C134.605 34.4595 134.866 34.4306 135.055 34.3441C135.055 34.3441 135.251 34.7625 135.454 34.9646C135.454 34.9646 135.446 34.3585 135.809 34.0122C135.809 34.0122 135.352 34.0843 135.113 34.2647C135.113 34.2647 134.649 33.4566 133.917 33.4783C133.909 33.4711 133.474 33.4783 133.257 33.6731Z" fill="white"/>
<path d="M135.287 35.2456C135.287 35.2456 135.026 35.6136 135.135 36.0898C135.171 36.2557 135.258 36.4072 135.367 36.5299C135.476 36.6525 135.65 36.8257 135.816 36.905C135.816 36.905 135.621 37.2802 135.592 37.54C135.592 37.54 136.027 37.1936 136.483 37.2514C136.483 37.2514 136.171 36.97 135.903 36.8978C135.903 36.8978 136.222 36.1114 135.795 35.5991C135.802 35.5991 135.548 35.2889 135.287 35.2456Z" fill="white"/>
<path d="M135.998 37.5832C135.998 37.5832 136.128 38.0017 136.556 38.2109C136.708 38.283 136.868 38.3119 137.034 38.2975C137.194 38.283 137.433 38.2542 137.6 38.182C137.6 38.182 137.774 38.5572 137.955 38.7376C137.955 38.7376 137.948 38.1965 138.267 37.879C138.267 37.879 137.861 37.9439 137.643 38.1027C137.643 38.1027 137.23 37.3812 136.578 37.4028C136.585 37.41 136.193 37.4173 135.998 37.5832Z" fill="white"/>
<path d="M132.902 36.061C132.902 36.061 132.96 36.2198 133.134 36.2847C133.192 36.3063 133.257 36.3136 133.322 36.3063C133.38 36.2991 133.475 36.2775 133.533 36.2486C133.533 36.2486 133.612 36.3857 133.685 36.4506C133.685 36.4506 133.67 36.2414 133.779 36.1188C133.779 36.1188 133.627 36.1548 133.547 36.2198C133.547 36.2198 133.366 35.9528 133.119 35.9817C133.119 35.9745 132.967 35.9889 132.902 36.061Z" fill="white"/>
<path d="M136.172 35.5918C136.172 35.5918 136.23 35.7505 136.404 35.8155C136.462 35.8371 136.528 35.8443 136.593 35.8371C136.651 35.8299 136.745 35.8083 136.803 35.7794C136.803 35.7794 136.883 35.9165 136.955 35.9814C136.955 35.9814 136.941 35.7722 137.049 35.6495C137.049 35.6495 136.897 35.6856 136.818 35.7505C136.818 35.7505 136.636 35.4836 136.39 35.5124C136.39 35.5052 136.238 35.5197 136.172 35.5918Z" fill="white"/>
<path d="M134.744 35.9092C134.744 35.9092 134.584 36.104 134.628 36.3709C134.642 36.4647 134.686 36.5513 134.744 36.6235C134.802 36.6956 134.888 36.7966 134.975 36.8471C134.975 36.8471 134.852 37.0491 134.83 37.1934C134.83 37.1934 135.084 37.0203 135.33 37.0636C135.33 37.0636 135.171 36.8976 135.026 36.8471C135.026 36.8471 135.229 36.4214 135.012 36.1256C135.019 36.1184 134.888 35.9453 134.744 35.9092Z" fill="white"/>
<path d="M139.086 36.4936C139.086 36.4936 139.282 36.6523 139.55 36.609C139.645 36.5946 139.732 36.5513 139.804 36.4936C139.877 36.4359 139.978 36.3493 140.029 36.2627C140.029 36.2627 140.232 36.3854 140.377 36.407C140.377 36.407 140.203 36.1545 140.246 35.9092C140.246 35.9092 140.08 36.0679 140.029 36.2122C140.029 36.2122 139.601 36.0102 139.304 36.2266C139.304 36.2266 139.123 36.3493 139.086 36.4936Z" fill="white"/>
<path d="M143.995 39.4014C143.995 39.4014 143.799 39.524 143.749 39.7765C143.734 39.8631 143.741 39.9497 143.77 40.0291C143.799 40.1084 143.85 40.2239 143.908 40.296C143.908 40.296 143.741 40.4403 143.676 40.5558C143.676 40.5558 143.951 40.4764 144.161 40.599C144.161 40.599 144.074 40.4042 143.959 40.3177C143.959 40.3177 144.27 40.0074 144.169 39.6755C144.169 39.6755 144.111 39.4807 143.995 39.4014Z" fill="white"/>
<path d="M144.792 38.3628C144.792 38.3628 144.864 38.6009 145.104 38.7164C145.183 38.7596 145.278 38.7741 145.372 38.7669C145.459 38.7596 145.597 38.7452 145.684 38.7019C145.684 38.7019 145.778 38.9112 145.879 39.0122C145.879 39.0122 145.879 38.7091 146.053 38.536C146.053 38.536 145.829 38.5721 145.705 38.6586C145.705 38.6586 145.473 38.2546 145.111 38.2618C145.118 38.269 144.901 38.269 144.792 38.3628Z" fill="white"/>
<path d="M145.054 40.0221C145.054 40.0221 145.148 40.3468 145.481 40.5055C145.597 40.5633 145.721 40.5849 145.851 40.5705C145.974 40.5633 146.156 40.5416 146.286 40.4839C146.286 40.4839 146.417 40.7725 146.561 40.9096C146.561 40.9096 146.561 40.4911 146.808 40.253C146.808 40.253 146.496 40.3035 146.33 40.4262C146.33 40.4262 146.011 39.8706 145.51 39.885C145.503 39.885 145.206 39.8923 145.054 40.0221Z" fill="white"/>
<path d="M146.083 39.4303C146.083 39.4303 146.337 39.7189 146.758 39.7334C146.903 39.7406 147.048 39.6973 147.171 39.6323C147.294 39.5674 147.476 39.4592 147.577 39.3365C147.577 39.3365 147.853 39.5746 148.063 39.654C148.063 39.654 147.867 39.2211 148.005 38.8604C148.005 38.8604 147.7 39.0552 147.592 39.2644C147.592 39.2644 147.004 38.8315 146.49 39.084C146.49 39.084 146.178 39.2283 146.083 39.4303Z" fill="white"/>
<path d="M131.263 33.0737C131.263 33.0737 131.625 33.4633 132.205 33.4561C132.401 33.4561 132.597 33.3984 132.771 33.2974C132.938 33.2036 133.177 33.0448 133.315 32.8789C133.315 32.8789 133.699 33.1964 133.996 33.2901C133.996 33.2901 133.706 32.7057 133.887 32.2007C133.887 32.2007 133.481 32.4821 133.336 32.7707C133.336 32.7707 132.503 32.2079 131.806 32.5686C131.799 32.5759 131.379 32.7851 131.263 33.0737Z" fill="white"/>
<path d="M128.088 33.3481C128.088 33.3481 127.972 33.6079 128.102 33.8821C128.146 33.9758 128.218 34.0624 128.298 34.1201C128.377 34.1779 128.508 34.2644 128.624 34.2933C128.624 34.2933 128.551 34.5458 128.566 34.7118C128.566 34.7118 128.791 34.4448 129.073 34.4232C129.073 34.4232 128.849 34.2861 128.675 34.2789C128.675 34.2789 128.776 33.7522 128.443 33.4924C128.45 33.5069 128.254 33.3481 128.088 33.3481Z" fill="white"/>
<path d="M116.776 24.5538C116.776 24.5538 116.871 24.8712 117.19 25.0227C117.298 25.0732 117.422 25.1021 117.545 25.0949C117.668 25.0877 117.842 25.066 117.965 25.0083C117.965 25.0083 118.096 25.2897 118.226 25.4268C118.226 25.4268 118.226 25.0227 118.465 24.7919C118.465 24.7919 118.161 24.8352 118.001 24.9578C118.001 24.9578 117.697 24.4167 117.211 24.4239C117.211 24.4239 116.921 24.4239 116.776 24.5538Z" fill="white"/>
<path d="M108.852 26.284C108.852 26.284 108.939 26.5798 109.251 26.7241C109.359 26.7746 109.475 26.7962 109.591 26.7818C109.707 26.7746 109.874 26.753 109.99 26.6952C109.99 26.6952 110.113 26.9622 110.244 27.0848C110.244 27.0848 110.237 26.7025 110.461 26.486C110.461 26.486 110.179 26.5293 110.026 26.6447C110.026 26.6447 109.729 26.1397 109.272 26.1541C109.265 26.1613 108.99 26.1685 108.852 26.284Z" fill="white"/>
<path d="M115.827 25.9963C115.827 25.9963 116.023 26.1767 116.306 26.1478C116.4 26.1406 116.494 26.1045 116.581 26.0468C116.661 25.9963 116.77 25.9097 116.835 25.8159C116.835 25.8159 117.038 25.953 117.183 25.9963C117.183 25.9963 117.016 25.7221 117.081 25.4624C117.081 25.4624 116.893 25.6139 116.835 25.7654C116.835 25.7654 116.407 25.5201 116.074 25.7294C116.066 25.7294 115.871 25.852 115.827 25.9963Z" fill="white"/>
<path d="M120.583 24.9276C120.583 24.9276 120.823 25.1224 121.156 25.0646C121.272 25.043 121.374 24.9997 121.468 24.9276C121.555 24.8554 121.678 24.7472 121.743 24.639C121.743 24.639 121.99 24.7833 122.171 24.8193C122.171 24.8193 121.954 24.5091 122.012 24.2061C122.012 24.2061 121.801 24.4009 121.743 24.5812C121.743 24.5812 121.214 24.3287 120.852 24.5957C120.852 24.5957 120.627 24.7544 120.583 24.9276Z" fill="white"/>
<path d="M121.46 27.8647C121.46 27.8647 121.525 28.1172 121.779 28.2471C121.866 28.2904 121.967 28.312 122.062 28.3048C122.156 28.3048 122.301 28.2904 122.395 28.2471C122.395 28.2471 122.489 28.4707 122.598 28.5862C122.598 28.5862 122.605 28.2615 122.801 28.0811C122.801 28.0811 122.562 28.11 122.431 28.2038C122.431 28.2038 122.199 27.7637 121.808 27.7637C121.815 27.7709 121.583 27.7637 121.46 27.8647Z" fill="white"/>
<path d="M100.673 26.5882C100.673 26.5882 100.826 26.718 101.036 26.6892C101.108 26.682 101.181 26.6531 101.239 26.6098C101.297 26.5665 101.384 26.5016 101.427 26.4294C101.427 26.4294 101.587 26.5305 101.695 26.5521C101.695 26.5521 101.565 26.3429 101.608 26.1553C101.608 26.1553 101.471 26.2779 101.427 26.3934C101.427 26.3934 101.094 26.2202 100.855 26.3789C100.847 26.3789 100.702 26.4799 100.673 26.5882Z" fill="white"/>
<path d="M106.967 20.6855C106.967 20.6855 107.097 20.8731 107.336 20.9092C107.423 20.9236 107.503 20.9092 107.583 20.8803C107.663 20.8515 107.771 20.801 107.844 20.736C107.844 20.736 107.989 20.8948 108.105 20.9525C108.105 20.9525 108.018 20.6855 108.127 20.4835C108.127 20.4835 107.938 20.5773 107.858 20.6855C107.858 20.6855 107.547 20.3897 107.228 20.4979C107.228 20.5051 107.039 20.5701 106.967 20.6855Z" fill="white"/>
<path d="M98.2812 22.3455C98.2812 22.3455 98.4045 22.5042 98.6147 22.5187C98.6872 22.5259 98.7597 22.5115 98.8322 22.4826C98.8974 22.4537 98.9916 22.4032 99.0496 22.3455C99.0496 22.3455 99.1801 22.4754 99.2888 22.5187C99.2888 22.5187 99.2019 22.2878 99.2816 22.1074C99.2816 22.1074 99.1221 22.2012 99.0569 22.3022C99.0569 22.3022 98.7669 22.0641 98.4915 22.1796C98.4987 22.1796 98.332 22.2445 98.2812 22.3455Z" fill="white"/>
<path d="M94.9604 26.9336C94.9604 26.9336 95.352 27.1933 95.8523 27.0707C96.0263 27.0274 96.1785 26.9408 96.309 26.8181C96.4323 26.7027 96.6063 26.5151 96.6933 26.3419C96.6933 26.3419 97.0921 26.5367 97.3676 26.5584C97.3676 26.5584 96.9906 26.1111 97.0413 25.6421C97.0413 25.6421 96.7513 25.9668 96.6861 26.2481C96.6861 26.2481 95.8523 25.9307 95.323 26.3924C95.323 26.3924 95.004 26.6594 94.9604 26.9336Z" fill="white"/>
<path d="M96.8237 22.331C96.8237 22.331 97.2153 22.5908 97.7155 22.4681C97.8895 22.4248 98.0418 22.3382 98.1723 22.2156C98.2956 22.1002 98.4696 21.9126 98.5566 21.7394C98.5566 21.7394 98.9554 21.9342 99.2309 21.9559C99.2309 21.9559 98.8539 21.5085 98.9046 21.0396C98.9046 21.0396 98.6146 21.3642 98.5493 21.6456C98.5493 21.6456 97.7155 21.3354 97.1863 21.7899C97.179 21.7827 96.8672 22.0569 96.8237 22.331Z" fill="white"/>
<path d="M104.777 20.6433C104.777 20.6433 104.901 21.0257 105.307 21.2061C105.444 21.271 105.597 21.2927 105.749 21.2782C105.894 21.2638 106.111 21.235 106.264 21.1628C106.264 21.1628 106.43 21.5019 106.604 21.6678C106.604 21.6678 106.59 21.17 106.88 20.8742C106.88 20.8742 106.51 20.9391 106.314 21.0979C106.314 21.0979 105.916 20.4413 105.314 20.4702C105.314 20.4702 104.951 20.4846 104.777 20.6433Z" fill="white"/>
<path d="M94.7139 22.4893C94.7139 22.4893 94.9386 23.1748 95.6637 23.4994C95.9102 23.6077 96.1857 23.651 96.454 23.6221C96.715 23.6004 97.1065 23.5355 97.3748 23.4056C97.3748 23.4056 97.6793 24.0189 97.9838 24.3003C97.9838 24.3003 97.9548 23.4056 98.4624 22.879C98.4624 22.879 97.7953 23.0016 97.4473 23.2758C97.4473 23.2758 96.7295 22.1069 95.6564 22.1647C95.6709 22.1647 95.0256 22.1935 94.7139 22.4893Z" fill="white"/>
<path d="M92.4731 23.8312C92.4731 23.8312 92.8502 24.0333 93.2852 23.8745C93.4375 23.824 93.568 23.7302 93.6695 23.6076C93.771 23.4921 93.9087 23.3118 93.974 23.1458C93.974 23.1458 94.351 23.2829 94.5975 23.2829C94.5975 23.2829 94.2205 22.9149 94.2278 22.4893C94.2278 22.4893 93.9957 22.8067 93.9595 23.0665C93.9595 23.0665 93.1837 22.8572 92.7559 23.3118C92.7487 23.319 92.4876 23.5859 92.4731 23.8312Z" fill="white"/>
<path d="M99.2456 21.2053C99.2456 21.2053 99.3398 21.5083 99.6588 21.6598C99.7675 21.7103 99.8908 21.7319 100.007 21.7175C100.123 21.7103 100.297 21.6887 100.413 21.6309C100.413 21.6309 100.543 21.9051 100.674 22.035C100.674 22.035 100.666 21.6381 100.898 21.4073C100.898 21.4073 100.601 21.4578 100.449 21.5732C100.449 21.5732 100.144 21.0537 99.666 21.0682C99.666 21.0682 99.3833 21.0754 99.2456 21.2053Z" fill="white"/>
<path d="M95.2715 25.4329C95.2715 25.4329 95.344 25.6565 95.5832 25.7575C95.6629 25.7936 95.7499 25.808 95.8369 25.7936C95.9239 25.7864 96.0471 25.7647 96.1341 25.7215C96.1341 25.7215 96.2356 25.9163 96.3298 26.0101C96.3298 26.0101 96.3153 25.7215 96.482 25.5483C96.482 25.5483 96.2646 25.5916 96.1558 25.6782C96.1558 25.6782 95.9239 25.303 95.5759 25.3246C95.5759 25.3246 95.3657 25.3391 95.2715 25.4329Z" fill="white"/>
<path d="M89.7183 23.6435C89.7183 23.6435 89.8632 23.8527 90.1387 23.8888C90.2329 23.9032 90.3272 23.8888 90.4142 23.8527C90.5011 23.8166 90.6244 23.7589 90.7041 23.694C90.7041 23.694 90.8636 23.8671 90.9941 23.9393C90.9941 23.9393 90.8998 23.6435 91.0158 23.4126C91.0158 23.4126 90.8056 23.5208 90.7114 23.6435C90.7114 23.6435 90.3562 23.3188 90.001 23.4415C90.0082 23.4415 89.798 23.5136 89.7183 23.6435Z" fill="white"/>
<path d="M91.1973 23.3044C91.1973 23.3044 91.2553 23.5352 91.4872 23.6507C91.567 23.694 91.6539 23.7084 91.7409 23.7084C91.8279 23.7084 91.9584 23.694 92.0454 23.6579C92.0454 23.6579 92.1324 23.8599 92.2266 23.9609C92.2266 23.9609 92.2339 23.6723 92.4151 23.5064C92.4151 23.5064 92.1976 23.5352 92.0744 23.6146C92.0744 23.6146 91.8642 23.2178 91.5162 23.2178C91.5162 23.2178 91.306 23.2178 91.1973 23.3044Z" fill="white"/>
<path d="M88.3472 26.3636C88.3472 26.3636 88.5937 26.8326 89.152 26.9841C89.3477 27.0346 89.5507 27.0346 89.7393 26.9841C89.9278 26.9336 90.2033 26.8471 90.3773 26.7244C90.3773 26.7244 90.6673 27.1284 90.9211 27.3016C90.9211 27.3016 90.7978 26.6595 91.1023 26.2193C91.1023 26.2193 90.6311 26.3853 90.4136 26.6234C90.4136 26.6234 89.761 25.8586 88.9925 26.0245C88.9997 26.0173 88.5429 26.1111 88.3472 26.3636Z" fill="white"/>
<path d="M97.4326 25.6858C97.4326 25.6858 97.6066 26.2125 98.1577 26.4506C98.3462 26.5372 98.5564 26.5661 98.7595 26.5444C98.9625 26.5228 99.2597 26.4795 99.4627 26.3785C99.4627 26.3785 99.6948 26.8475 99.9268 27.0639C99.9268 27.0639 99.905 26.3785 100.289 25.9817C100.289 25.9817 99.7818 26.0755 99.5207 26.2847C99.5207 26.2847 98.977 25.39 98.1577 25.4405C98.1577 25.4405 97.6719 25.4622 97.4326 25.6858Z" fill="white"/>
<path d="M104.784 25.8739C104.784 25.8739 104.973 26.2202 105.393 26.314C105.538 26.3501 105.69 26.3429 105.828 26.2996C105.966 26.2635 106.169 26.1913 106.3 26.0903C106.3 26.0903 106.524 26.3862 106.713 26.5088C106.713 26.5088 106.604 26.0326 106.829 25.7007C106.829 25.7007 106.488 25.8306 106.329 26.0182C106.329 26.0182 105.828 25.4626 105.263 25.6069C105.263 25.6069 104.922 25.6863 104.784 25.8739Z" fill="white"/>
<path d="M112.557 23.2758C112.557 23.2758 112.81 24.0983 113.666 24.4879C113.956 24.625 114.282 24.6755 114.601 24.6539C114.913 24.6322 115.377 24.5673 115.696 24.4158C115.696 24.4158 116.044 25.1445 116.399 25.4908C116.399 25.4908 116.385 24.4302 117.001 23.8169C117.001 23.8169 116.211 23.9468 115.79 24.2715C115.79 24.2715 114.964 22.8718 113.695 22.915C113.695 22.915 112.934 22.9367 112.557 23.2758Z" fill="white"/>
<path d="M114.137 27.4324C114.137 27.4324 114.21 27.7932 114.558 28.0024C114.681 28.0746 114.812 28.1107 114.957 28.1107C115.094 28.1107 115.29 28.1034 115.435 28.0529C115.435 28.0529 115.551 28.3776 115.689 28.5436C115.689 28.5436 115.725 28.089 116.015 27.8509C116.015 27.8509 115.667 27.8726 115.479 27.9952C115.479 27.9952 115.181 27.3603 114.637 27.3242C114.637 27.3314 114.311 27.3026 114.137 27.4324Z" fill="white"/>
<path d="M117.292 23.5789C117.292 23.5789 117.516 24.2211 118.198 24.5096C118.43 24.6107 118.691 24.6395 118.945 24.6107C119.191 24.5818 119.554 24.5241 119.807 24.3942C119.807 24.3942 120.105 24.9642 120.395 25.2239C120.395 25.2239 120.351 24.387 120.822 23.8819C120.822 23.8819 120.199 24.0046 119.88 24.2716C119.88 24.2716 119.191 23.1821 118.183 23.2615C118.183 23.2615 117.582 23.2975 117.292 23.5789Z" fill="white"/>
<path d="M88.1812 24.1923C88.1812 24.1923 88.2101 24.3438 88.3479 24.4304C88.3986 24.4592 88.4494 24.4737 88.5074 24.4809C88.5653 24.4809 88.6451 24.4809 88.7031 24.4664C88.7031 24.4664 88.7466 24.6035 88.8046 24.6685C88.8046 24.6685 88.8263 24.4809 88.9423 24.3871C88.9423 24.3871 88.8046 24.3943 88.7248 24.4376C88.7248 24.4376 88.6088 24.1778 88.3914 24.1562C88.3914 24.1562 88.2609 24.1418 88.1812 24.1923Z" fill="white"/>
<path d="M85.0269 24.9135C85.0269 24.9135 85.2371 25.1444 85.5778 25.1444C85.6938 25.1444 85.8097 25.1083 85.9112 25.0578C86.0127 25.0001 86.1504 24.9135 86.2302 24.8125C86.2302 24.8125 86.4549 25.0001 86.6289 25.0578C86.6289 25.0578 86.4621 24.7115 86.5636 24.4229C86.5636 24.4229 86.3244 24.5888 86.2374 24.7547C86.2374 24.7547 85.7517 24.4229 85.3458 24.6321C85.3458 24.6249 85.0993 24.7475 85.0269 24.9135Z" fill="white"/>
<mask id="mask0_7770_43745" style="mask-type:alpha" maskUnits="userSpaceOnUse" x="81" y="26" width="36" height="18">
<path d="M82.2555 26.4714C82.2555 26.4714 81.5522 26.8971 81.951 29.3647C82.3498 31.8322 84.6192 34.8985 85.975 36.1972C87.3381 37.4959 90.5718 40.2881 94.2115 41.594C97.8513 42.9 101.353 43.5204 105.638 43.3256C109.923 43.1308 115.252 41.7167 116.166 41.2766C116.166 41.2766 114.571 39.242 114.107 35.988C114.056 35.3459 114.085 33.0587 113.875 32.33C113.679 31.6374 113.295 29.3863 112.707 28.2896C112.649 28.1742 112.555 28.0876 112.439 28.0299C111.801 27.7124 109.242 26.8322 100.686 27.1136C100.36 27.128 100.034 27.1497 99.7146 27.1785C98.4168 27.3084 94.4508 27.6547 90.6733 27.431C90.6733 27.431 88.8172 27.2867 86.7436 26.6735C86.497 26.6085 84.4887 26.3271 83.2271 26.3271C82.7558 26.3271 82.3933 26.3632 82.2555 26.4714Z" fill="#47A09D"/>
</mask>
<g mask="url(#mask0_7770_43745)">
<path d="M82.2934 26.1177L81.5396 28.5924V26.1177H82.2934Z" fill="white"/>
<path d="M91.9367 26.1177L87.7097 40.0209L81.5396 38.1667V28.5924L82.2936 26.1177H91.9367Z" fill="white"/>
<path d="M101.58 26.1167L96.541 42.6823L87.71 40.02L91.937 26.1167H101.58Z" fill="white"/>
<path d="M101.841 26.1167L96.7803 42.7544L96.541 42.6823L101.58 26.1167H101.841Z" fill="white"/>
<path d="M102.102 26.1167L97.0195 42.8266L96.7803 42.7544L101.841 26.1167H102.102Z" fill="white"/>
<path d="M102.355 26.1167L97.2511 42.8987L97.019 42.8266L102.102 26.1167H102.355Z" fill="white"/>
<path d="M102.617 26.1167L97.4907 42.9709L97.2515 42.8987L102.356 26.1167H102.617Z" fill="white"/>
<path d="M102.878 26.1167L97.73 43.043L97.4907 42.9709L102.617 26.1167H102.878Z" fill="white"/>
<path d="M103.234 25.9212L97.8171 43.7386L97.4538 43.7212L102.858 25.9708L103.234 25.9212Z" fill="white"/>
<path d="M103.392 26.1167L98.2008 43.1801L97.9688 43.108L103.138 26.1167H103.392Z" fill="white"/>
<path d="M103.654 26.1167L98.4409 43.2523L98.2017 43.1801L103.393 26.1167H103.654Z" fill="white"/>
<path d="M103.915 26.1167L98.6797 43.3244L98.4404 43.2523L103.654 26.1167H103.915Z" fill="white"/>
<path d="M104.168 26.1167L98.9112 43.3966L98.6792 43.3244L103.914 26.1167H104.168Z" fill="white"/>
<path d="M104.429 26.1167L99.1509 43.4687L98.9116 43.3966L104.168 26.1167H104.429Z" fill="white"/>
<path d="M104.69 26.1167L99.3901 43.5409L99.1509 43.4687L104.429 26.1167H104.69Z" fill="white"/>
<path d="M104.944 26.1167L99.6434 43.5409H99.3969H99.3896L104.69 26.1167H104.944Z" fill="white"/>
<path d="M105.204 26.1167L99.9041 43.5409H99.6431L104.943 26.1167H105.204Z" fill="white"/>
<path d="M105.466 26.1167L100.166 43.5409H99.9048L105.205 26.1167H105.466Z" fill="white"/>
<path d="M105.72 26.1167L100.42 43.5409H100.166L105.466 26.1167H105.72Z" fill="white"/>
<path d="M105.981 26.1167L100.681 43.5409H100.42L105.72 26.1167H105.981Z" fill="white"/>
<path d="M106.242 26.1167L100.942 43.5409H100.681L105.981 26.1167H106.242Z" fill="white"/>
<path d="M106.496 26.1167L101.196 43.5409H100.942L106.242 26.1167H106.496Z" fill="white"/>
<path d="M106.756 26.1167L101.456 43.5409H101.195L106.495 26.1167H106.756Z" fill="white"/>
<path d="M107.018 26.1167L101.718 43.5409H101.457L106.757 26.1167H107.018Z" fill="white"/>
<path d="M107.271 26.1167L101.971 43.5409H101.717L107.017 26.1167H107.271Z" fill="white"/>
<path d="M107.286 26.1167L107.511 26.1816L102.232 43.5409H101.971L107.271 26.1167H107.286Z" fill="white"/>
<path d="M107.511 26.1831L107.75 26.2553L102.493 43.5423H102.232L107.511 26.1831Z" fill="white"/>
<path d="M107.75 26.2554L107.989 26.3275L102.747 43.5425H102.493L107.75 26.2554Z" fill="white"/>
<path d="M107.989 26.3271L108.221 26.3993L103.008 43.5421H102.747L107.989 26.3271Z" fill="white"/>
<path d="M108.221 26.3994L108.461 26.4716L103.269 43.5422H103.008L108.221 26.3994Z" fill="white"/>
<path d="M108.46 26.4707L108.7 26.5429L103.53 43.5413H103.269L108.46 26.4707Z" fill="white"/>
<path d="M108.7 26.543L108.932 26.6151L103.784 43.5415H103.53L108.7 26.543Z" fill="white"/>
<path d="M108.932 26.6152L109.171 26.6874L104.045 43.5416H103.784L108.932 26.6152Z" fill="white"/>
<path d="M109.171 26.688L109.41 26.7601L104.306 43.5422H104.045L109.171 26.688Z" fill="white"/>
<path d="M109.41 26.7603L109.642 26.8324L104.56 43.5423H104.306L109.41 26.7603Z" fill="white"/>
<path d="M109.643 26.832L109.882 26.897L104.821 43.5419H104.56L109.643 26.832Z" fill="white"/>
<path d="M109.881 26.8965L110.12 26.9686L105.081 43.5414H104.82L109.881 26.8965Z" fill="white"/>
<path d="M110.121 26.9688L110.36 27.0409L105.336 43.5416H105.082L110.121 26.9688Z" fill="white"/>
<path d="M110.36 27.0415L110.592 27.1137L105.596 43.5422H105.335L110.36 27.0415Z" fill="white"/>
<path d="M110.592 27.1133L110.831 27.1854L105.857 43.5418H105.596L110.592 27.1133Z" fill="white"/>
<path d="M110.831 27.1855L111.07 27.2577L106.111 43.5419H105.857L110.831 27.1855Z" fill="white"/>
<path d="M111.071 27.2573L111.303 27.3295L106.372 43.5415H106.111L111.071 27.2573Z" fill="white"/>
<path d="M111.302 27.3296L111.542 27.4017L106.633 43.5417H106.372L111.302 27.3296Z" fill="white"/>
<path d="M111.543 27.4023L111.782 27.4745L106.888 43.5423H106.634L111.543 27.4023Z" fill="white"/>
<path d="M111.781 27.4746L112.013 27.5395L107.148 43.5424H106.887L111.781 27.4746Z" fill="white"/>
<path d="M112.013 27.5391L112.252 27.6112L107.409 43.5419H107.148L112.013 27.5391Z" fill="white"/>
<path d="M112.252 27.6108L112.492 27.683L107.663 43.5415H107.409L112.252 27.6108Z" fill="white"/>
<path d="M112.492 27.6841L112.724 27.7562L107.925 43.5426H107.664L112.492 27.6841Z" fill="white"/>
<path d="M112.724 27.7559L112.963 27.828L108.185 43.5422H107.924L112.724 27.7559Z" fill="white"/>
<path d="M112.963 27.8271L113.202 27.8993L108.446 43.5414H108.185L112.963 27.8271Z" fill="white"/>
<path d="M113.203 27.8999L113.435 27.9721L108.7 43.542H108.446L113.203 27.8999Z" fill="white"/>
<path d="M113.434 27.9722L113.673 28.0443L108.96 43.5421H108.699L113.434 27.9722Z" fill="white"/>
<path d="M113.673 28.0435L113.913 28.1156L109.221 43.5412H108.96L113.673 28.0435Z" fill="white"/>
<path d="M113.912 28.1162L114.152 28.1884L109.475 43.5418H109.221L113.912 28.1162Z" fill="white"/>
<path d="M114.152 28.188L114.384 28.2529L109.737 43.5415H109.476L114.152 28.188Z" fill="white"/>
<path d="M114.384 28.2534L114.623 28.3256L109.997 43.542H109.736L114.384 28.2534Z" fill="white"/>
<path d="M114.623 28.3252L114.862 28.3973L110.251 43.5416H109.997L114.623 28.3252Z" fill="white"/>
<path d="M114.863 28.3975L115.095 28.4696L110.512 43.5417H110.251L114.863 28.3975Z" fill="white"/>
<path d="M115.095 28.4702L115.334 28.5424L110.773 43.5423H110.512L115.095 28.4702Z" fill="white"/>
<path d="M115.334 28.5425L115.573 28.6146L111.027 43.5424H110.773L115.334 28.5425Z" fill="white"/>
<path d="M115.573 28.6143L115.805 28.6864L111.288 43.5421H111.027L115.573 28.6143Z" fill="white"/>
<path d="M115.805 28.686L116.044 28.7582L111.549 43.5417H111.288L115.805 28.686Z" fill="white"/>
<path d="M116.045 28.7583L116.161 28.7872V29.2345L111.803 43.5418H111.549L116.045 28.7583Z" fill="white"/>
<path d="M116.16 30.0853L112.064 43.5412H111.803L116.16 29.2339V30.0853Z" fill="white"/>
<path d="M112.064 43.5419L116.161 30.0859V43.5419H112.064Z" fill="white"/>
</g>
<path d="M104.117 43.6006C100.659 43.6006 97.5337 43.0378 94.1622 41.8257C90.4282 40.4837 87.122 37.5833 85.8749 36.3928C84.4248 35.0148 82.2062 31.9628 81.8074 29.4809C81.4086 27.0494 82.0612 26.5155 82.1699 26.4434C82.779 26.0033 86.5275 26.5588 86.7812 26.631C88.8186 27.2298 90.6675 27.3813 90.682 27.3813C94.4812 27.605 98.5415 27.2442 99.6943 27.1288C100.028 27.0927 100.361 27.0711 100.68 27.0639C109.105 26.7825 111.759 27.6194 112.506 27.9946C112.651 28.0667 112.767 28.175 112.839 28.3193C113.282 29.1418 113.608 30.6136 113.825 31.5804C113.898 31.9195 113.963 32.2081 114.014 32.3813C114.166 32.908 114.195 34.2067 114.217 35.1591C114.224 35.5415 114.231 35.8734 114.246 36.061C114.695 39.2428 116.254 41.2557 116.269 41.2774L116.378 41.4217L116.218 41.501C115.334 41.9195 110.026 43.3625 105.64 43.5645C105.125 43.5862 104.617 43.6006 104.117 43.6006ZM82.3222 26.6887C82.2932 26.7103 81.7132 27.1793 82.0829 29.4376C82.4744 31.8258 84.6931 34.8777 86.0707 36.1836C87.3033 37.3596 90.5732 40.2312 94.2564 41.5516C98.0774 42.9224 101.587 43.4563 105.625 43.2759C109.598 43.0956 114.659 41.8185 115.935 41.3135C115.558 40.7868 114.355 38.9037 113.963 36.1042V36.097C113.949 35.9022 113.941 35.5631 113.934 35.1735C113.912 34.2428 113.883 32.9657 113.738 32.4679C113.688 32.2803 113.622 31.9917 113.543 31.6454C113.325 30.693 113.006 29.2428 112.586 28.4564C112.542 28.3698 112.47 28.3048 112.383 28.2543C111.817 27.973 109.294 27.0639 100.695 27.3525C100.383 27.3597 100.057 27.3885 99.7305 27.4174C98.2442 27.5689 94.3942 27.8864 90.6675 27.6771C90.6457 27.6771 88.7678 27.5184 86.7015 26.9124C86.3099 26.7969 82.7645 26.3568 82.3439 26.6815L82.3222 26.6887Z" fill="black"/>
<path d="M105.568 40.7865C103.458 40.7865 101.058 40.5917 98.5564 40.0361C95.8447 39.43 93.3361 38.3406 91.0884 36.7894C89.2903 35.5484 87.659 34.0188 86.2451 32.2367C83.8307 29.1992 82.8519 26.4503 82.8374 26.4214L83.1129 26.3276C83.1202 26.3565 84.0917 29.0693 86.4771 32.0708C88.674 34.8341 92.5675 38.4127 98.6217 39.7619C103.182 40.7792 107.38 40.57 110.099 40.2093C113.05 39.8196 114.95 39.1847 114.964 39.1775L115.058 39.4517C115.037 39.4589 113.123 40.101 110.143 40.4906C108.888 40.6566 107.329 40.7865 105.568 40.7865Z" fill="black"/>
<path d="M107.482 37.2151C105.633 37.2151 103.45 37.114 100.985 36.8182C96.8307 36.3276 93.539 33.7374 91.5089 31.6523C89.312 29.4085 88.0794 27.2367 88.0649 27.2151L88.3187 27.0708C88.3332 27.0924 89.5513 29.2353 91.7264 31.4575C93.7203 33.5066 96.9613 36.0462 101.022 36.5296C109.077 37.4892 114.094 36.3998 114.145 36.3853L114.21 36.6667C114.167 36.6812 111.709 37.2151 107.482 37.2151Z" fill="black"/>
<path d="M108.707 33.37C107.04 33.37 105.466 33.2546 104.009 33.0309C101.667 32.6702 99.6006 32.0208 97.8678 31.1045C94.8951 29.5316 93.9308 27.7423 93.8945 27.663L94.1483 27.5259C94.1628 27.5547 95.1271 29.3296 98.0273 30.8592C100.717 32.2733 105.655 33.7452 113.935 32.7423L113.971 33.0309C112.129 33.2618 110.368 33.37 108.707 33.37Z" fill="black"/>
<path d="M112.31 30.1734C108.33 30.1734 105.981 29.4446 104.69 28.8025C103.153 28.0449 102.725 27.2441 102.704 27.2152L102.957 27.0781C102.965 27.0853 103.378 27.8429 104.85 28.5644C106.213 29.2282 108.787 30.0002 113.282 29.8703L113.289 30.1589C112.956 30.1661 112.629 30.1734 112.31 30.1734Z" fill="black"/>
<mask id="mask1_7770_43745" style="mask-type:alpha" maskUnits="userSpaceOnUse" x="115" y="28" width="16" height="13">
<path d="M120.264 40.8003C120.264 40.7137 120.256 40.6272 120.256 40.5478C120.235 40.6993 120.264 40.8003 120.264 40.8003ZM115.768 28.7369C115.587 28.8523 115.167 29.278 115.841 30.6921C116.551 32.1856 118.937 34.3068 119.415 35.7931C119.452 35.9086 119.488 36.024 119.524 36.1394C119.698 36.6517 120.162 38.2173 120.264 40.5406C120.307 40.2231 120.59 39.682 121.859 39.3862C121.859 39.3862 128.428 37.4021 130.4 37.1928C130.4 37.1928 126.564 30.6849 115.913 28.708C115.899 28.708 115.884 28.708 115.877 28.708C115.841 28.708 115.805 28.7152 115.768 28.7369Z" fill="#47A09D"/>
</mask>
<g mask="url(#mask1_7770_43745)">
<path d="M117.067 28.7007L115.175 33.4698V28.7007H117.067Z" fill="white"/>
<path d="M117.335 28.7007L115.175 34.1408V33.4698L117.067 28.7007H117.335Z" fill="white"/>
<path d="M117.604 28.7007L115.175 34.819V34.1408L117.335 28.7007H117.604Z" fill="white"/>
<path d="M117.872 28.7007L115.175 35.49V34.819L117.604 28.7007H117.872Z" fill="white"/>
<path d="M118.14 28.7007L115.175 36.161V35.49L117.872 28.7007H118.14Z" fill="white"/>
<path d="M118.409 28.7007L115.175 36.8392V36.161L118.14 28.7007H118.409Z" fill="white"/>
<path d="M118.677 28.7007L115.175 37.5102V36.8392L118.409 28.7007H118.677Z" fill="white"/>
<path d="M118.945 28.7007L115.175 38.1884V37.5102L118.677 28.7007H118.945Z" fill="white"/>
<path d="M119.206 28.7007L115.175 38.8594V38.1884L118.945 28.7007H119.206Z" fill="white"/>
<path d="M119.474 28.7007L115.378 39.0253L115.175 38.946V38.8594L119.206 28.7007H119.474Z" fill="white"/>
<path d="M119.743 28.7007L115.61 39.1191L115.378 39.0253L119.474 28.7007H119.743Z" fill="white"/>
<path d="M120.01 28.7007L115.841 39.2129L115.609 39.1191L119.742 28.7007H120.01Z" fill="white"/>
<path d="M120.278 28.7007L116.065 39.2995L115.84 39.2129L120.009 28.7007H120.278Z" fill="white"/>
<path d="M120.547 28.7007L116.298 39.3933L116.066 39.2995L120.279 28.7007H120.547Z" fill="white"/>
<path d="M120.815 28.7007L116.53 39.4799L116.298 39.3933L120.547 28.7007H120.815Z" fill="white"/>
<path d="M121.084 28.7007L116.762 39.5737L116.53 39.4799L120.815 28.7007H121.084Z" fill="white"/>
<path d="M121.352 28.7007L116.995 39.6674L116.763 39.5737L121.084 28.7007H121.352Z" fill="white"/>
<path d="M121.62 28.7007L117.227 39.754L116.995 39.6674L121.352 28.7007H121.62Z" fill="white"/>
<path d="M121.889 28.7007L117.459 39.8478L117.227 39.754L121.62 28.7007H121.889Z" fill="white"/>
<path d="M121.925 28.7007L122.121 28.78L117.691 39.9416L117.459 39.8478L121.889 28.7007H121.925Z" fill="white"/>
<path d="M122.106 28.7765L117.673 39.9336L117.921 40.0313L122.355 28.8742L122.106 28.7765Z" fill="white"/>
<path d="M122.353 28.8732L117.919 40.0303L118.159 40.1245L122.592 28.9674L122.353 28.8732Z" fill="white"/>
<path d="M122.587 28.965L118.153 40.1221L118.383 40.2123L122.816 29.0552L122.587 28.965Z" fill="white"/>
<path d="M122.814 29.0539L118.381 40.2109L118.61 40.3011L123.043 29.144L122.814 29.0539Z" fill="white"/>
<path d="M123.043 29.1427L118.609 40.2998L118.85 40.3943L123.283 29.2372L123.043 29.1427Z" fill="white"/>
<path d="M123.283 29.2374L118.85 40.3945L119.079 40.4847L123.512 29.3276L123.283 29.2374Z" fill="white"/>
<path d="M123.511 29.3263L119.077 40.4834L119.314 40.5766L123.747 29.4195L123.511 29.3263Z" fill="white"/>
<path d="M123.744 29.4176L119.311 40.5747L119.547 40.6676L123.981 29.5105L123.744 29.4176Z" fill="white"/>
<path d="M123.976 29.5158L119.542 40.6729L119.772 40.763L124.205 29.6059L123.976 29.5158Z" fill="white"/>
<path d="M124.202 29.6025L124.434 29.6963L120.025 40.8002H119.88L119.771 40.7569L124.202 29.6025Z" fill="white"/>
<path d="M124.434 29.6968L124.666 29.7834L120.294 40.8006H120.025L124.434 29.6968Z" fill="white"/>
<path d="M124.666 29.7827L124.898 29.8765L120.562 40.8H120.294L124.666 29.7827Z" fill="white"/>
<path d="M124.897 29.8765L125.129 29.963L120.823 40.7999H120.562L124.897 29.8765Z" fill="white"/>
<path d="M125.13 29.9634L125.362 30.0572L121.092 40.8003H120.823L125.13 29.9634Z" fill="white"/>
<path d="M125.361 30.0576L125.593 30.1514L121.359 40.8007H121.091L125.361 30.0576Z" fill="white"/>
<path d="M125.594 30.1504L125.826 30.237L121.628 40.7997H121.359L125.594 30.1504Z" fill="white"/>
<path d="M125.826 30.2373L126.058 30.3311L121.896 40.8H121.628L125.826 30.2373Z" fill="white"/>
<path d="M126.058 30.3311L126.29 30.4176L122.164 40.8H121.896L126.058 30.3311Z" fill="white"/>
<path d="M126.289 30.4175L126.521 30.5113L122.432 40.7998H122.164L126.289 30.4175Z" fill="white"/>
<path d="M126.522 30.5112L126.754 30.605L122.701 40.7998H122.433L126.522 30.5112Z" fill="white"/>
<path d="M126.754 30.605L126.978 30.6916L122.969 40.7997H122.701L126.754 30.605Z" fill="white"/>
<path d="M126.979 30.6924L127.211 30.7862L123.238 40.8006H122.969L126.979 30.6924Z" fill="white"/>
<path d="M127.211 30.7861L127.443 30.8799L123.506 40.8005H123.238L127.211 30.7861Z" fill="white"/>
<path d="M127.442 30.8789L127.674 30.9655L123.766 40.7995H123.505L127.442 30.8789Z" fill="white"/>
<path d="M127.675 30.9658L127.907 31.0596L124.035 40.7998H123.767L127.675 30.9658Z" fill="white"/>
<path d="M127.906 31.0601L128.138 31.1466L124.303 40.8003H124.035L127.906 31.0601Z" fill="white"/>
<path d="M128.139 31.146L128.371 31.2398L124.571 40.7996H124.303L128.139 31.146Z" fill="white"/>
<path d="M128.371 31.2402L128.603 31.334L124.84 40.8001H124.571L128.371 31.2402Z" fill="white"/>
<path d="M128.603 31.3345L128.835 31.4211L125.108 40.8005H124.84L128.603 31.3345Z" fill="white"/>
<path d="M128.834 31.4209L129.066 31.5147L125.376 40.8004H125.107L128.834 31.4209Z" fill="white"/>
<path d="M129.066 31.5146L129.298 31.6084L125.644 40.8003H125.376L129.066 31.5146Z" fill="white"/>
<path d="M129.299 31.6084L129.531 31.695L125.913 40.8003H125.645L129.299 31.6084Z" fill="white"/>
<path d="M129.531 31.6958L129.756 31.7896L126.181 40.8011H125.913L129.531 31.6958Z" fill="white"/>
<path d="M129.756 31.7886L129.988 31.8752L126.449 40.8001H126.181L129.756 31.7886Z" fill="white"/>
<path d="M129.987 31.8755L130.219 31.9693L126.71 40.8004H126.449L129.987 31.8755Z" fill="white"/>
<path d="M130.219 31.9692L130.408 32.0414V32.1857L126.978 40.8004H126.71L130.219 31.9692Z" fill="white"/>
<path d="M130.408 32.8565L127.247 40.8002H126.979L130.408 32.1855V32.8565Z" fill="white"/>
<path d="M130.408 33.5274L127.515 40.8001H127.247L130.408 32.8564V33.5274Z" fill="white"/>
<path d="M130.408 34.206L127.783 40.8005H127.515L130.408 33.5278V34.206Z" fill="white"/>
<path d="M130.408 34.8766L128.052 40.8001H127.784L130.408 34.2056V34.8766Z" fill="white"/>
<path d="M130.408 35.5479L128.32 40.8005H128.051L130.408 34.877V35.5479Z" fill="white"/>
<path d="M130.408 36.2251L128.588 40.7994H128.32L130.408 35.5469V36.2251Z" fill="white"/>
<path d="M130.408 36.8966L128.857 40.7999H128.588L130.408 36.2256V36.8966Z" fill="white"/>
<path d="M128.856 40.8003L130.408 36.897V40.8003H128.856Z" fill="white"/>
</g>
<path d="M120.235 41.2839C120.213 41.1107 120.184 40.8293 120.163 40.685C120.047 38.4845 119.582 36.825 119.394 36.2622C119.365 36.1829 119.343 36.1035 119.314 36.0241L119.278 35.9159C119.024 35.1295 118.205 34.1338 117.407 33.1742C116.704 32.3301 116.044 31.5292 115.718 30.8366C115 29.3286 115.471 28.838 115.703 28.6937C115.776 28.6504 115.863 28.636 115.95 28.6504C121.482 29.675 125.151 31.9405 127.253 33.6648C129.537 35.5335 130.494 37.1353 130.538 37.2074L130.654 37.4022L130.429 37.4239C128.486 37.6259 121.975 39.5956 121.91 39.6172H121.903C121.004 39.8264 120.648 40.1583 120.511 40.3964C120.46 40.483 120.431 40.5696 120.424 40.6417C120.373 40.8798 120.322 41.1396 120.293 41.2983C120.279 41.3127 120.235 41.3055 120.235 41.2839ZM115.877 28.9246C115.87 28.9246 115.856 28.9246 115.848 28.9318C115.718 29.0112 115.341 29.3719 115.972 30.7067C116.284 31.3705 116.965 32.193 117.625 32.9866C118.437 33.9679 119.285 34.9852 119.553 35.8293L119.59 35.9376C119.611 36.0169 119.64 36.0963 119.662 36.1684C119.843 36.6951 120.235 38.0516 120.373 40.0573C120.648 39.7326 121.134 39.4873 121.816 39.3286C122.127 39.2348 127.971 37.4744 130.154 37.1569C129.827 36.6807 128.849 35.3459 127.05 33.8741C124.977 32.1786 121.359 29.9491 115.892 28.9318C115.892 28.9246 115.885 28.9246 115.877 28.9246Z" fill="black"/>
<path d="M127.602 34.3296C121.656 31.0612 115.849 30.6861 115.791 30.6861L115.805 30.3975C115.863 30.3975 121.736 30.7799 127.739 34.0771L127.602 34.3296Z" fill="black"/>
<path d="M129.182 35.8951C124.679 33.543 117.871 33.5142 117.762 33.5142V33.2256C117.871 33.2256 124.752 33.2472 129.319 35.6354L129.182 35.8951Z" fill="black"/>
<path d="M129.646 36.3992C126.239 35.7715 119.554 36.1827 119.481 36.19L119.459 35.9014C119.525 35.8941 126.246 35.4757 129.69 36.1178L129.646 36.3992Z" fill="black"/>
<path d="M120.148 38.9821L120.076 38.7007C120.126 38.6863 124.962 37.3948 130.4 37.1206L130.415 37.4092C125.006 37.6834 120.199 38.9676 120.148 38.9821Z" fill="black"/>
</g>
<path d="M11.211 0.713582V3.06421H7.08619V15.5309H4.10365V3.06421H0V0.713582H11.211Z" fill="white"/>
<path d="M19.8332 3.73582C21.187 3.73582 22.2658 4.17656 23.0696 5.05804C23.8734 5.93953 24.2753 7.17781 24.2753 8.77287V15.5309H21.3139V9.10868C21.3139 8.18522 21.0742 7.47163 20.5947 6.96793C20.1153 6.45023 19.4595 6.19138 18.6275 6.19138C17.7814 6.19138 17.1045 6.46422 16.5969 7.0099C16.0892 7.55558 15.8354 8.33913 15.8354 9.36053V15.5309H12.8528V0H15.8354V6.23336C16.1456 5.44982 16.6533 4.84117 17.3584 4.40742C18.0776 3.95969 18.9025 3.73582 19.8332 3.73582Z" fill="white"/>
<path d="M37.9202 9.27658C37.9202 9.57041 37.885 9.90621 37.8145 10.284H29.2264C29.2687 11.3194 29.5508 12.0819 30.0725 12.5717C30.5943 13.0614 31.243 13.3062 32.0186 13.3062C32.7096 13.3062 33.2807 13.1383 33.732 12.8025C34.1973 12.4667 34.4935 12.012 34.6204 11.4383H37.7722C37.617 12.2498 37.2856 12.9774 36.778 13.621C36.2703 14.2647 35.6146 14.7684 34.8108 15.1322C34.0211 15.4959 33.1397 15.6778 32.1667 15.6778C31.0244 15.6778 30.0091 15.44 29.1207 14.9643C28.2322 14.4745 27.5412 13.7819 27.0477 12.8865C26.5541 11.991 26.3073 10.9346 26.3073 9.71732C26.3073 8.50003 26.5541 7.44365 27.0477 6.54817C27.5412 5.6387 28.2322 4.94611 29.1207 4.47039C30.0091 3.99467 31.0244 3.7568 32.1667 3.7568C33.323 3.7568 34.3313 3.99467 35.1915 4.47039C36.0658 4.94611 36.7357 5.60372 37.201 6.44323C37.6805 7.26875 37.9202 8.2132 37.9202 9.27658ZM34.9165 8.98275C34.9588 8.03131 34.705 7.31073 34.155 6.82101C33.6192 6.3313 32.9564 6.08644 32.1667 6.08644C31.3629 6.08644 30.686 6.3313 30.136 6.82101C29.586 7.31073 29.2828 8.03131 29.2264 8.98275H34.9165Z" fill="white"/>
<path d="M47.6266 13.2642H52.6398V15.5309H44.644V0.713582H47.6266V13.2642Z" fill="white"/>
<path d="M65.4354 9.27658C65.4354 9.57041 65.4002 9.90621 65.3296 10.284H56.7416C56.7839 11.3194 57.0659 12.0819 57.5877 12.5717C58.1095 13.0614 58.7582 13.3062 59.5338 13.3062C60.2248 13.3062 60.7959 13.1383 61.2472 12.8025C61.7125 12.4667 62.0087 12.012 62.1356 11.4383H65.2873C65.1322 12.2498 64.8008 12.9774 64.2932 13.621C63.7855 14.2647 63.1297 14.7684 62.3259 15.1322C61.5362 15.4959 60.6549 15.6778 59.6818 15.6778C58.5396 15.6778 57.5243 15.44 56.6358 14.9643C55.7474 14.4745 55.0564 13.7819 54.5629 12.8865C54.0693 11.991 53.8225 10.9346 53.8225 9.71732C53.8225 8.50003 54.0693 7.44365 54.5629 6.54817C55.0564 5.6387 55.7474 4.94611 56.6358 4.47039C57.5243 3.99467 58.5396 3.7568 59.6818 3.7568C60.8382 3.7568 61.8465 3.99467 62.7067 4.47039C63.581 4.94611 64.2508 5.60372 64.7162 6.44323C65.1957 7.26875 65.4354 8.2132 65.4354 9.27658ZM62.4317 8.98275C62.474 8.03131 62.2202 7.31073 61.6702 6.82101C61.1343 6.3313 60.4715 6.08644 59.6818 6.08644C58.878 6.08644 58.2011 6.3313 57.6512 6.82101C57.1012 7.31073 56.798 8.03131 56.7416 8.98275H62.4317Z" fill="white"/>
<path d="M72.1428 3.7568C73.13 3.7568 73.9761 3.98767 74.6812 4.4494C75.3863 4.91113 75.8869 5.53377 76.183 6.31731V3.90372H79.1444V15.5309H76.183V13.0963C75.8869 13.8799 75.3863 14.5095 74.6812 14.9852C73.9761 15.447 73.13 15.6778 72.1428 15.6778C71.1557 15.6778 70.2673 15.44 69.4776 14.9643C68.6879 14.4885 68.0674 13.8029 67.6161 12.9075C67.179 11.998 66.9604 10.9346 66.9604 9.71732C66.9604 8.50003 67.179 7.44365 67.6161 6.54817C68.0674 5.6387 68.6879 4.94611 69.4776 4.47039C70.2673 3.99467 71.1557 3.7568 72.1428 3.7568ZM73.0736 6.3383C72.1428 6.3383 71.3954 6.63912 70.8314 7.24077C70.2673 7.84242 69.9852 8.66794 69.9852 9.71732C69.9852 10.7667 70.2673 11.5922 70.8314 12.1939C71.3954 12.7815 72.1428 13.0754 73.0736 13.0754C73.9761 13.0754 74.7164 12.7745 75.2946 12.1729C75.8869 11.5572 76.183 10.7387 76.183 9.71732C76.183 8.68193 75.8869 7.86341 75.2946 7.26176C74.7164 6.64612 73.9761 6.3383 73.0736 6.3383Z" fill="white"/>
<path d="M84.8299 6.12842C85.2671 5.38685 85.8452 4.80619 86.5644 4.38644C87.2836 3.95269 88.0874 3.73582 88.9758 3.73582V6.90497H88.1086C85.9228 6.90497 84.8299 7.91238 84.8299 9.9272V15.5309H81.8473V3.90372H84.8299V6.12842Z" fill="white"/>
<path d="M97.607 3.73582C98.9608 3.73582 100.04 4.17656 100.843 5.05804C101.647 5.93953 102.049 7.17781 102.049 8.77287V15.5309H99.0877V9.10868C99.0877 8.18522 98.848 7.47163 98.3685 6.96793C97.8891 6.45023 97.2333 6.19138 96.4013 6.19138C95.5552 6.19138 94.8783 6.46422 94.3706 7.0099C93.863 7.55558 93.6091 8.33913 93.6091 9.36053V15.5309H90.6266V3.90372H93.6091V6.23336C93.9194 5.44982 94.427 4.84117 95.1321 4.40742C95.8513 3.95969 96.6763 3.73582 97.607 3.73582Z" fill="white"/>
<path d="M107.656 10.0321V15.5309H104.673V0.713582H110.11C111.872 0.713582 113.198 1.13334 114.086 1.97285C114.989 2.81236 115.44 3.95269 115.44 5.39385C115.44 6.80702 114.975 7.93336 114.044 8.77287C113.127 9.61238 111.816 10.0321 110.11 10.0321H107.656ZM109.792 7.66052C111.541 7.66052 112.415 6.90497 112.415 5.39385C112.415 4.65228 112.211 4.08561 111.802 3.69384C111.393 3.30207 110.723 3.10618 109.792 3.10618H107.656V7.66052H109.792Z" fill="white"/>
<path d="M121.968 3.7568C122.955 3.7568 123.801 3.98767 124.506 4.4494C125.211 4.91113 125.712 5.53377 126.008 6.31731V3.90372H128.969V15.5309H126.008V13.0963C125.712 13.8799 125.211 14.5095 124.506 14.9852C123.801 15.447 122.955 15.6778 121.968 15.6778C120.98 15.6778 120.092 15.44 119.302 14.9643C118.513 14.4885 117.892 13.8029 117.441 12.9075C117.004 11.998 116.785 10.9346 116.785 9.71732C116.785 8.50003 117.004 7.44365 117.441 6.54817C117.892 5.6387 118.513 4.94611 119.302 4.47039C120.092 3.99467 120.98 3.7568 121.968 3.7568ZM122.898 6.3383C121.968 6.3383 121.22 6.63912 120.656 7.24077C120.092 7.84242 119.81 8.66794 119.81 9.71732C119.81 10.7667 120.092 11.5922 120.656 12.1939C121.22 12.7815 121.968 13.0754 122.898 13.0754C123.801 13.0754 124.541 12.7745 125.119 12.1729C125.712 11.5572 126.008 10.7387 126.008 9.71732C126.008 8.68193 125.712 7.86341 125.119 7.26176C124.541 6.64612 123.801 6.3383 122.898 6.3383Z" fill="white"/>
<path d="M136.262 3.7568C137.249 3.7568 138.088 3.98767 138.779 4.4494C139.485 4.91113 139.992 5.53377 140.302 6.31731V0H143.264V15.5309H140.302V13.0963C139.992 13.8799 139.485 14.5095 138.779 14.9852C138.088 15.447 137.249 15.6778 136.262 15.6778C135.275 15.6778 134.387 15.44 133.597 14.9643C132.807 14.4885 132.187 13.8029 131.736 12.9075C131.298 11.998 131.08 10.9346 131.08 9.71732C131.08 8.50003 131.298 7.44365 131.736 6.54817C132.187 5.6387 132.807 4.94611 133.597 4.47039C134.387 3.99467 135.275 3.7568 136.262 3.7568ZM137.193 6.3383C136.262 6.3383 135.515 6.63912 134.951 7.24077C134.387 7.84242 134.105 8.66794 134.105 9.71732C134.105 10.7667 134.387 11.5922 134.951 12.1939C135.515 12.7815 136.262 13.0754 137.193 13.0754C138.096 13.0754 138.836 12.7745 139.414 12.1729C140.006 11.5572 140.302 10.7387 140.302 9.71732C140.302 8.68193 140.006 7.86341 139.414 7.26176C138.836 6.64612 138.096 6.3383 137.193 6.3383Z" fill="white"/>
<defs>
<clipPath id="clip0_7770_43745">
<rect width="66.523" height="29.6608" fill="white" transform="translate(81.5396 20.3394)"/>
</clipPath>
</defs>
</svg>
