<svg width="110" height="38" viewBox="0 0 110 38" fill="none" xmlns="http://www.w3.org/2000/svg">
<path d="M3.93646 23.6163C4.54284 23.6163 5.08276 23.7568 5.55623 24.0378C6.02971 24.3188 6.39935 24.7238 6.66516 25.2528C6.93927 25.7818 7.07633 26.4018 7.07633 27.1126C7.07633 27.8234 6.93927 28.4434 6.66516 28.9723C6.39935 29.4931 6.02971 29.894 5.55623 30.175C5.08276 30.456 4.54284 30.5965 3.93646 30.5965C3.27193 30.5965 2.70709 30.4312 2.24192 30.1006C1.78506 29.7617 1.46941 29.3195 1.29498 28.774V30.5097H0.161133V21.335H1.29498V25.4388C1.46941 24.8933 1.78506 24.4552 2.24192 24.1246C2.70709 23.7857 3.27193 23.6163 3.93646 23.6163ZM3.6125 24.6205C3.17226 24.6205 2.77354 24.7238 2.41636 24.9305C2.05918 25.1289 1.78091 25.4182 1.58155 25.7984C1.38219 26.1786 1.28252 26.6167 1.28252 27.1126C1.28252 27.6085 1.38219 28.0466 1.58155 28.4268C1.78091 28.7988 2.05918 29.0881 2.41636 29.2947C2.77354 29.5013 3.17226 29.6047 3.6125 29.6047C4.31856 29.6047 4.87925 29.3856 5.29458 28.9476C5.71821 28.5012 5.93003 27.8896 5.93003 27.1126C5.93003 26.3356 5.71821 25.7281 5.29458 25.29C4.87925 24.8437 4.31856 24.6205 3.6125 24.6205Z" fill="#003042"/>
<path d="M9.03038 23.703L11.2482 29.0591L13.3041 23.703H14.5625L10.5006 33.7333H9.21728L10.6377 30.3982L7.75948 23.703H9.03038Z" fill="#003042"/>
<path d="M22.6676 21.6821C23.6894 21.6821 24.5449 21.9342 25.2344 22.4384C25.9321 22.9426 26.4014 23.6287 26.6423 24.4965H25.4462C25.2385 23.9675 24.8896 23.5419 24.3996 23.2195C23.9178 22.8972 23.3446 22.736 22.6801 22.736C22.082 22.736 21.5463 22.8765 21.0728 23.1575C20.5993 23.4303 20.2255 23.8229 19.9514 24.3354C19.6856 24.8478 19.5527 25.4512 19.5527 26.1455C19.5527 26.8564 19.6898 27.4721 19.9639 27.9929C20.238 28.5053 20.6159 28.9021 21.0977 29.1831C21.5878 29.4559 22.1485 29.5923 22.7798 29.5923C23.3197 29.5923 23.8139 29.4765 24.2625 29.2451C24.7111 29.0137 25.0765 28.6789 25.359 28.2408C25.6497 27.7945 25.8241 27.2738 25.8823 26.6787H22.4309V25.8356H26.8417V26.877C26.7669 27.5713 26.551 28.1995 26.1938 28.7616C25.8366 29.3236 25.3548 29.77 24.7484 30.1006C24.1421 30.4312 23.4526 30.5965 22.6801 30.5965C21.8328 30.5965 21.0853 30.4106 20.4373 30.0386C19.7894 29.6584 19.2827 29.1335 18.9172 28.464C18.5601 27.7862 18.3815 27.0134 18.3815 26.1455C18.3815 25.2776 18.5601 24.5089 18.9172 23.8394C19.2827 23.1617 19.7894 22.6327 20.4373 22.2524C21.0853 21.8722 21.8287 21.6821 22.6676 21.6821Z" fill="#003042"/>
<path d="M33.5241 28.4888H29.6616L28.9265 30.5097H27.7054L30.9574 21.9301H32.2408L35.4803 30.5097H34.2593L33.5241 28.4888ZM33.2002 27.6085L31.5929 23.1947L29.9855 27.6085H33.2002Z" fill="#003042"/>
<path d="M37.7618 21.7689V30.5097H36.628V21.7689H37.7618Z" fill="#003042"/>
<path d="M46.4127 30.5097H45.2789L40.7186 23.6039V30.5097H39.5848V21.7689H40.7186L45.2789 28.6872V21.7689H46.4127V30.5097Z" fill="#003042"/>
<path d="M53.7931 28.2408C53.7931 28.6541 53.6935 29.0385 53.4941 29.3939C53.2948 29.7493 52.9916 30.0386 52.5845 30.2618C52.1775 30.4849 51.675 30.5965 51.0769 30.5965C50.4954 30.5965 49.9763 30.4932 49.5194 30.2866C49.0709 30.0717 48.7095 29.7824 48.4354 29.4187C48.1696 29.0467 48.0159 28.6252 47.9744 28.1541H49.183C49.2079 28.402 49.291 28.6459 49.4322 28.8856C49.5817 29.117 49.7894 29.3112 50.0552 29.4683C50.3293 29.6171 50.6574 29.6915 51.0395 29.6915C51.5379 29.6915 51.92 29.5592 52.1858 29.2947C52.4516 29.0302 52.5845 28.6913 52.5845 28.278C52.5845 27.9226 52.489 27.6333 52.298 27.4102C52.1152 27.187 51.8868 27.0134 51.6127 26.8894C51.3386 26.7572 50.9648 26.6167 50.4913 26.4679C49.9348 26.286 49.4862 26.1166 49.1456 25.9595C48.8134 25.7942 48.5268 25.5504 48.2859 25.228C48.0533 24.9057 47.937 24.48 47.937 23.951C47.937 23.4964 48.045 23.0955 48.261 22.7484C48.4853 22.4012 48.8009 22.1326 49.2079 21.9425C49.6233 21.7524 50.1092 21.6573 50.6657 21.6573C51.5296 21.6573 52.2149 21.8681 52.7216 22.2896C53.2283 22.7029 53.5232 23.2319 53.6062 23.8766H52.3852C52.3187 23.5295 52.1401 23.2236 51.8494 22.9591C51.5587 22.6946 51.1641 22.5624 50.6657 22.5624C50.2089 22.5624 49.8434 22.6822 49.5693 22.9219C49.2951 23.1534 49.1581 23.484 49.1581 23.9138C49.1581 24.2527 49.2453 24.5296 49.4197 24.7445C49.6025 24.9511 49.8268 25.1165 50.0926 25.2404C50.3584 25.3562 50.7239 25.4884 51.189 25.6372C51.7539 25.819 52.2066 25.9926 52.5472 26.1579C52.896 26.3232 53.1909 26.5753 53.4318 26.9142C53.6727 27.2448 53.7931 27.6871 53.7931 28.2408Z" fill="#003042"/>
<g clip-path="url(#clip0_7735_59177)">
<path d="M65.3081 18.5829C65.3081 18.5829 65.5506 19.3341 66.3386 19.696C66.6086 19.8167 66.9116 19.866 67.2037 19.8386C67.4902 19.8167 67.92 19.7563 68.2121 19.6083C68.2121 19.6083 68.5372 20.2773 68.8733 20.5953C68.8733 20.5953 68.8513 19.6138 69.4134 19.049C69.4134 19.049 68.6805 19.1751 68.3003 19.4767C68.3003 19.4767 67.5288 18.1881 66.3551 18.2429C66.3551 18.2429 65.6553 18.2648 65.3081 18.5829Z" fill="#CDD7D8"/>
<path d="M71.8164 17.9248C71.8164 17.9248 72.4721 18.6267 73.5191 18.6157C73.8773 18.6102 74.23 18.506 74.5441 18.3251C74.8471 18.1496 75.2825 17.8645 75.5304 17.5574C75.5304 17.5574 76.2358 18.1277 76.7648 18.3031C76.7648 18.3031 76.2302 17.2448 76.5554 16.3291C76.5554 16.3291 75.8225 16.8445 75.558 17.3655C75.558 17.3655 74.0481 16.351 72.7862 17.0145C72.7862 17.0145 72.0313 17.3984 71.8164 17.9248Z" fill="#003042"/>
<path d="M77.2769 17.7171C77.2769 17.7171 77.5248 18.4738 78.3238 18.8247C78.5994 18.9454 78.8969 18.9892 79.1945 18.9618C79.4865 18.9344 79.9108 18.8686 80.2084 18.7205C80.2084 18.7205 80.5445 19.3895 80.8807 19.7076C80.8807 19.7076 80.8476 18.726 81.4042 18.1448C81.4042 18.1448 80.6713 18.2819 80.2911 18.5835C80.2911 18.5835 79.5031 17.2948 78.3238 17.3661C78.3293 17.3661 77.624 17.399 77.2769 17.7171Z" fill="#003042"/>
<path d="M88.2041 19.6028C88.2041 19.6028 88.4521 20.3595 89.2511 20.7105C89.5266 20.8311 89.8242 20.875 90.1217 20.8476C90.4138 20.8201 90.8381 20.7543 91.1356 20.6063C91.1356 20.6063 91.4718 21.2753 91.8079 21.5933C91.8079 21.5933 91.7749 20.6118 92.3314 20.0305C92.3314 20.0305 91.5985 20.1676 91.2183 20.4692C91.2183 20.4692 90.4303 19.1806 89.2511 19.2519C89.2566 19.2519 88.5513 19.2848 88.2041 19.6028Z" fill="#003042"/>
<path d="M92.3536 22.9203C92.3536 22.9203 92.2985 23.825 92.9928 24.5269C93.2297 24.7682 93.5328 24.9382 93.8579 25.0314C94.1775 25.1246 94.6569 25.2343 95.0316 25.2014C95.0316 25.2014 95.1033 26.0513 95.3292 26.5229C95.3292 26.5229 95.7094 25.4646 96.547 25.0917C96.547 25.0917 95.7149 24.9272 95.1859 25.0917C95.1859 25.0917 94.8939 23.4028 93.6155 22.9806C93.6155 22.9861 92.855 22.7284 92.3536 22.9203Z" fill="#003042"/>
<path d="M95.8413 25.9031C95.8413 25.9031 96.0507 26.605 96.7781 26.9505C97.026 27.0711 97.3016 27.115 97.5771 27.0985C97.8471 27.0821 98.2438 27.0327 98.5139 26.9066C98.5139 26.9066 98.8059 27.5372 99.109 27.8333C99.109 27.8333 99.1035 26.923 99.638 26.4076C99.638 26.4076 98.9602 26.5118 98.602 26.7805C98.602 26.7805 97.9132 25.5741 96.8222 25.6015C96.8222 25.607 96.1719 25.618 95.8413 25.9031Z" fill="#557583"/>
<path d="M105.496 27.9984C105.496 27.9984 105.336 28.5357 105.655 29.0567C105.766 29.2376 105.925 29.3802 106.107 29.4844C106.289 29.5831 106.559 29.7202 106.79 29.7476C106.79 29.7476 106.713 30.2685 106.785 30.5865C106.785 30.5865 107.16 29.9998 107.722 29.8901C107.722 29.8901 107.242 29.6763 106.895 29.7037C106.895 29.7037 106.956 28.6399 106.245 28.2122C106.245 28.2122 105.826 27.949 105.496 27.9984Z" fill="#557583"/>
<path d="M103.236 32.1768C103.236 32.1768 102.779 32.429 102.641 32.9773C102.597 33.1693 102.602 33.3667 102.658 33.5531C102.707 33.7341 102.801 34.0027 102.933 34.1727C102.933 34.1727 102.536 34.4688 102.371 34.7211C102.371 34.7211 103.005 34.584 103.445 34.8746C103.445 34.8746 103.269 34.4195 103.027 34.2111C103.027 34.2111 103.77 33.5531 103.583 32.8019C103.589 32.8074 103.489 32.3632 103.236 32.1768Z" fill="#557583"/>
<path d="M100.04 29.2324C100.04 29.2324 99.908 30.022 100.459 30.7129C100.646 30.9487 100.9 31.1242 101.175 31.2393C101.451 31.349 101.859 31.4916 102.195 31.4971C102.195 31.4971 102.178 32.2538 102.333 32.6925C102.333 32.6925 102.762 31.7932 103.539 31.5409C103.539 31.5409 102.818 31.3216 102.338 31.4203C102.338 31.4203 102.239 29.9014 101.148 29.4134C101.148 29.4024 100.503 29.1008 100.04 29.2324Z" fill="#003042"/>
<path d="M100.432 31.2832C100.432 31.2832 99.9028 32.1057 100.184 33.1311C100.283 33.4821 100.476 33.8001 100.735 34.0633C100.988 34.3155 101.38 34.672 101.749 34.8365C101.749 34.8365 101.369 35.6754 101.33 36.2402C101.33 36.2402 102.245 35.4451 103.231 35.5274C103.231 35.5274 102.531 34.9407 101.947 34.8145C101.947 34.8145 102.564 33.0708 101.583 32.007C101.583 32.007 101.005 31.3655 100.432 31.2832Z" fill="#003042"/>
<path d="M103.264 29.7637C103.264 29.7637 103.407 30.2681 103.925 30.5204C104.102 30.6081 104.3 30.641 104.498 30.6355C104.691 30.6246 104.972 30.5972 105.171 30.5039C105.171 30.5039 105.375 30.9536 105.584 31.1729C105.584 31.1729 105.59 30.5259 105.975 30.1585C105.975 30.1585 105.49 30.2298 105.231 30.4162C105.231 30.4162 104.746 29.5443 103.969 29.5608C103.964 29.5608 103.501 29.5608 103.264 29.7637Z" fill="#003042"/>
<path d="M62.3931 19.9152C62.3931 19.9152 62.9055 20.2387 63.5447 20.0687C63.7652 20.0084 63.9635 19.8877 64.1233 19.7287C64.2831 19.5752 64.5036 19.3284 64.6083 19.1036C64.6083 19.1036 65.1317 19.3394 65.4844 19.3668C65.4844 19.3668 64.9885 18.802 65.0381 18.1934C65.0381 18.1934 64.6689 18.6266 64.5917 18.9885C64.5917 18.9885 63.5062 18.6046 62.8394 19.2078C62.8394 19.2078 62.4371 19.5587 62.3931 19.9152Z" fill="#003042"/>
<path d="M60.2002 19.1261C60.2002 19.1261 60.3435 19.5154 60.7678 19.6854C60.911 19.7457 61.0708 19.7622 61.2251 19.7403C61.3739 19.7183 61.5943 19.6799 61.7486 19.5977C61.7486 19.5977 61.936 19.9431 62.1178 20.0967C62.1178 20.0967 62.0792 19.5867 62.3603 19.2742C62.3603 19.2742 61.9801 19.3564 61.7872 19.5264C61.7872 19.5264 61.3519 18.8684 60.7402 18.9287C60.7402 18.9232 60.371 18.9561 60.2002 19.1261Z" fill="#003042"/>
<path d="M59.6323 19.2132C59.6323 19.2132 59.6764 19.3283 59.7976 19.3777C59.8417 19.3941 59.8857 19.3996 59.9298 19.3941C59.9739 19.3886 60.04 19.3777 60.0841 19.3503C60.0841 19.3503 60.1392 19.449 60.1943 19.4983C60.1943 19.4983 60.1832 19.3503 60.2659 19.257C60.2659 19.257 60.1557 19.279 60.0951 19.3283C60.0951 19.3283 59.9684 19.1364 59.7866 19.1529C59.7921 19.1583 59.6874 19.1638 59.6323 19.2132Z" fill="#557583"/>
<path d="M59.5996 19.7453C59.5996 19.7453 59.7043 19.8604 59.8751 19.8604C59.9357 19.8604 59.9908 19.844 60.0403 19.8166C60.0899 19.7892 60.1615 19.7453 60.2001 19.6959C60.2001 19.6959 60.3103 19.7892 60.3984 19.8166C60.3984 19.8166 60.3158 19.6466 60.3654 19.4985C60.3654 19.4985 60.2442 19.5808 60.2001 19.663C60.2001 19.663 59.9577 19.4985 59.7539 19.6027C59.7539 19.6027 59.6327 19.663 59.5996 19.7453Z" fill="#003042"/>
<path d="M62.9331 18.5339C62.9331 18.5339 63.0433 18.6929 63.2526 18.7203C63.3243 18.7313 63.3959 18.7203 63.462 18.6929C63.5281 18.6655 63.6218 18.6216 63.6824 18.5723C63.6824 18.5723 63.8036 18.7039 63.9027 18.7587C63.9027 18.7587 63.8311 18.5339 63.9193 18.3584C63.9193 18.3584 63.7595 18.4406 63.6879 18.5339C63.6879 18.5339 63.4179 18.2871 63.148 18.3803C63.1535 18.3803 62.9937 18.4352 62.9331 18.5339Z" fill="#003042"/>
<path d="M66.3164 20.5576C66.3164 20.5576 66.5699 20.8208 66.9721 20.8098C67.1099 20.8043 67.2422 20.7659 67.3579 20.6947C67.4736 20.6234 67.6334 20.5137 67.7271 20.3931C67.7271 20.3931 67.9971 20.6069 68.201 20.6672C68.201 20.6672 67.9916 20.267 68.1073 19.916C68.1073 19.916 67.8318 20.1189 67.7381 20.3163C67.7381 20.3163 67.154 19.9379 66.6801 20.2012C66.6801 20.2012 66.3936 20.3547 66.3164 20.5576Z" fill="#003042"/>
<path d="M67.9478 18.5005C67.9478 18.5005 68.1792 18.835 68.6255 18.8954C68.7798 18.9173 68.9341 18.8954 69.0774 18.835C69.2151 18.7802 69.419 18.687 69.5403 18.5718C69.5403 18.5718 69.7993 18.857 70.0142 18.9612C70.0142 18.9612 69.8544 18.4786 70.0472 18.1167C70.0472 18.1167 69.7056 18.2867 69.5623 18.4951C69.5623 18.4951 68.9892 17.9741 68.4161 18.1715C68.4161 18.177 68.069 18.2922 67.9478 18.5005Z" fill="#003042"/>
<path d="M74.1191 19.4275C74.1191 19.4275 74.2459 19.8277 74.6592 20.0197C74.8024 20.0855 74.9622 20.1129 75.1165 20.0964C75.2708 20.0855 75.4967 20.0526 75.651 19.9813C75.651 19.9813 75.8219 20.3377 75.9982 20.5077C75.9982 20.5077 75.9872 19.9868 76.2902 19.6907C76.2902 19.6907 75.9045 19.7565 75.7006 19.9155C75.7006 19.9155 75.2984 19.23 74.6757 19.252C74.6812 19.252 74.3065 19.2575 74.1191 19.4275Z" fill="#003042"/>
<path d="M75.6015 19.4495C75.6015 19.4495 76.0037 19.5975 76.4225 19.3837C76.5658 19.3124 76.687 19.1972 76.7752 19.0656C76.8633 18.934 76.9791 18.7366 77.0176 18.5611C77.0176 18.5611 77.4144 18.6489 77.6623 18.6105C77.6623 18.6105 77.2325 18.2925 77.1829 17.8647C77.1829 17.8647 76.9901 18.2157 76.9956 18.4789C76.9956 18.4789 76.1856 18.3747 75.8164 18.8902C75.8108 18.8902 75.5849 19.1972 75.6015 19.4495Z" fill="#003042"/>
<path d="M82.2803 17.1962C82.2803 17.1962 82.5503 17.3716 82.8919 17.2839C83.0076 17.2565 83.1123 17.1907 83.2005 17.1084C83.2832 17.0262 83.4044 16.9001 83.4595 16.7794C83.4595 16.7794 83.735 16.9055 83.9224 16.922C83.9224 16.922 83.6634 16.6204 83.6965 16.2969C83.6965 16.2969 83.4981 16.5217 83.454 16.7136C83.454 16.7136 82.8809 16.5052 82.5227 16.8233C82.5227 16.8233 82.3133 17.0097 82.2803 17.1962Z" fill="#003042"/>
<path d="M74.2954 16.5379C74.2954 16.5379 74.6095 16.7188 74.9842 16.6037C75.111 16.5653 75.2267 16.4885 75.3203 16.3898C75.4085 16.2966 75.5353 16.1431 75.5959 16.006C75.5959 16.006 75.91 16.1376 76.1194 16.1431C76.1194 16.1431 75.8108 15.8195 75.8328 15.4521C75.8328 15.4521 75.6234 15.7154 75.5848 15.9347C75.5848 15.9347 74.9291 15.7318 74.5489 16.1047C74.5489 16.1047 74.3175 16.324 74.2954 16.5379Z" fill="#003042"/>
<path d="M79.894 17.8755C79.894 17.8755 80.2081 18.1881 80.6875 18.1607C80.8529 18.1552 81.0127 18.1003 81.1504 18.0126C81.2882 17.9249 81.481 17.7878 81.5913 17.6452C81.5913 17.6452 81.9219 17.892 82.1698 17.9633C82.1698 17.9633 81.9053 17.4862 82.0376 17.064C82.0376 17.064 81.7125 17.3107 81.5968 17.5575C81.5968 17.5575 80.8859 17.1188 80.3239 17.4423C80.3239 17.4423 79.9822 17.6342 79.894 17.8755Z" fill="#003042"/>
<path d="M81.5859 18.1937C81.5859 18.1937 81.5914 18.6598 81.9772 18.9998C82.1094 19.1149 82.2692 19.1917 82.4456 19.2301C82.6109 19.2685 82.8644 19.3069 83.0572 19.274C83.0572 19.274 83.1233 19.7126 83.2611 19.9484C83.2611 19.9484 83.4154 19.3891 83.8342 19.1643C83.8342 19.1643 83.3989 19.1095 83.1289 19.2136C83.1289 19.2136 82.914 18.3527 82.2417 18.1827C82.2362 18.1773 81.8339 18.0731 81.5859 18.1937Z" fill="#003042"/>
<path d="M83.4321 19.866C83.4321 19.866 83.5534 20.2388 83.9391 20.4143C84.0713 20.4746 84.2201 20.4966 84.3689 20.4856C84.5122 20.4746 84.7216 20.4472 84.8703 20.3759C84.8703 20.3759 85.0301 20.7104 85.1955 20.864C85.1955 20.864 85.1844 20.3814 85.4655 20.0963C85.4655 20.0963 85.1018 20.1566 84.9144 20.3046C84.9144 20.3046 84.5342 19.6686 83.9556 19.6905C83.9501 19.696 83.603 19.7069 83.4321 19.866Z" fill="#003042"/>
<path d="M85.5425 20.7382C85.5425 20.7382 85.6913 21.0672 86.066 21.1823C86.1927 21.2207 86.3305 21.2262 86.4627 21.1988C86.5895 21.1714 86.7823 21.122 86.9035 21.0398C86.9035 21.0398 87.0854 21.3249 87.2562 21.451C87.2562 21.451 87.1901 21.0124 87.416 20.7217C87.416 20.7217 87.0909 20.8204 86.9366 20.974C86.9366 20.974 86.5178 20.4366 85.9943 20.5243C85.9998 20.5298 85.6858 20.5792 85.5425 20.7382Z" fill="#003042"/>
<path d="M88.9204 22.4979C88.9204 22.4979 89.1133 22.7063 89.4274 22.7063C89.5376 22.7063 89.6423 22.6734 89.7359 22.6241C89.8296 22.5747 89.9564 22.487 90.0335 22.3938C90.0335 22.3938 90.2429 22.5637 90.4027 22.6186C90.4027 22.6186 90.2429 22.3005 90.3421 22.0264C90.3421 22.0264 90.1217 22.1799 90.0445 22.3334C90.0445 22.3334 89.5927 22.0264 89.218 22.2238C89.2125 22.2293 88.9865 22.3444 88.9204 22.4979Z" fill="#003042"/>
<path d="M95.0366 21.7743C95.0366 21.7743 95.0587 21.9005 95.1799 21.9718C95.2184 21.9992 95.268 22.0101 95.3176 22.0101C95.3672 22.0101 95.4333 22.0101 95.4829 21.9937C95.4829 21.9937 95.5214 22.1088 95.571 22.1637C95.571 22.1637 95.5875 22.0047 95.6867 21.9279C95.6867 21.9279 95.5655 21.9334 95.4994 21.9772C95.4994 21.9772 95.4002 21.7579 95.2129 21.7414C95.2074 21.736 95.0972 21.7305 95.0366 21.7743Z" fill="#003042"/>
<path d="M95.0146 24.0114C95.0146 24.0114 95.0697 24.1869 95.2571 24.2691C95.3232 24.2966 95.3893 24.3075 95.4609 24.302C95.527 24.2966 95.6262 24.2801 95.6978 24.2472C95.6978 24.2472 95.7749 24.4062 95.8521 24.4775C95.8521 24.4775 95.8465 24.2472 95.9733 24.1156C95.9733 24.1156 95.8025 24.1485 95.7143 24.2198C95.7143 24.2198 95.5325 23.9182 95.2571 23.9347C95.2571 23.9292 95.0918 23.9347 95.0146 24.0114Z" fill="#003042"/>
<path d="M95.0366 26.7094C95.0366 26.7094 95.0641 26.7972 95.1577 26.841C95.1907 26.8575 95.2237 26.863 95.2567 26.8575C95.2897 26.852 95.3392 26.8465 95.3722 26.8301C95.3722 26.8301 95.4107 26.9068 95.4492 26.9452C95.4492 26.9452 95.4437 26.8301 95.5098 26.7643C95.5098 26.7643 95.4272 26.7807 95.3777 26.8136C95.3777 26.8136 95.2842 26.6656 95.1522 26.671C95.1577 26.671 95.0751 26.6765 95.0366 26.7094Z" fill="#003042"/>
<path d="M97.2354 27.367C97.2354 27.367 97.2518 27.4218 97.3068 27.4437C97.3233 27.4546 97.3453 27.4546 97.3672 27.4546C97.3892 27.4546 97.4167 27.4492 97.4387 27.4382C97.4387 27.4382 97.4607 27.4875 97.4881 27.5094C97.4881 27.5094 97.4881 27.4382 97.5266 27.3999C97.5266 27.3999 97.4771 27.4108 97.4497 27.4327C97.4497 27.4327 97.3947 27.3397 97.3123 27.3451C97.3068 27.3397 97.2573 27.3397 97.2354 27.367Z" fill="#003042"/>
<path d="M99.3682 28.9468C99.3682 28.9468 99.4839 29.0565 99.6602 29.0455C99.7208 29.0401 99.7758 29.0181 99.8254 28.9852C99.875 28.9523 99.9411 28.903 99.9797 28.8481C99.9797 28.8481 100.101 28.9359 100.189 28.9578C100.189 28.9578 100.09 28.7878 100.134 28.6343C100.134 28.6343 100.018 28.7275 99.9797 28.8152C99.9797 28.8152 99.7208 28.6617 99.5169 28.7878C99.5169 28.7878 99.3957 28.8591 99.3682 28.9468Z" fill="#003042"/>
<path d="M105.396 29.6378C105.396 29.6378 105.452 29.7859 105.611 29.8517C105.666 29.8736 105.727 29.8791 105.788 29.8736C105.843 29.8681 105.931 29.8517 105.986 29.8188C105.986 29.8188 106.058 29.9504 106.129 30.0107C106.129 30.0107 106.118 29.8133 106.223 29.6926C106.223 29.6926 106.08 29.7255 106.002 29.7859C106.002 29.7859 105.837 29.5336 105.6 29.5556C105.606 29.561 105.468 29.572 105.396 29.6378Z" fill="#003042"/>
<path d="M99.4561 28.4146C99.4561 28.4146 99.4836 28.4914 99.5716 28.5243C99.5991 28.5353 99.6321 28.5407 99.6651 28.5353C99.6926 28.5298 99.7421 28.5243 99.7696 28.5078C99.7696 28.5078 99.8082 28.5791 99.8467 28.6065C99.8467 28.6065 99.8357 28.5024 99.8962 28.442C99.8962 28.442 99.8192 28.4585 99.7806 28.4914C99.7806 28.4914 99.6926 28.3598 99.5716 28.3708C99.5606 28.3708 99.4891 28.3762 99.4561 28.4146Z" fill="#003042"/>
<path d="M96.0673 27.5596C96.0673 27.5596 95.9958 27.6747 96.0343 27.8173C96.0508 27.8666 96.0784 27.9105 96.1114 27.9434C96.1444 27.9763 96.1994 28.0257 96.2544 28.0476C96.2544 28.0476 96.2049 28.1628 96.1994 28.245C96.1994 28.245 96.3259 28.1353 96.4635 28.1408C96.4635 28.1408 96.3644 28.0586 96.2819 28.0421C96.2819 28.0421 96.3644 27.8008 96.2269 27.6528C96.2269 27.6583 96.1499 27.5651 96.0673 27.5596Z" fill="#003042"/>
<path d="M91.5049 23.7978C91.5049 23.7978 91.549 24.0007 91.7473 24.1103C91.8134 24.1487 91.8905 24.1652 91.9677 24.1652C92.0448 24.1652 92.155 24.1597 92.2376 24.1268C92.2376 24.1268 92.3092 24.3078 92.3864 24.401C92.3864 24.401 92.4029 24.1432 92.5627 24.0116C92.5627 24.0116 92.3698 24.0281 92.2652 24.0994C92.2652 24.0994 92.0944 23.743 91.7859 23.732C91.7859 23.732 91.6041 23.721 91.5049 23.7978Z" fill="#003042"/>
<path d="M92.2925 20.5072C92.2925 20.5072 92.3862 20.8033 92.7002 20.9459C92.8049 20.9952 92.9262 21.0117 93.0419 21.0007C93.1576 20.9898 93.3229 20.9678 93.4386 20.9075C93.4386 20.9075 93.5654 21.1707 93.6976 21.2968C93.6976 21.2968 93.6866 20.913 93.907 20.6882C93.907 20.6882 93.6205 20.7375 93.4717 20.8581C93.4717 20.8581 93.1686 20.3537 92.7058 20.3756C92.7058 20.3701 92.4302 20.3811 92.2925 20.5072Z" fill="#003042"/>
<path d="M86.1099 19.8935C86.1099 19.8935 86.3854 20.1677 86.8097 20.1458C86.953 20.1403 87.0962 20.0909 87.2175 20.0141C87.3387 19.9374 87.5095 19.8167 87.6032 19.6906C87.6032 19.6906 87.8952 19.91 88.1157 19.9758C88.1157 19.9758 87.8842 19.5535 87.9999 19.1807C87.9999 19.1807 87.7079 19.4 87.6142 19.6139C87.6142 19.6139 86.986 19.2245 86.4901 19.5152C86.4846 19.5152 86.187 19.6797 86.1099 19.8935Z" fill="#003042"/>
<path d="M87.6251 20.135C87.6251 20.135 87.4984 20.6121 87.7849 21.0617C87.8841 21.2152 88.0274 21.3414 88.1872 21.4291C88.347 21.5114 88.5894 21.6265 88.7933 21.6484C88.7933 21.6484 88.7382 22.1091 88.8043 22.3832C88.8043 22.3832 89.1239 21.8623 89.6088 21.7581C89.6088 21.7581 89.1845 21.5772 88.8815 21.6101C88.8815 21.6101 88.9145 20.6779 88.2808 20.3105C88.2863 20.3105 87.9116 20.0857 87.6251 20.135Z" fill="#003042"/>
<path d="M90.739 21.1655C90.739 21.1655 90.4524 21.5932 90.5847 22.1361C90.6288 22.3225 90.7279 22.4925 90.8602 22.6351C90.9869 22.7722 91.1908 22.9641 91.3837 23.0573C91.3837 23.0573 91.1688 23.4905 91.1412 23.7866C91.1412 23.7866 91.6316 23.3808 92.1496 23.4357C92.1496 23.4357 91.7914 23.1176 91.4829 23.0464C91.4829 23.0464 91.83 22.1361 91.3341 21.5658C91.3396 21.5603 91.042 21.2149 90.739 21.1655Z" fill="#003042"/>
<path d="M91.896 21.6864C91.896 21.6864 92.0723 22.2347 92.6454 22.4979C92.8438 22.5857 93.0642 22.6186 93.2791 22.6021C93.4885 22.5857 93.8026 22.5418 94.0175 22.4376C94.0175 22.4376 94.2545 22.9256 94.4969 23.1559C94.4969 23.1559 94.4804 22.4431 94.8881 22.0264C94.8881 22.0264 94.3536 22.1196 94.0781 22.3389C94.0781 22.3389 93.5161 21.4012 92.6564 21.4396C92.6619 21.4396 92.1495 21.4561 91.896 21.6864Z" fill="#003042"/>
<path d="M95.1137 22.3341C95.1137 22.3341 94.9153 22.7892 95.1358 23.2882C95.2129 23.4582 95.3341 23.6062 95.4884 23.7159C95.6372 23.8256 95.8631 23.9736 96.0615 24.023C96.0615 24.023 95.9348 24.4781 95.9623 24.7632C95.9623 24.7632 96.3591 24.2862 96.866 24.2533C96.866 24.2533 96.4638 24.012 96.1607 23.9956C96.1607 23.9956 96.3315 23.0634 95.7529 22.6028C95.7584 22.6028 95.4113 22.3286 95.1137 22.3341Z" fill="#003042"/>
<path d="M81.1064 20.0364C81.1064 20.0364 81.3709 20.2996 81.7732 20.2777C81.911 20.2722 82.0432 20.2228 82.1644 20.1515C82.2802 20.0803 82.44 19.9651 82.5336 19.8445C82.5336 19.8445 82.8147 20.0528 83.0186 20.1132C83.0186 20.1132 82.7981 19.7129 82.9084 19.3564C82.9084 19.3564 82.6328 19.5648 82.5392 19.7677C82.5392 19.7677 81.944 19.4003 81.4701 19.6745C81.4646 19.6745 81.1781 19.8335 81.1064 20.0364Z" fill="#003042"/>
<path d="M82.4841 20.4529C82.4841 20.4529 82.418 20.8368 82.677 21.1658C82.7651 21.2809 82.8864 21.3687 83.0186 21.4235C83.1509 21.4783 83.3493 21.5496 83.5091 21.5496C83.5091 21.5496 83.498 21.9115 83.5697 22.1254C83.5697 22.1254 83.7846 21.6977 84.1538 21.577C84.1538 21.577 83.8066 21.4674 83.5752 21.5112C83.5752 21.5112 83.5366 20.7764 83.0131 20.5407C83.0186 20.5407 82.71 20.3926 82.4841 20.4529Z" fill="#003042"/>
<path d="M84.1867 22.0815C84.1867 22.0815 83.8727 22.2241 83.757 22.5751C83.7184 22.6957 83.7129 22.8273 83.7405 22.9534C83.768 23.074 83.8121 23.255 83.8892 23.3756C83.8892 23.3756 83.6137 23.5456 83.498 23.7046C83.498 23.7046 83.9223 23.6443 84.1922 23.8582C84.1922 23.8582 84.1041 23.5511 83.9553 23.4031C83.9553 23.4031 84.4732 23.0082 84.3905 22.5093C84.385 22.5147 84.3354 22.2131 84.1867 22.0815Z" fill="#003042"/>
<path d="M85.5865 24.5874C85.5865 24.5874 85.4821 24.6751 85.4766 24.8232C85.4766 24.8725 85.4876 24.9219 85.5095 24.9712C85.5315 25.0151 85.57 25.0809 85.6139 25.1138C85.6139 25.1138 85.526 25.207 85.4985 25.2838C85.4985 25.2838 85.6524 25.218 85.7788 25.2674C85.7788 25.2674 85.7129 25.1632 85.6359 25.1193C85.6359 25.1193 85.7898 24.9164 85.7019 24.73C85.7074 24.73 85.6579 24.6203 85.5865 24.5874Z" fill="#003042"/>
<path d="M84.6497 23.3101C84.6497 23.3101 84.4348 23.5404 84.4734 23.8858C84.4844 24.001 84.5285 24.1161 84.5946 24.2093C84.6607 24.3026 84.7654 24.4396 84.8756 24.5109C84.8756 24.5109 84.7103 24.7577 84.6662 24.9332C84.6662 24.9332 85.0023 24.7303 85.3108 24.807C85.3108 24.807 85.1235 24.5822 84.9417 24.5109C84.9417 24.5109 85.2336 23.99 84.9802 23.6007C84.9747 23.6007 84.826 23.3649 84.6497 23.3101Z" fill="#003042"/>
<path d="M85.1181 25.3552C85.1181 25.3552 85.0851 25.6349 85.2944 25.8707C85.366 25.9529 85.4542 26.0078 85.5589 26.0461C85.658 26.079 85.8068 26.1229 85.9225 26.1174C85.9225 26.1174 85.928 26.3861 85.9941 26.5342C85.9941 26.5342 86.1318 26.2106 86.3963 26.1065C86.3963 26.1065 86.1373 26.0407 85.972 26.0845C85.972 26.0845 85.9114 25.5526 85.5148 25.3991C85.5093 25.3991 85.2779 25.3059 85.1181 25.3552Z" fill="#003042"/>
<path d="M87.2393 27.5596C87.2393 27.5596 87.0024 27.7954 87.0189 28.1573C87.0244 28.2834 87.063 28.404 87.1291 28.5082C87.1952 28.6124 87.2999 28.7604 87.41 28.8427C87.41 28.8427 87.2172 29.0949 87.1621 29.2814C87.1621 29.2814 87.5257 29.084 87.8508 29.1827C87.8508 29.1827 87.6635 28.9359 87.4762 28.8482C87.4762 28.8482 87.8122 28.3108 87.5698 27.8831C87.5698 27.8831 87.4266 27.6254 87.2393 27.5596Z" fill="#003042"/>
<path d="M84.9363 25.7397C84.9363 25.7397 84.4515 26.0249 84.3248 26.6171C84.2807 26.82 84.2972 27.0338 84.3578 27.2312C84.4184 27.4232 84.5286 27.7083 84.6719 27.8893C84.6719 27.8893 84.2587 28.2183 84.0879 28.4924C84.0879 28.4924 84.76 28.3224 85.2448 28.624C85.2448 28.624 85.0465 28.1415 84.7765 27.9276C84.7765 27.9276 85.5478 27.1983 85.3275 26.4032C85.333 26.4032 85.2063 25.9262 84.9363 25.7397Z" fill="#003042"/>
<path d="M85.3663 27.5323C85.3663 27.5323 85.2065 28.1683 85.6032 28.766C85.741 28.9689 85.9339 29.1334 86.1543 29.2431C86.3692 29.3528 86.6943 29.4953 86.9643 29.5228C86.9643 29.5228 86.8982 30.1369 86.9918 30.5098C86.9918 30.5098 87.4051 29.8079 88.0554 29.6544C88.0554 29.6544 87.4823 29.424 87.0855 29.4679C87.0855 29.4679 87.1076 28.2232 86.259 27.7461C86.2535 27.7516 85.7465 27.461 85.3663 27.5323Z" fill="#557583"/>
<path d="M85.0742 30.2136C85.0742 30.2136 85.223 30.6742 85.7079 30.8936C85.8732 30.9703 86.0606 30.9978 86.2424 30.9813C86.4188 30.9649 86.6778 30.9265 86.8596 30.8387C86.8596 30.8387 87.0635 31.25 87.2674 31.4419C87.2674 31.4419 87.2508 30.8387 87.5925 30.4933C87.5925 30.4933 87.1461 30.5701 86.9147 30.7565C86.9147 30.7565 86.4408 29.9669 85.7189 30.0053C85.7134 29.9998 85.2836 30.0162 85.0742 30.2136Z" fill="#003042"/>
<path d="M85.3994 29.457C85.3994 29.457 85.4876 29.7256 85.7686 29.8518C85.8678 29.8956 85.9725 29.9121 86.0772 29.9011C86.1819 29.8901 86.3307 29.8682 86.4354 29.8189C86.4354 29.8189 86.5511 30.0601 86.6723 30.1698C86.6723 30.1698 86.6613 29.8189 86.8652 29.616C86.8652 29.616 86.6062 29.6598 86.4684 29.7695C86.4684 29.7695 86.1929 29.3089 85.7741 29.3308C85.7741 29.3308 85.5262 29.3418 85.3994 29.457Z" fill="#003042"/>
<path d="M85.432 31.0033C85.432 31.0033 85.3659 31.261 85.5257 31.5022C85.5808 31.5845 85.6579 31.6503 85.746 31.6942C85.8342 31.738 85.9664 31.7984 86.0711 31.8093C86.0711 31.8093 86.0435 32.0561 86.0821 32.2041C86.0821 32.2041 86.2529 31.9245 86.5118 31.8587C86.5118 31.8587 86.2804 31.7654 86.1207 31.7819C86.1207 31.7819 86.1317 31.2774 85.7901 31.0855C85.7901 31.091 85.5863 30.9758 85.432 31.0033Z" fill="#CDD7D8"/>
<path d="M84.1091 25.1851C84.1091 25.1851 83.911 25.3167 83.867 25.5744C83.8505 25.6621 83.867 25.7499 83.8945 25.8376C83.9275 25.9198 83.9771 26.035 84.0431 26.1118C84.0431 26.1118 83.8725 26.2598 83.812 26.3804C83.812 26.3804 84.0926 26.2927 84.3072 26.4079C84.3072 26.4079 84.2136 26.205 84.0926 26.1227C84.0926 26.1227 84.4062 25.7937 84.2907 25.4592C84.2962 25.4592 84.2301 25.2618 84.1091 25.1851Z" fill="#003042"/>
<path d="M86.7437 26.2046C86.7437 26.2046 86.595 26.3746 86.6225 26.6159C86.6336 26.6981 86.6666 26.7804 86.7162 26.8462C86.7658 26.912 86.8429 27.0052 86.92 27.0545C86.92 27.0545 86.8043 27.23 86.7768 27.3616C86.7768 27.3616 87.0137 27.2135 87.2341 27.2629C87.2341 27.2629 87.0963 27.1039 86.9641 27.06C86.9641 27.06 87.1624 26.6817 86.9751 26.4075C86.9806 26.4075 86.8705 26.2375 86.7437 26.2046Z" fill="#CDD7D8"/>
<path d="M85.9554 26.6817C85.9554 26.6817 85.8728 26.9504 86.0326 27.2081C86.0877 27.2958 86.1648 27.3726 86.2585 27.4219C86.3466 27.4713 86.4843 27.5371 86.6 27.5535C86.6 27.5535 86.5615 27.8113 86.5945 27.9703C86.5945 27.9703 86.7818 27.6797 87.0628 27.6248C87.0628 27.6248 86.8259 27.5152 86.6551 27.5261C86.6551 27.5261 86.6882 26.9997 86.3356 26.7804C86.3301 26.7913 86.1207 26.6597 85.9554 26.6817Z" fill="#003042"/>
<path d="M84.9526 28.645C84.9526 28.645 84.7267 28.7931 84.6827 29.0782C84.6661 29.1769 84.6827 29.2756 84.7157 29.3688C84.7488 29.4621 84.8094 29.5937 84.881 29.6759C84.881 29.6759 84.6937 29.8404 84.6221 29.9775C84.6221 29.9775 84.9416 29.8788 85.1785 30.0104C85.1785 30.0104 85.0683 29.7856 84.9361 29.6924C84.9361 29.6924 85.2832 29.325 85.162 28.9521C85.1565 28.9521 85.0848 28.7273 84.9526 28.645Z" fill="#003042"/>
<path d="M87.9062 30.0713C87.9062 30.0713 87.6804 30.2193 87.6363 30.5045C87.6198 30.6032 87.6363 30.7019 87.6693 30.7951C87.7024 30.8883 87.763 31.0199 87.8346 31.1022C87.8346 31.1022 87.6473 31.2667 87.5757 31.4038C87.5757 31.4038 87.8952 31.3051 88.1321 31.4367C88.1321 31.4367 88.0219 31.2118 87.8897 31.1186C87.8897 31.1186 88.2368 30.7512 88.1156 30.3784C88.1101 30.3784 88.0385 30.1535 87.9062 30.0713Z" fill="#003042"/>
<path d="M87.7189 31.6286C87.7189 31.6286 87.5426 31.6177 87.4048 31.7547C87.3552 31.7986 87.3222 31.8589 87.3057 31.9193C87.2891 31.9796 87.2671 32.0728 87.2726 32.1441C87.2726 32.1441 87.1073 32.155 87.0137 32.1989C87.0137 32.1989 87.2175 32.2702 87.2946 32.4347C87.2946 32.4347 87.3277 32.2757 87.2946 32.1715C87.2946 32.1715 87.6252 32.1167 87.7023 31.8699C87.7078 31.8699 87.7574 31.7218 87.7189 31.6286Z" fill="#003042"/>
<path d="M86.5837 31.1348C86.5837 31.1348 86.5121 31.2719 86.5727 31.4254C86.5947 31.4802 86.6277 31.5241 86.6718 31.5625C86.7158 31.6009 86.7819 31.6502 86.8425 31.6667C86.8425 31.6667 86.7929 31.8037 86.7984 31.8915C86.7984 31.8915 86.9306 31.7544 87.0848 31.7544C87.0848 31.7544 86.9691 31.6721 86.8755 31.6612C86.8755 31.6612 86.9471 31.3815 86.7764 31.228C86.7764 31.228 86.6773 31.1348 86.5837 31.1348Z" fill="#003042"/>
<path d="M86.6379 31.9404C86.6379 31.9404 86.5555 31.9624 86.506 32.0391C86.4895 32.0665 86.484 32.0994 86.484 32.1324C86.484 32.1653 86.4895 32.2091 86.5005 32.242C86.5005 32.242 86.4236 32.2694 86.3906 32.3023C86.3906 32.3023 86.495 32.3078 86.5555 32.3736C86.5555 32.3736 86.55 32.2969 86.517 32.253C86.517 32.253 86.6654 32.1817 86.6654 32.0556C86.6654 32.0556 86.6709 31.9788 86.6379 31.9404Z" fill="#003042"/>
<path d="M83.7682 23.9899C83.7682 23.9899 83.6304 24.3189 83.7957 24.6753C83.8508 24.7959 83.9445 24.9001 84.0546 24.9769C84.1593 25.0536 84.3246 25.1578 84.4678 25.1962C84.4678 25.1962 84.3797 25.5252 84.4017 25.7336C84.4017 25.7336 84.6827 25.3881 85.0463 25.3552C85.0463 25.3552 84.7543 25.1852 84.5339 25.1743C84.5339 25.1743 84.6496 24.5053 84.2254 24.1763C84.2309 24.1818 83.983 23.9844 83.7682 23.9899Z" fill="#CDD7D8"/>
<path d="M76.6372 17.1523C76.6372 17.1523 76.9623 17.4319 77.4307 17.3826C77.5905 17.3661 77.7448 17.3003 77.8715 17.2071C77.9983 17.1139 78.1801 16.9713 78.2738 16.8178C78.2738 16.8178 78.6154 17.0371 78.8579 17.092C78.8579 17.092 78.5714 16.6423 78.6706 16.2256C78.6706 16.2256 78.3675 16.4888 78.2738 16.7355C78.2738 16.7355 77.5519 16.3517 77.0229 16.7081C77.0284 16.6972 76.7088 16.9055 76.6372 17.1523Z" fill="#003042"/>
<path d="M79.1836 15.9843C79.1836 15.9843 79.3103 16.412 79.7512 16.6259C79.8999 16.6971 80.0708 16.73 80.2361 16.7191C80.4014 16.7081 80.6383 16.6807 80.8092 16.6039C80.8092 16.6039 80.9855 16.9878 81.1673 17.1687C81.1673 17.1687 81.1673 16.6149 81.4925 16.3023C81.4925 16.3023 81.0792 16.3627 80.8588 16.5272C80.8588 16.5272 80.44 15.7924 79.7787 15.8033C79.7787 15.8033 79.382 15.8088 79.1836 15.9843Z" fill="#003042"/>
<path d="M70.1958 19.0272C70.1958 19.0272 70.4658 19.2959 70.8846 19.2739C71.0279 19.2685 71.1656 19.2191 71.2869 19.1423C71.4026 19.0656 71.5734 18.9504 71.6671 18.8243C71.6671 18.8243 71.9536 19.0382 72.1685 19.0985C72.1685 19.0985 71.9426 18.6872 72.0528 18.3198C72.0528 18.3198 71.7718 18.5337 71.6726 18.7475C71.6726 18.7475 71.0554 18.3692 70.5705 18.6488C70.565 18.6488 70.2729 18.8133 70.1958 19.0272Z" fill="#003042"/>
<path d="M72.4111 18.978C72.4111 18.978 72.5048 19.2576 72.8079 19.3892C72.9126 19.4331 73.0228 19.4495 73.133 19.4386C73.2432 19.4276 73.403 19.4002 73.5132 19.3453C73.5132 19.3453 73.64 19.5976 73.7667 19.7127C73.7667 19.7127 73.7502 19.3453 73.9596 19.126C73.9596 19.126 73.684 19.1808 73.5463 19.296C73.5463 19.296 73.2487 18.8189 72.8079 18.8464C72.8024 18.8409 72.5379 18.8573 72.4111 18.978Z" fill="#003042"/>
<path d="M74.8081 18.8299C74.8081 18.8299 75.0395 18.9396 75.2929 18.8354C75.3811 18.8025 75.4582 18.7422 75.5188 18.6654C75.5739 18.5941 75.6565 18.479 75.6896 18.3803C75.6896 18.3803 75.9155 18.4516 76.0642 18.4461C76.0642 18.4461 75.8273 18.2377 75.8218 17.98C75.8218 17.98 75.6896 18.1774 75.6786 18.3309C75.6786 18.3309 75.2103 18.2267 74.9624 18.5119C74.9624 18.5119 74.8136 18.6819 74.8081 18.8299Z" fill="#003042"/>
<path d="M78.5938 19.6359C78.5938 19.6359 78.8362 19.8662 79.1999 19.8388C79.3266 19.8279 79.4424 19.784 79.5471 19.7182C79.6462 19.6524 79.795 19.5427 79.8722 19.433C79.8722 19.433 80.1257 19.614 80.313 19.6633C80.313 19.6633 80.1036 19.3069 80.1973 18.9834C80.1973 18.9834 79.9548 19.1753 79.8777 19.3618C79.8777 19.3618 79.3321 19.0437 78.9134 19.3014C78.9078 19.3014 78.6544 19.4495 78.5938 19.6359Z" fill="#003042"/>
<path d="M84.4951 17.119C84.4951 17.119 84.5722 17.3493 84.8202 17.4534C84.9028 17.4918 84.9965 17.5028 85.0901 17.4918C85.1783 17.4809 85.3105 17.4589 85.3986 17.4151C85.3986 17.4151 85.5033 17.618 85.608 17.7167C85.608 17.7167 85.597 17.4151 85.7622 17.2341C85.7622 17.2341 85.5364 17.278 85.4207 17.3712C85.4207 17.3712 85.1727 16.9764 84.8147 17.0038C84.8202 17.0093 84.6053 17.0203 84.4951 17.119Z" fill="#003042"/>
<path d="M79.6133 17.5357C79.6133 17.5357 79.7565 17.607 79.9163 17.5412C79.9714 17.5192 80.021 17.4809 80.054 17.437C80.0926 17.3931 80.1422 17.3218 80.1587 17.2615C80.1587 17.2615 80.3019 17.3054 80.3956 17.2999C80.3956 17.2999 80.2468 17.1683 80.2413 17.0093C80.2413 17.0093 80.1587 17.1299 80.1532 17.2286C80.1532 17.2286 79.8557 17.1628 79.7069 17.3383C79.7069 17.3383 79.6188 17.4425 79.6133 17.5357Z" fill="#003042"/>
<path d="M81.145 19.0818C81.145 19.0818 81.2111 19.2573 81.404 19.3341C81.4701 19.3615 81.5417 19.367 81.6133 19.356C81.6794 19.345 81.7841 19.3286 81.8502 19.2902C81.8502 19.2902 81.9384 19.4437 82.021 19.515C82.021 19.515 82.0045 19.2847 82.1257 19.1421C82.1257 19.1421 81.9549 19.1805 81.8667 19.2573C81.8667 19.2573 81.6684 18.9612 81.3874 18.9886C81.3874 18.9886 81.2221 19.0051 81.145 19.0818Z" fill="#003042"/>
<path d="M81.6465 16.3189C81.6465 16.3189 81.7291 16.4724 81.9109 16.5218C81.9715 16.5382 82.0376 16.5382 82.1037 16.5218C82.1644 16.5053 82.2525 16.4779 82.3131 16.4341C82.3131 16.4341 82.4068 16.5657 82.4949 16.6205C82.4949 16.6205 82.4508 16.4121 82.5555 16.2641C82.5555 16.2641 82.4012 16.3189 82.3296 16.3957C82.3296 16.3957 82.1148 16.1489 81.8613 16.2038C81.8613 16.2038 81.7071 16.2367 81.6465 16.3189Z" fill="#003042"/>
<path d="M73.4028 15.8081C73.4028 15.8081 73.5185 15.9781 73.7389 16.011C73.816 16.022 73.8932 16.011 73.9648 15.9836C74.0364 15.9562 74.1356 15.9123 74.1962 15.852C74.1962 15.852 74.3284 15.9946 74.4331 16.0494C74.4331 16.0494 74.3559 15.8081 74.4551 15.6272C74.4551 15.6272 74.2843 15.7094 74.2127 15.8136C74.2127 15.8136 73.9262 15.5504 73.6397 15.6491C73.6397 15.6491 73.4634 15.7039 73.4028 15.8081Z" fill="#557583"/>
<path d="M77.4312 19.0218C77.4312 19.0218 77.4973 19.2466 77.7342 19.3563C77.8168 19.3947 77.9049 19.4056 77.9931 19.4001C78.0812 19.3947 78.208 19.3782 78.2961 19.3343C78.2961 19.3343 78.3898 19.5372 78.4889 19.6304C78.4889 19.6304 78.4834 19.3398 78.6542 19.1753C78.6542 19.1753 78.4393 19.2082 78.3236 19.296C78.3236 19.296 78.0978 18.9121 77.7507 18.9231C77.7397 18.9286 77.5358 18.9286 77.4312 19.0218Z" fill="#003042"/>
<path d="M83.7739 19.3729C83.7739 19.3729 83.9723 19.5319 84.2422 19.4935C84.3359 19.477 84.424 19.4387 84.5011 19.3838C84.5728 19.329 84.6774 19.2358 84.7325 19.148C84.7325 19.148 84.9364 19.2687 85.0796 19.2961C85.0796 19.2961 84.9033 19.0384 84.9529 18.7861C84.9529 18.7861 84.7821 18.9452 84.7325 19.0932C84.7325 19.0932 84.3028 18.8848 83.9943 19.0987C83.9943 19.1042 83.8125 19.2303 83.7739 19.3729Z" fill="#003042"/>
<path d="M86.4678 21.7583C86.4678 21.7583 86.622 21.9612 86.8975 21.9886C86.9911 21.9996 87.0848 21.9776 87.173 21.9392C87.2556 21.9009 87.3823 21.8405 87.4539 21.7638C87.4539 21.7638 87.6247 21.9338 87.7569 21.9941C87.7569 21.9941 87.6467 21.7034 87.7569 21.4731C87.7569 21.4731 87.5476 21.5883 87.4649 21.7144C87.4649 21.7144 87.0958 21.4073 86.7487 21.5444C86.7487 21.5499 86.5394 21.6267 86.4678 21.7583Z" fill="#003042"/>
<path d="M90.0059 22.9477C90.0059 22.9477 90.0665 23.1451 90.2703 23.2438C90.3419 23.2767 90.419 23.2877 90.4962 23.2877C90.5733 23.2822 90.6835 23.2712 90.7606 23.2328C90.7606 23.2328 90.8433 23.4083 90.9314 23.496C90.9314 23.496 90.9314 23.2383 91.0802 23.0903C91.0802 23.0903 90.8873 23.1177 90.7882 23.1999C90.7882 23.1999 90.5898 22.86 90.2868 22.8709C90.2813 22.86 90.094 22.8654 90.0059 22.9477Z" fill="#557583"/>
<path d="M93.9293 21.0286C93.9293 21.0286 93.8632 21.226 93.9678 21.4235C94.0064 21.4893 94.0615 21.5496 94.1276 21.588C94.1937 21.6263 94.2929 21.6812 94.3755 21.6976C94.3755 21.6976 94.337 21.8895 94.359 22.0102C94.359 22.0102 94.5078 21.8018 94.7171 21.7689C94.7171 21.7689 94.5463 21.6812 94.4196 21.6867C94.4196 21.6867 94.4637 21.2973 94.2047 21.1219C94.2047 21.1219 94.056 21.0177 93.9293 21.0286Z" fill="#557583"/>
<path d="M96.3374 23.4471C96.3374 23.4471 96.4256 23.7432 96.7286 23.8858C96.8333 23.9351 96.9491 23.9571 97.0648 23.9461C97.175 23.9406 97.3458 23.9187 97.4615 23.8638C97.4615 23.8638 97.5828 24.127 97.7095 24.2532C97.7095 24.2532 97.704 23.8693 97.9299 23.6555C97.9299 23.6555 97.6434 23.6993 97.4946 23.8145C97.4946 23.8145 97.2025 23.31 96.7452 23.321C96.7507 23.321 96.4752 23.321 96.3374 23.4471Z" fill="#003042"/>
<path d="M95.6487 26.6657C95.6487 26.6657 95.5991 26.9892 95.825 27.2688C95.9021 27.3621 96.0068 27.4388 96.1226 27.4827C96.2328 27.5266 96.4036 27.5814 96.5413 27.5814C96.5413 27.5814 96.5358 27.894 96.602 28.0694C96.602 28.0694 96.7728 27.702 97.0924 27.5924C97.0924 27.5924 96.7948 27.5046 96.602 27.5485C96.602 27.5485 96.5579 26.9289 96.106 26.7315C96.1005 26.7315 95.836 26.6108 95.6487 26.6657Z" fill="#003042"/>
<path d="M97.252 27.8722C97.252 27.8722 97.3842 28.2561 97.7975 28.4316C97.9408 28.4919 98.095 28.5138 98.2438 28.4974C98.3926 28.4809 98.613 28.448 98.7618 28.3658C98.7618 28.3658 98.9381 28.7057 99.1145 28.8647C99.1145 28.8647 99.0924 28.3603 99.3735 28.0587C99.3735 28.0587 98.9988 28.1354 98.8059 28.2945C98.8059 28.2945 98.3926 27.6365 97.7865 27.6803C97.792 27.6803 97.4283 27.7023 97.252 27.8722Z" fill="#003042"/>
<path d="M100.895 27.6856C100.895 27.6856 101.016 28.1079 101.44 28.3162C101.589 28.3875 101.749 28.4204 101.914 28.4095C102.074 28.404 102.311 28.3766 102.476 28.3053C102.476 28.3053 102.641 28.6836 102.823 28.8646C102.823 28.8646 102.829 28.3217 103.148 28.0201C103.148 28.0201 102.741 28.075 102.526 28.234C102.526 28.234 102.123 27.5102 101.479 27.5157C101.479 27.5211 101.087 27.5211 100.895 27.6856Z" fill="#003042"/>
<path d="M103.402 28.7768C103.402 28.7768 103.529 29.1332 103.903 29.2922C104.036 29.347 104.173 29.3635 104.317 29.347C104.454 29.3306 104.653 29.2977 104.79 29.2264C104.79 29.2264 104.956 29.539 105.116 29.687C105.116 29.687 105.094 29.2209 105.353 28.9467C105.353 28.9467 105.005 29.018 104.829 29.1661C104.829 29.1661 104.449 28.5629 103.892 28.6068C103.898 28.6013 103.567 28.6232 103.402 28.7768Z" fill="#003042"/>
<path d="M102.366 35.9331C102.366 35.9331 102.151 36.2786 102.272 36.7063C102.316 36.8543 102.399 36.9859 102.503 37.0956C102.608 37.1998 102.773 37.3478 102.933 37.4136C102.933 37.4136 102.779 37.7646 102.762 38.0004C102.762 38.0004 103.142 37.6659 103.556 37.6933C103.556 37.6933 103.264 37.452 103.016 37.4027C103.016 37.4027 103.269 36.6679 102.856 36.2292C102.85 36.2292 102.608 35.9605 102.366 35.9331Z" fill="#003042"/>
<path d="M103.303 28.1794C103.303 28.1794 103.545 28.4152 103.909 28.3933C104.036 28.3878 104.157 28.3439 104.262 28.2781C104.366 28.2123 104.515 28.1027 104.592 27.993C104.592 27.993 104.851 28.1794 105.039 28.2343C105.039 28.2343 104.835 27.8724 104.934 27.5488C104.934 27.5488 104.686 27.7407 104.603 27.9272C104.603 27.9272 104.058 27.5982 103.628 27.8504C103.628 27.8449 103.369 27.993 103.303 28.1794Z" fill="#003042"/>
<path d="M103.595 30.6138C103.595 30.6138 103.474 30.7673 103.507 30.9757C103.518 31.047 103.551 31.1128 103.595 31.1731C103.639 31.2279 103.711 31.3047 103.777 31.3486C103.777 31.3486 103.683 31.5076 103.666 31.6172C103.666 31.6172 103.865 31.4802 104.058 31.5131C104.058 31.5131 103.931 31.3815 103.821 31.3486C103.821 31.3486 103.98 31.0141 103.81 30.7838C103.81 30.7838 103.711 30.6412 103.595 30.6138Z" fill="#003042"/>
<path d="M103.562 31.6718C103.562 31.6718 103.501 31.8692 103.617 32.0611C103.655 32.1269 103.716 32.1817 103.782 32.2201C103.848 32.2585 103.947 32.3079 104.03 32.3243C104.03 32.3243 103.997 32.5162 104.025 32.6314C104.025 32.6314 104.168 32.4175 104.372 32.3791C104.372 32.3791 104.195 32.2969 104.069 32.3024C104.069 32.3024 104.096 31.913 103.837 31.7485C103.837 31.754 103.683 31.6553 103.562 31.6718Z" fill="#003042"/>
<path d="M102.31 28.8428C102.31 28.8428 102.029 29.1773 102.101 29.6488C102.123 29.8079 102.195 29.9614 102.294 30.093C102.393 30.2191 102.547 30.4001 102.702 30.4878C102.702 30.4878 102.487 30.8388 102.437 31.0855C102.437 31.0855 102.889 30.7839 103.319 30.8717C103.319 30.8717 103.043 30.5701 102.79 30.4878C102.79 30.4878 103.159 29.7475 102.784 29.2211C102.784 29.2211 102.564 28.9086 102.31 28.8428Z" fill="#CDD7D8"/>
<path d="M98.2769 25.5912C98.2769 25.5912 98.3871 25.9477 98.7563 26.1231C98.883 26.1835 99.0263 26.2054 99.164 26.1999C99.3018 26.1889 99.5002 26.167 99.6434 26.1012C99.6434 26.1012 99.7922 26.4192 99.9465 26.5728C99.9465 26.5728 99.941 26.1122 100.217 25.849C100.217 25.849 99.8694 25.9038 99.6875 26.0409C99.6875 26.0409 99.3349 25.4267 98.7783 25.4432C98.7728 25.4377 98.4422 25.4432 98.2769 25.5912Z" fill="#003042"/>
<path d="M99.8199 26.7866C99.8199 26.7866 99.6216 27.0663 99.7042 27.4282C99.7318 27.5543 99.7979 27.6695 99.8805 27.7627C99.9632 27.8559 100.095 27.9875 100.222 28.0478C100.222 28.0478 100.073 28.333 100.051 28.5304C100.051 28.5304 100.382 28.2672 100.729 28.311C100.729 28.311 100.492 28.0972 100.288 28.0423C100.288 28.0423 100.531 27.4446 100.206 27.0553C100.211 27.0553 100.018 26.8195 99.8199 26.7866Z" fill="#003042"/>
<path d="M100.36 28.5632C100.36 28.5632 100.459 28.8813 100.784 29.0403C100.9 29.0951 101.021 29.1171 101.148 29.1061C101.269 29.0951 101.451 29.0732 101.578 29.0184C101.578 29.0184 101.71 29.3035 101.848 29.4406C101.848 29.4406 101.842 29.0293 102.085 28.7881C102.085 28.7881 101.776 28.8374 101.611 28.958C101.611 28.958 101.297 28.4097 100.801 28.4261C100.806 28.4316 100.509 28.4371 100.36 28.5632Z" fill="#003042"/>
<path d="M98.0068 27.4062C98.0068 27.4062 98.0509 27.5268 98.1831 27.5762C98.2272 27.5927 98.2768 27.5981 98.3264 27.5927C98.3704 27.5872 98.4421 27.5707 98.4861 27.5488C98.4861 27.5488 98.5467 27.653 98.6018 27.7023C98.6018 27.7023 98.5908 27.5433 98.6735 27.4501C98.6735 27.4501 98.5578 27.4775 98.4972 27.5269C98.4972 27.5269 98.3594 27.324 98.1721 27.3459C98.1721 27.3404 98.0564 27.3514 98.0068 27.4062Z" fill="#003042"/>
<path d="M100.492 27.0493C100.492 27.0493 100.536 27.1699 100.668 27.2193C100.713 27.2357 100.762 27.2412 100.812 27.2357C100.856 27.2302 100.927 27.2138 100.971 27.1919C100.971 27.1919 101.032 27.296 101.087 27.3454C101.087 27.3454 101.076 27.1864 101.159 27.0931C101.159 27.0931 101.043 27.1206 100.983 27.1699C100.983 27.1699 100.845 26.967 100.657 26.989C100.657 26.9835 100.542 26.9944 100.492 27.0493Z" fill="#003042"/>
<path d="M99.4068 27.291C99.4068 27.291 99.2857 27.4391 99.3187 27.642C99.3297 27.7132 99.3627 27.779 99.4068 27.8339C99.4508 27.8887 99.5169 27.9655 99.583 28.0039C99.583 28.0039 99.4894 28.1574 99.4729 28.2671C99.4729 28.2671 99.6656 28.1355 99.8528 28.1684C99.8528 28.1684 99.7317 28.0422 99.6215 28.0039C99.6215 28.0039 99.7757 27.6803 99.6105 27.4555C99.616 27.45 99.5169 27.3184 99.4068 27.291Z" fill="#003042"/>
<path d="M102.707 27.7352C102.707 27.7352 102.856 27.8558 103.06 27.8229C103.131 27.8119 103.197 27.779 103.252 27.7352C103.308 27.6913 103.385 27.6255 103.423 27.5597C103.423 27.5597 103.577 27.6529 103.688 27.6694C103.688 27.6694 103.555 27.4775 103.589 27.291C103.589 27.291 103.462 27.4117 103.423 27.5213C103.423 27.5213 103.098 27.3678 102.872 27.5323C102.872 27.5323 102.735 27.6255 102.707 27.7352Z" fill="#003042"/>
<path d="M106.437 29.9448C106.437 29.9448 106.289 30.038 106.25 30.23C106.239 30.2958 106.245 30.3616 106.267 30.4219C106.289 30.4822 106.327 30.5699 106.371 30.6248C106.371 30.6248 106.245 30.7344 106.195 30.8222C106.195 30.8222 106.404 30.7619 106.564 30.8551C106.564 30.8551 106.498 30.707 106.41 30.6412C106.41 30.6412 106.646 30.4054 106.569 30.1532C106.569 30.1532 106.525 30.0051 106.437 29.9448Z" fill="#003042"/>
<path d="M107.044 29.1555C107.044 29.1555 107.099 29.3364 107.281 29.4241C107.341 29.457 107.413 29.468 107.485 29.4625C107.551 29.457 107.655 29.4461 107.722 29.4132C107.722 29.4132 107.793 29.5722 107.87 29.649C107.87 29.649 107.87 29.4187 108.003 29.2871C108.003 29.2871 107.832 29.3145 107.738 29.3803C107.738 29.3803 107.562 29.0732 107.286 29.0787C107.292 29.0842 107.127 29.0842 107.044 29.1555Z" fill="#003042"/>
<path d="M107.242 30.4164C107.242 30.4164 107.314 30.6632 107.567 30.7838C107.655 30.8277 107.749 30.8441 107.848 30.8332C107.942 30.8277 108.08 30.8112 108.179 30.7673C108.179 30.7673 108.278 30.9867 108.388 31.0909C108.388 31.0909 108.388 30.7728 108.575 30.5919C108.575 30.5919 108.339 30.6303 108.212 30.7235C108.212 30.7235 107.969 30.3013 107.589 30.3122C107.584 30.3122 107.358 30.3177 107.242 30.4164Z" fill="#003042"/>
<path d="M108.025 29.9669C108.025 29.9669 108.218 30.1862 108.537 30.1972C108.648 30.2027 108.758 30.1698 108.851 30.1204C108.945 30.0711 109.083 29.9888 109.16 29.8956C109.16 29.8956 109.369 30.0766 109.529 30.1369C109.529 30.1369 109.38 29.8079 109.485 29.5337C109.485 29.5337 109.254 29.6817 109.171 29.8408C109.171 29.8408 108.725 29.5118 108.333 29.7037C108.333 29.7037 108.097 29.8133 108.025 29.9669Z" fill="#003042"/>
<path d="M96.7617 25.1357C96.7617 25.1357 97.0372 25.4318 97.4781 25.4263C97.6269 25.4263 97.7756 25.3824 97.9079 25.3057C98.0346 25.2344 98.2165 25.1137 98.3212 24.9876C98.3212 24.9876 98.6132 25.2289 98.8391 25.3002C98.8391 25.3002 98.6187 24.856 98.7565 24.4722C98.7565 24.4722 98.4479 24.686 98.3377 24.9054C98.3377 24.9054 97.704 24.4777 97.175 24.7518C97.1695 24.7573 96.8499 24.9163 96.7617 25.1357Z" fill="#003042"/>
<path d="M94.3481 25.3442C94.3481 25.3442 94.26 25.5416 94.3591 25.75C94.3922 25.8213 94.4473 25.8871 94.5079 25.931C94.5685 25.9748 94.6677 26.0406 94.7558 26.0626C94.7558 26.0626 94.7007 26.2545 94.7117 26.3806C94.7117 26.3806 94.8825 26.1777 95.0974 26.1613C95.0974 26.1613 94.9266 26.0571 94.7944 26.0516C94.7944 26.0516 94.8715 25.6513 94.6181 25.4539C94.6236 25.4649 94.4748 25.3442 94.3481 25.3442Z" fill="#003042"/>
<path d="M85.752 18.6603C85.752 18.6603 85.8236 18.9016 86.066 19.0167C86.1486 19.0551 86.2423 19.077 86.3359 19.0715C86.4296 19.0661 86.5618 19.0496 86.6555 19.0057C86.6555 19.0057 86.7546 19.2196 86.8538 19.3238C86.8538 19.3238 86.8538 19.0167 87.0356 18.8412C87.0356 18.8412 86.8042 18.8741 86.683 18.9674C86.683 18.9674 86.4516 18.5561 86.0825 18.5616C86.0825 18.5616 85.8621 18.5616 85.752 18.6603Z" fill="#003042"/>
<path d="M79.729 19.9754C79.729 19.9754 79.7951 20.2002 80.032 20.3099C80.1146 20.3483 80.2028 20.3647 80.2909 20.3538C80.3791 20.3483 80.5058 20.3318 80.5939 20.288C80.5939 20.288 80.6876 20.4908 80.7868 20.5841C80.7868 20.5841 80.7813 20.2934 80.952 20.1289C80.952 20.1289 80.7372 20.1618 80.6215 20.2496C80.6215 20.2496 80.3956 19.8657 80.0485 19.8767C80.043 19.8822 79.8337 19.8877 79.729 19.9754Z" fill="#003042"/>
<path d="M85.0303 19.7568C85.0303 19.7568 85.179 19.8939 85.3939 19.872C85.4655 19.8665 85.5371 19.8391 85.6032 19.7952C85.6638 19.7568 85.7465 19.691 85.7961 19.6198C85.7961 19.6198 85.9503 19.7239 86.0605 19.7568C86.0605 19.7568 85.9338 19.5485 85.9834 19.3511C85.9834 19.3511 85.8401 19.4662 85.7961 19.5814C85.7961 19.5814 85.471 19.3949 85.2176 19.554C85.2121 19.554 85.0633 19.6472 85.0303 19.7568Z" fill="#003042"/>
<path d="M88.645 18.9448C88.645 18.9448 88.8268 19.0929 89.0802 19.049C89.1684 19.0326 89.2455 18.9997 89.3171 18.9448C89.3833 18.89 89.4769 18.8077 89.5265 18.7255C89.5265 18.7255 89.7138 18.8352 89.8515 18.8626C89.8515 18.8626 89.6863 18.6268 89.7303 18.3965C89.7303 18.3965 89.5706 18.5445 89.5265 18.6816C89.5265 18.6816 89.1243 18.4897 88.8489 18.6926C88.8489 18.6926 88.6781 18.8132 88.645 18.9448Z" fill="#557583"/>
<path d="M89.3115 21.1764C89.3115 21.1764 89.3611 21.3683 89.5539 21.467C89.62 21.4999 89.6972 21.5164 89.7688 21.5109C89.8404 21.5109 89.9506 21.4999 90.0222 21.467C90.0222 21.467 90.0938 21.637 90.1765 21.7247C90.1765 21.7247 90.182 21.478 90.3307 21.3409C90.3307 21.3409 90.1489 21.3628 90.0498 21.4341C90.0498 21.4341 89.8735 21.0996 89.576 21.0996C89.5815 21.1051 89.4052 21.0996 89.3115 21.1764Z" fill="#CDD7D8"/>
<path d="M73.5132 20.2064C73.5132 20.2064 73.6289 20.3052 73.7886 20.2832C73.8437 20.2777 73.8988 20.2558 73.9429 20.2229C73.987 20.19 74.0531 20.1406 74.0861 20.0858C74.0861 20.0858 74.2073 20.1626 74.29 20.179C74.29 20.179 74.1908 20.02 74.2239 19.8774C74.2239 19.8774 74.1192 19.9707 74.0861 20.0584C74.0861 20.0584 73.8327 19.9268 73.6509 20.0474C73.6454 20.0474 73.5352 20.1242 73.5132 20.2064Z" fill="#003042"/>
<path d="M78.2964 15.7207C78.2964 15.7207 78.3956 15.8633 78.5774 15.8907C78.6435 15.9017 78.7041 15.8907 78.7647 15.8688C78.8253 15.8468 78.9079 15.8085 78.963 15.7591C78.963 15.7591 79.0732 15.8797 79.1613 15.9236C79.1613 15.9236 79.0952 15.7207 79.1779 15.5672C79.1779 15.5672 79.0346 15.6385 78.974 15.7207C78.974 15.7207 78.7371 15.4959 78.4947 15.5782C78.4947 15.5836 78.3515 15.633 78.2964 15.7207Z" fill="#003042"/>
<path d="M71.6948 16.9817C71.6948 16.9817 71.7885 17.1024 71.9482 17.1133C72.0033 17.1188 72.0584 17.1079 72.1135 17.0859C72.1631 17.064 72.2347 17.0256 72.2788 16.9817C72.2788 16.9817 72.378 17.0804 72.4606 17.1133C72.4606 17.1133 72.3945 16.9379 72.4551 16.8008C72.4551 16.8008 72.3339 16.8721 72.2843 16.9488C72.2843 16.9488 72.0639 16.7679 71.8546 16.8556C71.8601 16.8556 71.7334 16.905 71.6948 16.9817Z" fill="#003042"/>
<path d="M69.1709 20.4693C69.1709 20.4693 69.4685 20.6667 69.8487 20.5735C69.9809 20.5406 70.0966 20.4748 70.1958 20.3816C70.2895 20.2939 70.4218 20.1513 70.4879 20.0197C70.4879 20.0197 70.791 20.1677 71.0004 20.1842C71.0004 20.1842 70.7138 19.8442 70.7524 19.4878C70.7524 19.4878 70.532 19.7345 70.4824 19.9484C70.4824 19.9484 69.8487 19.7071 69.4464 20.0581C69.4464 20.0581 69.204 20.261 69.1709 20.4693Z" fill="#003042"/>
<path d="M70.5869 16.9713C70.5869 16.9713 70.8845 17.1687 71.2647 17.0755C71.3969 17.0426 71.5127 16.9768 71.6119 16.8835C71.7055 16.7958 71.8378 16.6532 71.9039 16.5216C71.9039 16.5216 72.207 16.6697 72.4164 16.6861C72.4164 16.6861 72.1298 16.3462 72.1684 15.9897C72.1684 15.9897 71.948 16.2365 71.8984 16.4504C71.8984 16.4504 71.2647 16.2146 70.8624 16.56C70.8569 16.5545 70.62 16.7629 70.5869 16.9713Z" fill="#CDD7D8"/>
<path d="M76.6318 15.6885C76.6318 15.6885 76.7255 15.9791 77.0341 16.1162C77.1388 16.1655 77.2545 16.182 77.3702 16.171C77.4804 16.16 77.6458 16.1381 77.7615 16.0833C77.7615 16.0833 77.8882 16.341 78.0205 16.4671C78.0205 16.4671 78.0094 16.0887 78.2299 15.8639C78.2299 15.8639 77.9488 15.9133 77.8 16.0339C77.8 16.0339 77.497 15.5349 77.0396 15.5569C77.0396 15.5569 76.7641 15.5678 76.6318 15.6885Z" fill="#CDD7D8"/>
<path d="M68.9839 17.0911C68.9839 17.0911 69.1547 17.612 69.7058 17.8588C69.8931 17.941 70.1025 17.9739 70.3064 17.952C70.5048 17.9356 70.8023 17.8862 71.0062 17.7875C71.0062 17.7875 71.2376 18.2536 71.4691 18.4674C71.4691 18.4674 71.447 17.7875 71.8328 17.3872C71.8328 17.3872 71.3258 17.4804 71.0613 17.6888C71.0613 17.6888 70.5158 16.8005 69.7002 16.8443C69.7113 16.8443 69.2208 16.8663 68.9839 17.0911Z" fill="#003042"/>
<path d="M67.2812 18.1112C67.2812 18.1112 67.5678 18.2648 67.8984 18.1441C68.0141 18.1057 68.1133 18.0345 68.1905 17.9412C68.2676 17.8535 68.3723 17.7164 68.4219 17.5903C68.4219 17.5903 68.7084 17.6945 68.8958 17.6945C68.8958 17.6945 68.6093 17.4148 68.6148 17.0913C68.6148 17.0913 68.4384 17.3326 68.4109 17.53C68.4109 17.53 67.8213 17.371 67.4962 17.7164C67.4906 17.7219 67.2923 17.9248 67.2812 18.1112Z" fill="#003042"/>
<path d="M72.4277 16.1152C72.4277 16.1152 72.4994 16.3455 72.7418 16.4606C72.8244 16.499 72.9181 16.5154 73.0062 16.5045C73.0943 16.499 73.2266 16.4825 73.3147 16.4387C73.3147 16.4387 73.4139 16.647 73.513 16.7457C73.513 16.7457 73.5075 16.4442 73.6838 16.2687C73.6838 16.2687 73.458 16.3071 73.3423 16.3948C73.3423 16.3948 73.1109 16 72.7473 16.011C72.7473 16.011 72.5324 16.0164 72.4277 16.1152Z" fill="#003042"/>
<path d="M69.4077 19.3285C69.4077 19.3285 69.4628 19.4985 69.6446 19.5753C69.7052 19.6027 69.7713 19.6137 69.8374 19.6027C69.9035 19.5972 69.9972 19.5808 70.0633 19.5479C70.0633 19.5479 70.1404 19.6959 70.2121 19.7672C70.2121 19.7672 70.201 19.5479 70.3278 19.4163C70.3278 19.4163 70.1625 19.4492 70.0798 19.515C70.0798 19.515 69.9035 19.2298 69.6391 19.2463C69.6391 19.2463 69.4793 19.2573 69.4077 19.3285Z" fill="#003042"/>
<path d="M65.187 17.9689C65.187 17.9689 65.2972 18.1279 65.5065 18.1554C65.5782 18.1663 65.6498 18.1554 65.7159 18.1279C65.782 18.1005 65.8757 18.0567 65.9363 18.0073C65.9363 18.0073 66.0575 18.1389 66.1566 18.1937C66.1566 18.1937 66.085 17.9689 66.1732 17.7935C66.1732 17.7935 66.0134 17.8757 65.9418 17.9689C65.9418 17.9689 65.6718 17.7222 65.4019 17.8154C65.4074 17.8154 65.2476 17.8702 65.187 17.9689Z" fill="#003042"/>
<path d="M66.3115 17.7113C66.3115 17.7113 66.3556 17.8868 66.5319 17.9745C66.5925 18.0074 66.6586 18.0184 66.7247 18.0184C66.7908 18.0184 66.89 18.0074 66.9561 17.98C66.9561 17.98 67.0222 18.1335 67.0938 18.2103C67.0938 18.2103 67.0993 17.991 67.2371 17.8648C67.2371 17.8648 67.0718 17.8868 66.9781 17.9471C66.9781 17.9471 66.8184 17.6455 66.5539 17.6455C66.5539 17.6455 66.3942 17.6455 66.3115 17.7113Z" fill="#557583"/>
<path d="M64.1455 20.0359C64.1455 20.0359 64.3329 20.3923 64.7572 20.5075C64.9059 20.5458 65.0602 20.5458 65.2035 20.5075C65.3468 20.4691 65.5562 20.4033 65.6884 20.3101C65.6884 20.3101 65.9088 20.6171 66.1017 20.7487C66.1017 20.7487 66.008 20.2607 66.2395 19.9262C66.2395 19.9262 65.8813 20.0523 65.716 20.2333C65.716 20.2333 65.22 19.652 64.6359 19.7782C64.6414 19.7727 64.2943 19.844 64.1455 20.0359Z" fill="#557583"/>
<path d="M71.0498 19.521C71.0498 19.521 71.1821 19.9213 71.6008 20.1023C71.7441 20.1681 71.9039 20.19 72.0582 20.1735C72.2125 20.1571 72.4384 20.1242 72.5927 20.0474C72.5927 20.0474 72.7691 20.4038 72.9454 20.5684C72.9454 20.5684 72.9289 20.0474 73.2209 19.7458C73.2209 19.7458 72.8352 19.8171 72.6368 19.9761C72.6368 19.9761 72.2235 19.2962 71.6008 19.3346C71.6008 19.3346 71.2316 19.351 71.0498 19.521Z" fill="#557583"/>
<path d="M76.6372 19.6635C76.6372 19.6635 76.7805 19.9267 77.1001 19.9979C77.2103 20.0254 77.326 20.0199 77.4307 19.987C77.5354 19.9596 77.6897 19.9047 77.7889 19.828C77.7889 19.828 77.9597 20.0528 78.103 20.146C78.103 20.146 78.0203 19.7841 78.1911 19.5319C78.1911 19.5319 77.9322 19.6306 77.8109 19.7731C77.8109 19.7731 77.4307 19.3509 77.0009 19.4606C77.0009 19.4606 76.7419 19.5209 76.6372 19.6635Z" fill="#557583"/>
<path d="M82.5444 17.689C82.5444 17.689 82.7373 18.3141 83.3875 18.6102C83.6079 18.7144 83.8559 18.7528 84.0984 18.7363C84.3353 18.7199 84.688 18.6705 84.9304 18.5554C84.9304 18.5554 85.1949 19.1092 85.465 19.3724C85.465 19.3724 85.4539 18.5663 85.9223 18.1002C85.9223 18.1002 85.3217 18.1989 85.0021 18.4457C85.0021 18.4457 84.3739 17.3819 83.4096 17.4148C83.4096 17.4148 82.831 17.4313 82.5444 17.689Z" fill="#557583"/>
<path d="M83.7461 20.8479C83.7461 20.8479 83.8012 21.122 84.0657 21.2811C84.1594 21.3359 84.2586 21.3633 84.3688 21.3633C84.4735 21.3633 84.6223 21.3578 84.7325 21.3195C84.7325 21.3195 84.8206 21.5662 84.9253 21.6923C84.9253 21.6923 84.9529 21.3469 85.1733 21.1659C85.1733 21.1659 84.9088 21.1824 84.7655 21.2756C84.7655 21.2756 84.5396 20.793 84.1263 20.7656C84.1263 20.7711 83.8783 20.7492 83.7461 20.8479Z" fill="#CDD7D8"/>
<path d="M86.1431 17.9197C86.1431 17.9197 86.3139 18.4077 86.8319 18.6271C87.0082 18.7038 87.2066 18.7258 87.3994 18.7038C87.5868 18.6819 87.8623 18.638 88.0552 18.5393C88.0552 18.5393 88.2811 18.9725 88.5015 19.1699C88.5015 19.1699 88.4685 18.5339 88.8266 18.15C88.8266 18.15 88.3527 18.2432 88.1103 18.4461C88.1103 18.4461 87.5868 17.6181 86.8208 17.6784C86.8208 17.6784 86.3635 17.7059 86.1431 17.9197Z" fill="#CDD7D8"/>
<path d="M64.0186 18.3858C64.0186 18.3858 64.0406 18.501 64.1453 18.5668C64.1838 18.5887 64.2224 18.5997 64.2665 18.6051C64.3105 18.6051 64.3711 18.6051 64.4152 18.5942C64.4152 18.5942 64.4483 18.6984 64.4923 18.7477C64.4923 18.7477 64.5089 18.6051 64.597 18.5339C64.597 18.5339 64.4923 18.5393 64.4317 18.5722C64.4317 18.5722 64.3436 18.3748 64.1783 18.3584C64.1783 18.3584 64.0792 18.3474 64.0186 18.3858Z" fill="#003042"/>
<path d="M61.6216 18.9334C61.6216 18.9334 61.7813 19.1089 62.0403 19.1089C62.1284 19.1089 62.2166 19.0815 62.2937 19.0431C62.3708 18.9992 62.4755 18.9334 62.5361 18.8567C62.5361 18.8567 62.7069 18.9992 62.8391 19.0431C62.8391 19.0431 62.7124 18.7799 62.7895 18.5605C62.7895 18.5605 62.6077 18.6867 62.5416 18.8128C62.5416 18.8128 62.1725 18.5605 61.864 18.7196C61.864 18.7141 61.6767 18.8073 61.6216 18.9334Z" fill="#CDD7D8"/>
<mask id="mask0_7735_59177" style="mask-type:alpha" maskUnits="userSpaceOnUse" x="59" y="20" width="27" height="13">
<path d="M59.5154 20.1185C59.5154 20.1185 58.9809 20.442 59.2839 22.3173C59.587 24.1927 61.3118 26.5231 62.3422 27.5102C63.3782 28.4972 65.8358 30.6193 68.602 31.6118C71.3683 32.6043 74.0298 33.0759 77.2865 32.9278C80.5431 32.7797 84.5933 31.705 85.2876 31.3705C85.2876 31.3705 84.0753 29.8242 83.7226 27.3511C83.6841 26.8631 83.7061 25.1248 83.5463 24.571C83.3975 24.0446 83.1055 22.3338 82.6591 21.5003C82.615 21.4126 82.5434 21.3468 82.4552 21.3029C81.9703 21.0616 80.0251 20.3926 73.5229 20.6065C73.2749 20.6175 73.0269 20.6339 72.7845 20.6558C71.7981 20.7545 68.7839 21.0177 65.913 20.8478C65.913 20.8478 64.5023 20.7381 62.9263 20.272C62.739 20.2226 61.2126 20.0088 60.2538 20.0088C59.8956 20.0088 59.6201 20.0362 59.5154 20.1185Z" fill="#47A09D"/>
</mask>
<g mask="url(#mask0_7735_59177)">
<path d="M59.5442 19.8491L58.9712 21.7299V19.8491H59.5442Z" fill="#003042"/>
<path d="M66.8731 19.8491L63.6606 30.4157L58.9712 29.0065V21.7299L59.5443 19.8491H66.8731Z" fill="#003042"/>
<path d="M74.2021 19.8491L70.3723 32.4391L63.6606 30.4157L66.8732 19.8491H74.2021Z" fill="#002F41"/>
<path d="M74.4002 19.8491L70.5539 32.494L70.3721 32.4391L74.2018 19.8491H74.4002Z" fill="#002F41"/>
<path d="M74.5988 19.8491L70.736 32.5488L70.5542 32.494L74.4005 19.8491H74.5988Z" fill="#002F41"/>
<path d="M74.7915 19.8491L70.9122 32.6036L70.7358 32.5488L74.5986 19.8491H74.7915Z" fill="#002F40"/>
<path d="M74.9898 19.8491L71.094 32.6585L70.9121 32.6036L74.7914 19.8491H74.9898Z" fill="#002E3F"/>
<path d="M75.1885 19.8491L71.2761 32.7133L71.0942 32.6585L74.9901 19.8491H75.1885Z" fill="#002E3F"/>
<path d="M75.4593 19.7004L71.3424 33.2419L71.0663 33.2286L75.1733 19.7381L75.4593 19.7004Z" fill="#002E3F"/>
<path d="M75.5793 19.8491L71.6339 32.8175L71.4575 32.7626L75.3864 19.8491H75.5793Z" fill="#002D3E"/>
<path d="M75.7781 19.8491L71.8161 32.8723L71.6343 32.8175L75.5797 19.8491H75.7781Z" fill="#002D3E"/>
<path d="M75.9768 19.8491L71.9982 32.9271L71.8164 32.8723L75.7784 19.8491H75.9768Z" fill="#002C3D"/>
<path d="M76.1689 19.8491L72.1739 32.982L71.9976 32.9272L75.9761 19.8491H76.1689Z" fill="#002C3D"/>
<path d="M76.3677 19.8491L72.3562 33.0368L72.1743 32.982L76.1694 19.8491H76.3677Z" fill="#002B3B"/>
<path d="M76.5659 19.8491L72.5378 33.0917L72.356 33.0368L76.3675 19.8491H76.5659Z" fill="#002B3A"/>
<path d="M76.7586 19.8491L72.7305 33.0917H72.5431H72.5376L76.5657 19.8491H76.7586Z" fill="#002A3A"/>
<path d="M76.957 19.8491L72.9288 33.0917H72.7305L76.7586 19.8491H76.957Z" fill="#002A39"/>
<path d="M77.1557 19.8491L73.1276 33.0917H72.9292L76.9573 19.8491H77.1557Z" fill="#002939"/>
<path d="M77.3484 19.8491L73.3203 33.0917H73.1274L77.1556 19.8491H77.3484Z" fill="#002938"/>
<path d="M77.5468 19.8491L73.5187 33.0917H73.3203L77.3484 19.8491H77.5468Z" fill="#002838"/>
<path d="M77.745 19.8491L73.7169 33.0917H73.5186L77.5467 19.8491H77.745Z" fill="#002737"/>
<path d="M77.9378 19.8491L73.9097 33.0917H73.7168L77.7449 19.8491H77.9378Z" fill="#002736"/>
<path d="M78.1366 19.8491L74.1085 33.0917H73.9102L77.9383 19.8491H78.1366Z" fill="#012635"/>
<path d="M78.3349 19.8491L74.3068 33.0917H74.1084L78.1365 19.8491H78.3349Z" fill="#032533"/>
<path d="M78.5276 19.8491L74.4995 33.0917H74.3066L78.3347 19.8491H78.5276Z" fill="#032532"/>
<path d="M78.5387 19.8491L78.7095 19.8985L74.6979 33.0917H74.4995L78.5276 19.8491H78.5387Z" fill="#042431"/>
<path d="M78.7093 19.8989L78.8912 19.9538L74.8961 33.0921H74.6978L78.7093 19.8989Z" fill="#052330"/>
<path d="M78.8915 19.9541L79.0734 20.0089L75.0893 33.0925H74.8965L78.8915 19.9541Z" fill="#06232F"/>
<path d="M79.0729 20.0083L79.2492 20.0631L75.2872 33.0918H75.0889L79.0729 20.0083Z" fill="#07222E"/>
<path d="M79.2496 20.0635L79.4314 20.1183L75.486 33.0922H75.2876L79.2496 20.0635Z" fill="#07212D"/>
<path d="M79.4313 20.1177L79.6131 20.1725L75.6842 33.0915H75.4858L79.4313 20.1177Z" fill="#07202C"/>
<path d="M79.6135 20.1729L79.7898 20.2277L75.8774 33.0919H75.6846L79.6135 20.1729Z" fill="#07202B"/>
<path d="M79.7893 20.228L79.9712 20.2829L76.0753 33.0922H75.877L79.7893 20.228Z" fill="#07202A"/>
<path d="M79.9715 20.2832L80.1534 20.338L76.2741 33.0925H76.0757L79.9715 20.2832Z" fill="#071F29"/>
<path d="M80.1533 20.3374L80.3296 20.3922L76.4668 33.0919H76.2739L80.1533 20.3374Z" fill="#071E28"/>
<path d="M80.3296 20.3926L80.5114 20.4419L76.6652 33.0923H76.4668L80.3296 20.3926Z" fill="#061D27"/>
<path d="M80.5113 20.4419L80.6932 20.4967L76.8634 33.0922H76.665L80.5113 20.4419Z" fill="#061D26"/>
<path d="M80.693 20.4961L80.8749 20.5509L77.0561 33.0916H76.8633L80.693 20.4961Z" fill="#061C26"/>
<path d="M80.8754 20.5513L81.0517 20.6061L77.255 33.0919H77.0566L80.8754 20.5513Z" fill="#071C24"/>
<path d="M81.0516 20.606L81.2334 20.6608L77.4533 33.0918H77.2549L81.0516 20.606Z" fill="#071B23"/>
<path d="M81.2333 20.6616L81.4151 20.7165L77.646 33.0926H77.4531L81.2333 20.6616Z" fill="#071A23"/>
<path d="M81.4151 20.7158L81.5915 20.7707L77.8444 33.092H77.646L81.4151 20.7158Z" fill="#071922"/>
<path d="M81.5913 20.7705L81.7732 20.8253L78.0426 33.0918H77.8442L81.5913 20.7705Z" fill="#081821"/>
<path d="M81.7735 20.8257L81.9554 20.8805L78.2358 33.0922H78.043L81.7735 20.8257Z" fill="#081820"/>
<path d="M81.9554 20.8804L82.1317 20.9297L78.4342 33.092H78.2358L81.9554 20.8804Z" fill="#08171F"/>
<path d="M82.1311 20.9297L82.3129 20.9845L78.632 33.092H78.4336L82.1311 20.9297Z" fill="#09171E"/>
<path d="M82.3133 20.9844L82.4951 21.0392L78.8252 33.0918H78.6323L82.3133 20.9844Z" fill="#09161D"/>
<path d="M82.4951 21.0396L82.6715 21.0944L79.0236 33.0922H78.8252L82.4951 21.0396Z" fill="#09161C"/>
<path d="M82.6713 21.0942L82.8532 21.1491L79.2218 33.092H79.0234L82.6713 21.0942Z" fill="#09151A"/>
<path d="M82.853 21.1489L83.0349 21.2038L79.4201 33.0919H79.2217L82.853 21.1489Z" fill="#091419"/>
<path d="M83.0352 21.2041L83.2116 21.2589L79.6133 33.0922H79.4204L83.0352 21.2041Z" fill="#0A1318"/>
<path d="M83.2116 21.2588L83.3934 21.3136L79.8117 33.0921H79.6133L83.2116 21.2588Z" fill="#0A1217"/>
<path d="M83.3933 21.313L83.5751 21.3678L80.0099 33.0914H79.8115L83.3933 21.313Z" fill="#0A1216"/>
<path d="M83.575 21.3687L83.7568 21.4235L80.2026 33.0923H80.0098L83.575 21.3687Z" fill="#0A1115"/>
<path d="M83.7569 21.4233L83.9332 21.4727L80.401 33.0921H80.2026L83.7569 21.4233Z" fill="#091013"/>
<path d="M83.9331 21.4731L84.1149 21.528L80.5993 33.0926H80.4009L83.9331 21.4731Z" fill="#090F12"/>
<path d="M84.1153 21.5273L84.2971 21.5822L80.7925 33.092H80.5996L84.1153 21.5273Z" fill="#080E11"/>
<path d="M84.2971 21.5825L84.4734 21.6374L80.9909 33.0923H80.7925L84.2971 21.5825Z" fill="#080D0F"/>
<path d="M84.4733 21.6372L84.6552 21.692L81.1891 33.0921H80.9907L84.4733 21.6372Z" fill="#070C0E"/>
<path d="M84.6555 21.6919L84.8374 21.7467L81.3823 33.092H81.1895L84.6555 21.6919Z" fill="#070B0D"/>
<path d="M84.8374 21.7466L85.0137 21.8014L81.5807 33.0918H81.3823L84.8374 21.7466Z" fill="#06090B"/>
<path d="M85.0136 21.8018L85.1954 21.8566L81.7789 33.0922H81.5806L85.0136 21.8018Z" fill="#050709"/>
<path d="M85.1953 21.8569L85.2834 21.8789V22.2188L81.9717 33.0925H81.7788L85.1953 21.8569Z" fill="#040507"/>
<path d="M85.2834 22.8653L82.1701 33.0919H81.9717L85.2834 22.2183V22.8653Z" fill="#030405"/>
<path d="M82.1704 33.0919L85.2838 22.8652V33.0919H82.1704Z" fill="#030405"/>
</g>
<path d="M76.1303 33.1361C73.5018 33.1361 71.1268 32.7084 68.5645 31.7871C65.7266 30.7672 63.2138 28.5629 62.266 27.6581C61.164 26.6108 59.4778 24.2913 59.1747 22.405C58.8716 20.557 59.3676 20.1513 59.4502 20.0964C59.9131 19.7619 62.762 20.1842 62.9549 20.239C64.5033 20.6941 65.9084 20.8093 65.9195 20.8093C68.8069 20.9793 71.8927 20.7051 72.7689 20.6173C73.0224 20.5899 73.2759 20.5735 73.5183 20.568C79.9214 20.3541 81.9382 20.9902 82.5058 21.2754C82.616 21.3302 82.7042 21.4124 82.7593 21.5221C83.0954 22.1472 83.3434 23.2659 83.5087 24.0006C83.5638 24.2584 83.6134 24.4777 83.652 24.6093C83.7677 25.0096 83.7897 25.9966 83.8063 26.7204C83.8118 27.0111 83.8173 27.2633 83.8283 27.4059C84.17 29.8241 85.3547 31.354 85.3657 31.3704L85.4484 31.4801L85.3271 31.5404C84.6549 31.8584 80.6212 32.9551 77.2874 33.1087C76.8962 33.1251 76.5105 33.1361 76.1303 33.1361ZM59.5659 20.2829C59.5439 20.2993 59.1031 20.6557 59.3841 22.3721C59.6817 24.1871 61.3679 26.5066 62.4148 27.4991C63.3516 28.3929 65.8368 30.5753 68.6361 31.5788C71.5401 32.6206 74.2071 33.0264 77.2764 32.8893C80.2961 32.7522 84.1424 31.7817 85.1122 31.3978C84.8257 30.9975 83.911 29.5663 83.6134 27.4388V27.4333C83.6024 27.2852 83.5969 27.0275 83.5914 26.7314C83.5748 26.024 83.5528 25.0535 83.4426 24.6751C83.404 24.5325 83.3544 24.3132 83.2938 24.05C83.1285 23.3262 82.886 22.224 82.5664 21.6263C82.5334 21.5605 82.4783 21.5112 82.4121 21.4728C81.9823 21.2589 80.0647 20.568 73.5293 20.7873C73.2924 20.7928 73.0444 20.8148 72.7965 20.8367C71.6668 20.9518 68.7408 21.1931 65.9084 21.0341C65.8919 21.0341 64.4647 20.9135 62.8942 20.4528C62.5967 20.3651 59.9021 20.0306 59.5825 20.2774L59.5659 20.2829Z" fill="black"/>
<path d="M77.2327 30.9971C75.6291 30.9971 73.8052 30.8491 71.9041 30.4269C69.8432 29.9662 67.9366 29.1382 66.2284 27.9593C64.8618 27.0162 63.6219 25.8537 62.5474 24.4992C60.7124 22.1907 59.9685 20.1015 59.9575 20.0796L60.1669 20.0083C60.1724 20.0302 60.9108 22.092 62.7237 24.3731C64.3934 26.4733 67.3525 29.1931 71.9537 30.2185C75.4198 30.9917 78.6103 30.8326 80.6767 30.5585C82.9194 30.2624 84.3632 29.7798 84.3742 29.7743L84.4458 29.9827C84.4293 29.9882 82.9745 30.4762 80.7098 30.7723C79.7565 30.8984 78.5717 30.9971 77.2327 30.9971Z" fill="black"/>
<path d="M78.6876 28.283C77.2824 28.283 75.6238 28.2062 73.7502 27.9814C70.5928 27.6085 68.091 25.64 66.5481 24.0552C64.8785 22.3499 63.9417 20.6994 63.9307 20.6829L64.1235 20.5732C64.1345 20.5897 65.0603 22.2183 66.7134 23.9072C68.2288 25.4645 70.6919 27.3947 73.7778 27.762C79.8999 28.4913 83.7131 27.6633 83.7516 27.6524L83.8012 27.8662C83.7682 27.8772 81.9001 28.283 78.6876 28.283Z" fill="black"/>
<path d="M79.6191 25.3605C78.3517 25.3605 77.156 25.2728 76.0484 25.1028C74.2685 24.8286 72.698 24.3351 71.381 23.6387C69.1218 22.4433 68.3889 21.0834 68.3613 21.0231L68.5542 20.9189C68.5652 20.9409 69.2981 22.2898 71.5023 23.4523C73.5466 24.5271 77.2992 25.6457 83.5921 24.8835L83.6197 25.1028C82.22 25.2783 80.881 25.3605 79.6191 25.3605Z" fill="black"/>
<path d="M82.3575 22.931C79.3322 22.931 77.5469 22.3772 76.566 21.8892C75.3978 21.3134 75.0727 20.7047 75.0562 20.6828L75.249 20.5786C75.2545 20.5841 75.5686 21.1599 76.6872 21.7082C77.7232 22.2127 79.6794 22.7994 83.0958 22.7007L83.1014 22.92C82.8479 22.9255 82.5999 22.931 82.3575 22.931Z" fill="black"/>
<mask id="mask1_7735_59177" style="mask-type:alpha" maskUnits="userSpaceOnUse" x="84" y="21" width="13" height="11">
<path d="M88.4017 31.0081C88.4017 30.9423 88.3962 30.8765 88.3962 30.8162C88.3797 30.9314 88.4017 31.0081 88.4017 31.0081ZM84.9853 21.8398C84.8475 21.9275 84.5279 22.2511 85.0404 23.3258C85.5804 24.4609 87.3933 26.073 87.757 27.2026C87.7846 27.2904 87.8121 27.3781 87.8397 27.4658C87.9719 27.8551 88.3246 29.0451 88.4017 30.8107C88.4348 30.5695 88.6497 30.1582 89.614 29.9334C89.614 29.9334 94.6065 28.4254 96.1053 28.2664C96.1053 28.2664 93.1903 23.3203 85.0955 21.8179C85.0845 21.8179 85.0734 21.8179 85.0679 21.8179C85.0404 21.8179 85.0128 21.8234 84.9853 21.8398Z" fill="#47A09D"/>
</mask>
<g mask="url(#mask1_7735_59177)">
<path d="M85.9719 21.8125L84.5337 25.4371V21.8125H85.9719Z" fill="#003042"/>
<path d="M86.1758 21.8125L84.5337 25.947V25.4371L85.9719 21.8125H86.1758Z" fill="#003042"/>
<path d="M86.3797 21.8125L84.5337 26.4625V25.947L86.1758 21.8125H86.3797Z" fill="#002F41"/>
<path d="M86.5836 21.8125L84.5337 26.9724V26.4625L86.3797 21.8125H86.5836Z" fill="#002E3F"/>
<path d="M86.7875 21.8125L84.5337 27.4824V26.9724L86.5836 21.8125H86.7875Z" fill="#002E3F"/>
<path d="M86.9913 21.8125L84.5337 27.9978V27.4824L86.7875 21.8125H86.9913Z" fill="#002D3E"/>
<path d="M87.1952 21.8125L84.5337 28.5078V27.9978L86.9914 21.8125H87.1952Z" fill="#002C3D"/>
<path d="M87.3991 21.8125L84.5337 29.0232V28.5078L87.1952 21.8125H87.3991Z" fill="#002B3B"/>
<path d="M87.5975 21.8125L84.5337 29.5332V29.0232L87.3991 21.8125H87.5975Z" fill="#002B3A"/>
<path d="M87.8014 21.8125L84.688 29.6593L84.5337 29.599V29.5332L87.5975 21.8125H87.8014Z" fill="#002A39"/>
<path d="M88.0052 21.8125L84.8643 29.7306L84.688 29.6593L87.8014 21.8125H88.0052Z" fill="#002939"/>
<path d="M88.2081 21.8125L85.0396 29.8019L84.8633 29.7306L88.0042 21.8125H88.2081Z" fill="#002838"/>
<path d="M88.4119 21.8125L85.2104 29.8677L85.0396 29.8019L88.208 21.8125H88.4119Z" fill="#002837"/>
<path d="M88.6169 21.8125L85.3878 29.939L85.2114 29.8677L88.413 21.8125H88.6169Z" fill="#002736"/>
<path d="M88.8207 21.8125L85.564 30.0048L85.3877 29.939L88.6168 21.8125H88.8207Z" fill="#022635"/>
<path d="M89.0245 21.8125L85.7403 30.0761L85.564 30.0048L88.8206 21.8125H89.0245Z" fill="#032533"/>
<path d="M89.2283 21.8125L85.9166 30.1473L85.7402 30.0761L89.0244 21.8125H89.2283Z" fill="#042532"/>
<path d="M89.4322 21.8125L86.0928 30.2131L85.9165 30.1473L89.2283 21.8125H89.4322Z" fill="#052431"/>
<path d="M89.6365 21.8125L86.2696 30.2844L86.0933 30.2131L89.4326 21.8125H89.6365Z" fill="#062330"/>
<path d="M89.664 21.8125L89.8127 21.8728L86.4459 30.3557L86.2695 30.2844L89.6364 21.8125H89.664Z" fill="#07222F"/>
<path d="M89.8016 21.8706L86.4321 30.3501L86.6208 30.4243L89.9903 21.9448L89.8016 21.8706Z" fill="#07222E"/>
<path d="M89.9891 21.9439L86.6196 30.4233L86.8016 30.495L90.1711 22.0155L89.9891 21.9439Z" fill="#07212D"/>
<path d="M90.1668 22.0132L86.7974 30.4927L86.9716 30.5612L90.341 22.0817L90.1668 22.0132Z" fill="#07202C"/>
<path d="M90.3397 22.0806L86.9702 30.5601L87.1444 30.6286L90.5138 22.1491L90.3397 22.0806Z" fill="#07202B"/>
<path d="M90.5135 22.1489L87.144 30.6284L87.3266 30.7002L90.696 22.2208L90.5135 22.1489Z" fill="#07202A"/>
<path d="M90.6961 22.2202L87.3267 30.6997L87.5008 30.7682L90.8703 22.2888L90.6961 22.2202Z" fill="#071F29"/>
<path d="M90.8689 22.2881L87.4995 30.7676L87.6795 30.8384L91.0489 22.3589L90.8689 22.2881Z" fill="#071E28"/>
<path d="M91.0467 22.3569L87.6772 30.8364L87.8567 30.907L91.2261 22.4275L91.0467 22.3569Z" fill="#071D27"/>
<path d="M91.2229 22.4321L87.8535 30.9116L88.0277 30.9802L91.3971 22.5007L91.2229 22.4321Z" fill="#071D26"/>
<path d="M91.3942 22.4976L91.5705 22.5688L88.2202 31.0079H88.11L88.0273 30.975L91.3942 22.4976Z" fill="#071C26"/>
<path d="M91.5706 22.5693L91.7469 22.6351L88.4241 31.0084H88.2202L91.5706 22.5693Z" fill="#071C25"/>
<path d="M91.7466 22.6348L91.9229 22.7061L88.6277 31.008H88.4238L91.7466 22.6348Z" fill="#081B24"/>
<path d="M91.9232 22.7065L92.0995 22.7723L88.8263 31.0085H88.6279L91.9232 22.7065Z" fill="#071B22"/>
<path d="M92.0994 22.772L92.2757 22.8433L89.0301 31.0081H88.8262L92.0994 22.772Z" fill="#071A22"/>
<path d="M92.2759 22.8433L92.4522 22.9145L89.2342 31.0081H89.0303L92.2759 22.8433Z" fill="#071921"/>
<path d="M92.452 22.9146L92.6283 22.9804L89.4378 31.0081H89.2339L92.452 22.9146Z" fill="#081820"/>
<path d="M92.6285 22.9805L92.8048 23.0518L89.6419 31.0082H89.438L92.6285 22.9805Z" fill="#07181F"/>
<path d="M92.8046 23.0518L92.9809 23.1176L89.8455 31.0082H89.6416L92.8046 23.0518Z" fill="#08171F"/>
<path d="M92.9811 23.1172L93.1575 23.1885L90.0496 31.0079H89.8457L92.9811 23.1172Z" fill="#09171E"/>
<path d="M93.1577 23.189L93.334 23.2602L90.2537 31.0084H90.0498L93.1577 23.189Z" fill="#09161D"/>
<path d="M93.3342 23.2603L93.5051 23.3261L90.4578 31.0084H90.2539L93.3342 23.2603Z" fill="#08161C"/>
<path d="M93.5048 23.3262L93.6811 23.3975L90.6614 31.0085H90.4575L93.5048 23.3262Z" fill="#09151B"/>
<path d="M93.6813 23.3975L93.8576 23.4687L90.8655 31.0085H90.6616L93.6813 23.3975Z" fill="#09151A"/>
<path d="M93.8574 23.4683L94.0337 23.5341L91.0636 31.008H90.8652L93.8574 23.4683Z" fill="#091419"/>
<path d="M94.0336 23.5342L94.2099 23.6055L91.2674 31.0081H91.0635L94.0336 23.5342Z" fill="#091418"/>
<path d="M94.2097 23.606L94.386 23.6718L91.471 31.0086H91.2671L94.2097 23.606Z" fill="#0A1317"/>
<path d="M94.3867 23.6709L94.563 23.7422L91.6756 31.0078H91.4717L94.3867 23.6709Z" fill="#0A1217"/>
<path d="M94.5628 23.7427L94.7391 23.814L91.8792 31.0083H91.6753L94.5628 23.7427Z" fill="#0A1216"/>
<path d="M94.7388 23.814L94.9151 23.8798L92.0828 31.0083H91.8789L94.7388 23.814Z" fill="#0A1215"/>
<path d="M94.9154 23.8799L95.0917 23.9512L92.2869 31.0084H92.083L94.9154 23.8799Z" fill="#091114"/>
<path d="M95.0914 23.9507L95.2678 24.022L92.4905 31.0079H92.2866L95.0914 23.9507Z" fill="#091013"/>
<path d="M95.268 24.0225L95.4443 24.0883L92.6946 31.0084H92.4907L95.268 24.0225Z" fill="#090F12"/>
<path d="M95.4445 24.0884L95.6153 24.1597L92.8987 31.0085H92.6948L95.4445 24.0884Z" fill="#080F11"/>
<path d="M95.6151 24.1597L95.7914 24.2255L93.1023 31.0085H92.8984L95.6151 24.1597Z" fill="#080E10"/>
<path d="M95.7916 24.2256L95.9679 24.2969L93.3009 31.0086H93.1025L95.7916 24.2256Z" fill="#080D0F"/>
<path d="M95.9678 24.2969L96.1111 24.3517V24.4614L93.5047 31.0086H93.3008L95.9678 24.2969Z" fill="#070C0E"/>
<path d="M96.1113 24.9709L93.7088 31.0082H93.5049L96.1113 24.4609V24.9709Z" fill="#070B0D"/>
<path d="M96.111 25.4812L93.9124 31.0085H93.7085L96.111 24.9712V25.4812Z" fill="#060A0C"/>
<path d="M96.1108 25.9964L94.116 31.0083H93.9121L96.1108 25.481V25.9964Z" fill="#06090B"/>
<path d="M96.111 26.5065L94.3201 31.0085H94.1162L96.111 25.9966V26.5065Z" fill="#050709"/>
<path d="M96.1112 27.0163L94.5242 31.0083H94.3203L96.1112 26.5063V27.0163Z" fill="#050708"/>
<path d="M96.1114 27.5316L94.7283 31.0081H94.5244L96.1114 27.0161V27.5316Z" fill="#040507"/>
<path d="M96.1109 28.0412L94.9319 31.0078H94.728L96.1109 27.5312V28.0412Z" fill="#030405"/>
<path d="M94.9316 31.0085L96.1106 28.042V31.0085H94.9316Z" fill="#030405"/>
</g>
<path d="M88.3801 31.3757C88.3636 31.2441 88.3415 31.0302 88.325 30.9205C88.2368 29.2481 87.8841 27.9869 87.7409 27.5592C87.7188 27.4989 87.7023 27.4385 87.6803 27.3782L87.6527 27.296C87.4598 26.6983 86.8372 25.9416 86.231 25.2123C85.6965 24.5707 85.1951 23.962 84.9471 23.4356C84.4016 22.2896 84.7597 21.9167 84.9361 21.807C84.9912 21.7741 85.0573 21.7632 85.1234 21.7741C89.3279 22.5528 92.1161 24.2746 93.7142 25.5851C95.4499 27.0053 96.1773 28.2227 96.2104 28.2775L96.2985 28.4256L96.1277 28.442C94.6509 28.5956 89.7026 30.0925 89.653 30.109H89.6475C88.9642 30.268 88.6942 30.5202 88.5895 30.7012C88.5509 30.767 88.5289 30.8328 88.5234 30.8876C88.4848 31.0686 88.4462 31.266 88.4242 31.3866C88.4131 31.3976 88.3801 31.3921 88.3801 31.3757ZM85.0683 21.9825C85.0628 21.9825 85.0518 21.9825 85.0463 21.988C84.9471 22.0483 84.6606 22.3225 85.14 23.3369C85.3769 23.8414 85.8949 24.4665 86.3963 25.0697C87.0135 25.8154 87.6582 26.5886 87.8621 27.2302L87.8897 27.3124C87.9062 27.3727 87.9282 27.4331 87.9448 27.4879C88.0825 27.8882 88.3801 28.9191 88.4848 30.4435C88.6942 30.1967 89.0634 30.0103 89.5814 29.8896C89.8183 29.8184 94.2597 28.4804 95.9183 28.2391C95.6704 27.8772 94.9265 26.8628 93.5599 25.7442C91.9839 24.4555 89.2342 22.7612 85.0793 21.988C85.0793 21.9825 85.0738 21.9825 85.0683 21.9825Z" fill="black"/>
<path d="M93.9784 26.09C89.4599 23.606 85.046 23.3209 85.002 23.3209L85.013 23.1016C85.0571 23.1016 89.5205 23.3922 94.0831 25.8981L93.9784 26.09Z" fill="black"/>
<path d="M95.1799 27.2799C91.7579 25.4922 86.5836 25.4703 86.501 25.4703V25.251C86.5836 25.251 91.813 25.2674 95.2846 27.0824L95.1799 27.2799Z" fill="black"/>
<path d="M95.5327 27.663C92.9428 27.1859 87.8622 27.4985 87.8071 27.5039L87.7905 27.2846C87.8401 27.2791 92.9483 26.9611 95.5657 27.4491L95.5327 27.663Z" fill="black"/>
<path d="M88.3139 29.6266L88.2588 29.4128C88.2974 29.4018 91.9728 28.4203 96.1056 28.2119L96.1166 28.4313C92.0059 28.6396 88.3525 29.6157 88.3139 29.6266Z" fill="black"/>
</g>
<path d="M8.52046 0.542329V2.32883H5.38557V11.8036H3.11881V2.32883H0V0.542329H8.52046Z" fill="#003042"/>
<path d="M15.0734 2.83926C16.1023 2.83926 16.9222 3.17422 17.5331 3.84416C18.144 4.5141 18.4495 5.4552 18.4495 6.66747V11.8036H16.1988V6.92268C16.1988 6.22084 16.0166 5.67851 15.6522 5.29569C15.2878 4.90224 14.7894 4.70551 14.1571 4.70551C13.514 4.70551 12.9996 4.91287 12.6138 5.32759C12.2279 5.74231 12.035 6.33781 12.035 7.11409V11.8036H9.76826V0H12.035V4.73741C12.2708 4.14191 12.6566 3.67933 13.1925 3.34968C13.7391 3.0094 14.3661 2.83926 15.0734 2.83926Z" fill="#003042"/>
<path d="M28.8197 7.05029C28.8197 7.2736 28.7929 7.52881 28.7393 7.81593H22.2123C22.2445 8.60284 22.4589 9.18239 22.8554 9.55457C23.2519 9.92676 23.745 10.1129 24.3344 10.1129C24.8596 10.1129 25.2936 9.98525 25.6366 9.73003C25.9903 9.47482 26.2154 9.12922 26.3118 8.69323H28.7072C28.5893 9.30999 28.3374 9.86296 27.9516 10.3521C27.5658 10.8413 27.0674 11.2241 26.4565 11.5006C25.8563 11.7771 25.1865 11.9153 24.447 11.9153C23.5788 11.9153 22.8072 11.7345 22.132 11.373C21.4568 11.0008 20.9316 10.4744 20.5565 9.79384C20.1814 9.11327 19.9938 8.31041 19.9938 7.38525C19.9938 6.4601 20.1814 5.65724 20.5565 4.97667C20.9316 4.28547 21.4568 3.75909 22.132 3.39754C22.8072 3.03598 23.5788 2.85521 24.447 2.85521C25.3258 2.85521 26.0921 3.03598 26.7459 3.39754C27.4104 3.75909 27.9194 4.25888 28.2731 4.89692C28.6375 5.52432 28.8197 6.24211 28.8197 7.05029ZM26.5369 6.82697C26.569 6.10387 26.3761 5.55622 25.9581 5.18403C25.5509 4.81185 25.0471 4.62575 24.447 4.62575C23.8361 4.62575 23.3216 4.81185 22.9036 5.18403C22.4856 5.55622 22.2552 6.10387 22.2123 6.82697H26.5369Z" fill="#003042"/>
<path d="M36.1966 10.081H40.0067V11.8036H33.9299V0.542329H36.1966V10.081Z" fill="#003042"/>
<path d="M49.7315 7.05029C49.7315 7.2736 49.7047 7.52881 49.6511 7.81593H43.1241C43.1563 8.60284 43.3706 9.18239 43.7672 9.55457C44.1637 9.92676 44.6568 10.1129 45.2462 10.1129C45.7714 10.1129 46.2054 9.98525 46.5484 9.73003C46.9021 9.47482 47.1271 9.12922 47.2236 8.69323H49.619C49.5011 9.30999 49.2492 9.86296 48.8634 10.3521C48.4776 10.8413 47.9792 11.2241 47.3683 11.5006C46.7681 11.7771 46.0983 11.9153 45.3588 11.9153C44.4906 11.9153 43.719 11.7345 43.0438 11.373C42.3686 11.0008 41.8434 10.4744 41.4683 9.79384C41.0932 9.11327 40.9056 8.31041 40.9056 7.38525C40.9056 6.4601 41.0932 5.65724 41.4683 4.97667C41.8434 4.28547 42.3686 3.75909 43.0438 3.39754C43.719 3.03598 44.4906 2.85521 45.3588 2.85521C46.2376 2.85521 47.0039 3.03598 47.6577 3.39754C48.3222 3.75909 48.8312 4.25888 49.1849 4.89692C49.5493 5.52432 49.7315 6.24211 49.7315 7.05029ZM47.4487 6.82697C47.4808 6.10387 47.2879 5.55622 46.8699 5.18403C46.4627 4.81185 45.9589 4.62575 45.3588 4.62575C44.7479 4.62575 44.2334 4.81185 43.8154 5.18403C43.3974 5.55622 43.167 6.10387 43.1241 6.82697H47.4487Z" fill="#003042"/>
<path d="M54.8292 2.85521C55.5794 2.85521 56.2225 3.03067 56.7584 3.38159C57.2943 3.7325 57.6747 4.20571 57.8998 4.80121V2.96686H60.1505V11.8036H57.8998V9.95335C57.6747 10.5488 57.2943 11.0274 56.7584 11.3889C56.2225 11.7398 55.5794 11.9153 54.8292 11.9153C54.079 11.9153 53.4038 11.7345 52.8036 11.373C52.2034 11.0114 51.7318 10.4904 51.3889 9.80979C51.0566 9.11858 50.8905 8.31041 50.8905 7.38525C50.8905 6.4601 51.0566 5.65724 51.3889 4.97667C51.7318 4.28547 52.2034 3.75909 52.8036 3.39754C53.4038 3.03598 54.079 2.85521 54.8292 2.85521ZM55.5366 4.81716C54.8292 4.81716 54.2612 5.04579 53.8325 5.50305C53.4038 5.96031 53.1894 6.58771 53.1894 7.38525C53.1894 8.1828 53.4038 8.8102 53.8325 9.26746C54.2612 9.71408 54.8292 9.9374 55.5366 9.9374C56.2225 9.9374 56.7852 9.70877 57.2246 9.25151C57.6747 8.78362 57.8998 8.16153 57.8998 7.38525C57.8998 6.59835 57.6747 5.97626 57.2246 5.519C56.7852 5.05111 56.2225 4.81716 55.5366 4.81716Z" fill="#003042"/>
<path d="M64.4715 4.65765C64.8037 4.09406 65.2432 3.65275 65.7898 3.33373C66.3364 3.00408 66.9473 2.83926 67.6225 2.83926V5.24784H66.9633C65.3021 5.24784 64.4715 6.01348 64.4715 7.54476V11.8036H62.2047V2.96686H64.4715V4.65765Z" fill="#003042"/>
<path d="M74.1822 2.83926C75.2111 2.83926 76.031 3.17422 76.6419 3.84416C77.2528 4.5141 77.5583 5.4552 77.5583 6.66747V11.8036H75.3076V6.92268C75.3076 6.22084 75.1254 5.67851 74.761 5.29569C74.3966 4.90224 73.8982 4.70551 73.2659 4.70551C72.6228 4.70551 72.1084 4.91287 71.7226 5.32759C71.3367 5.74231 71.1438 6.33781 71.1438 7.11409V11.8036H68.877V2.96686H71.1438V4.73741C71.3796 4.14191 71.7654 3.67933 72.3013 3.34968C72.8479 3.0094 73.4749 2.83926 74.1822 2.83926Z" fill="#003042"/>
<path d="M81.8195 7.62452V11.8036H79.5527V0.542329H83.6844C85.024 0.542329 86.0315 0.861347 86.7067 1.49938C87.3926 2.13742 87.7356 3.00408 87.7356 4.09937C87.7356 5.1734 87.3819 6.02943 86.6746 6.66747C85.9779 7.3055 84.9812 7.62452 83.6844 7.62452H81.8195ZM83.4432 5.82207C84.7722 5.82207 85.4367 5.24784 85.4367 4.09937C85.4367 3.53578 85.2813 3.1051 84.9705 2.80735C84.6597 2.5096 84.1506 2.36073 83.4432 2.36073H81.8195V5.82207H83.4432Z" fill="#003042"/>
<path d="M92.6965 2.85521C93.4468 2.85521 94.0898 3.03067 94.6257 3.38159C95.1616 3.7325 95.542 4.20571 95.7671 4.80121V2.96686H98.0178V11.8036H95.7671V9.95335C95.542 10.5488 95.1616 11.0274 94.6257 11.3889C94.0898 11.7398 93.4468 11.9153 92.6965 11.9153C91.9463 11.9153 91.2711 11.7345 90.6709 11.373C90.0707 11.0114 89.5991 10.4904 89.2562 9.80979C88.9239 9.11858 88.7578 8.31041 88.7578 7.38525C88.7578 6.4601 88.9239 5.65724 89.2562 4.97667C89.5991 4.28547 90.0707 3.75909 90.6709 3.39754C91.2711 3.03598 91.9463 2.85521 92.6965 2.85521ZM93.4039 4.81716C92.6965 4.81716 92.1285 5.04579 91.6998 5.50305C91.2711 5.96031 91.0567 6.58771 91.0567 7.38525C91.0567 8.1828 91.2711 8.8102 91.6998 9.26746C92.1285 9.71408 92.6965 9.9374 93.4039 9.9374C94.0898 9.9374 94.6525 9.70877 95.0919 9.25151C95.542 8.78362 95.7671 8.16153 95.7671 7.38525C95.7671 6.59835 95.542 5.97626 95.0919 5.519C94.6525 5.05111 94.0898 4.81716 93.4039 4.81716Z" fill="#003042"/>
<path d="M103.561 2.85521C104.311 2.85521 104.949 3.03067 105.474 3.38159C106.01 3.7325 106.395 4.20571 106.631 4.80121V0H108.882V11.8036H106.631V9.95335C106.395 10.5488 106.01 11.0274 105.474 11.3889C104.949 11.7398 104.311 11.9153 103.561 11.9153C102.81 11.9153 102.135 11.7345 101.535 11.373C100.935 11.0114 100.463 10.4904 100.12 9.80979C99.788 9.11858 99.6219 8.31041 99.6219 7.38525C99.6219 6.4601 99.788 5.65724 100.12 4.97667C100.463 4.28547 100.935 3.75909 101.535 3.39754C102.135 3.03598 102.81 2.85521 103.561 2.85521ZM104.268 4.81716C103.561 4.81716 102.993 5.04579 102.564 5.50305C102.135 5.96031 101.921 6.58771 101.921 7.38525C101.921 8.1828 102.135 8.8102 102.564 9.26746C102.993 9.71408 103.561 9.9374 104.268 9.9374C104.954 9.9374 105.517 9.70877 105.956 9.25151C106.406 8.78362 106.631 8.16153 106.631 7.38525C106.631 6.59835 106.406 5.97626 105.956 5.519C105.517 5.05111 104.954 4.81716 104.268 4.81716Z" fill="#003042"/>
<defs>
<clipPath id="clip0_7735_59177">
<rect width="50.5581" height="22.5425" fill="white" transform="translate(58.9712 15.4575)"/>
</clipPath>
</defs>
</svg>
