<svg width="16" height="16" viewBox="0 0 16 16" fill="none" xmlns="http://www.w3.org/2000/svg">
<path d="M5.00016 6.33333V13C5.00016 13.0884 4.96504 13.1732 4.90253 13.2357C4.84002 13.2982 4.75524 13.3333 4.66683 13.3333H3.00016C2.91176 13.3333 2.82697 13.2982 2.76446 13.2357C2.70195 13.1732 2.66683 13.0884 2.66683 13V6.33333C2.66683 6.24493 2.70195 6.16014 2.76446 6.09763C2.82697 6.03512 2.91176 6 3.00016 6H4.66683C4.75524 6 4.84002 6.03512 4.90253 6.09763C4.96504 6.16014 5.00016 6.24493 5.00016 6.33333ZM14.0002 8.94C14.0113 8.2394 13.7827 7.55602 13.3523 7.00313C12.9219 6.45024 12.3154 6.06102 11.6335 5.9C11.1695 5.80009 10.6883 5.81271 10.2302 5.93681C9.77206 6.06091 9.3503 6.29288 9.00016 6.61333V6.33333C9.00016 6.24493 8.96504 6.16014 8.90253 6.09763C8.84002 6.03512 8.75524 6 8.66683 6H7.00016C6.91176 6 6.82697 6.03512 6.76446 6.09763C6.70195 6.16014 6.66683 6.24493 6.66683 6.33333V13C6.66683 13.0884 6.70195 13.1732 6.76446 13.2357C6.82697 13.2982 6.91176 13.3333 7.00016 13.3333H8.66683C8.75524 13.3333 8.84002 13.2982 8.90253 13.2357C8.96504 13.1732 9.00016 13.0884 9.00016 13V9.24C8.99219 8.91565 9.09875 8.59885 9.30114 8.34526C9.50352 8.09167 9.78879 7.9175 10.1068 7.85333C10.2999 7.82 10.498 7.82964 10.6869 7.88155C10.8758 7.93346 11.051 8.02637 11.1999 8.15367C11.3489 8.28097 11.4679 8.43953 11.5486 8.61808C11.6293 8.79662 11.6697 8.99075 11.6668 9.18667V13C11.6668 13.0884 11.7019 13.1732 11.7645 13.2357C11.827 13.2982 11.9118 13.3333 12.0002 13.3333H13.6668C13.7552 13.3333 13.84 13.2982 13.9025 13.2357C13.965 13.1732 14.0002 13.0884 14.0002 13V8.94ZM3.66683 2C3.40312 2 3.14534 2.0782 2.92607 2.22471C2.7068 2.37122 2.53591 2.57945 2.43499 2.82309C2.33407 3.06672 2.30767 3.33481 2.35912 3.59345C2.41056 3.8521 2.53755 4.08967 2.72402 4.27614C2.91049 4.46261 3.14807 4.5896 3.40671 4.64105C3.66535 4.69249 3.93344 4.66609 4.17707 4.56517C4.42071 4.46426 4.62895 4.29336 4.77546 4.07409C4.92196 3.85483 5.00016 3.59704 5.00016 3.33333C5.00016 2.97971 4.85969 2.64057 4.60964 2.39052C4.35959 2.14048 4.02045 2 3.66683 2Z" fill="#6B8299"/>
</svg>
