<svg width="32" height="32" viewBox="0 0 32 32" fill="none" xmlns="http://www.w3.org/2000/svg">
<path d="M24 10.667C24 8.54526 23.1571 6.51043 21.6569 5.01014C20.1566 3.50985 18.1217 2.66699 16 2.66699C13.8783 2.66699 11.8434 3.50985 10.3431 5.01014C8.84285 6.51043 8 8.54526 8 10.667C8 20.0003 4 22.667 4 22.667H28C28 22.667 24 20.0003 24 10.667Z" fill="white" stroke="#11302D" stroke-width="2" stroke-linecap="round" stroke-linejoin="round"/>
<path d="M18.3067 28C18.0723 28.4041 17.7358 28.7395 17.331 28.9727C16.9262 29.2059 16.4672 29.3286 16 29.3286C15.5329 29.3286 15.0739 29.2059 14.6691 28.9727C14.2642 28.7395 13.9278 28.4041 13.6934 28" stroke="#11302D" stroke-width="2" stroke-linecap="round" stroke-linejoin="round"/>
<ellipse cx="23.9998" cy="6.66683" rx="5.33333" ry="5.33333" fill="white"/>
<circle cx="24" cy="6.66699" r="4" fill="#22DBB5"/>
</svg>
