<svg width="34" height="34" viewBox="0 0 34 34" fill="none" xmlns="http://www.w3.org/2000/svg">
<path d="M9.2827 16.7123L12.9683 18.095L14.3978 22.704C14.4885 22.9987 14.8512 23.1059 15.0859 22.913L17.1394 21.2302C17.3527 21.0533 17.6621 21.0426 17.8861 21.2088L21.5931 23.9152C21.8491 24.1027 22.2118 23.9634 22.2758 23.6526L24.9907 10.5278C25.06 10.1901 24.7293 9.90608 24.4093 10.0293L9.27737 15.8977C8.90401 16.0424 8.90934 16.573 9.2827 16.7123ZM14.1685 17.3608L21.3744 12.9019C21.5024 12.8215 21.6357 12.9984 21.5237 13.1002L15.5766 18.6577C15.3686 18.8507 15.2352 19.1133 15.1925 19.3973L14.9899 20.9033C14.9632 21.1069 14.6805 21.123 14.6272 20.9301L13.8484 18.1808C13.7631 17.8699 13.8911 17.5323 14.1685 17.3608Z" fill="#6B8299"/>
<rect x="1" y="1" width="32" height="32" rx="12" stroke="#E3E6EC"/>
</svg>
