<svg width="34" height="34" viewBox="0 0 34 34" fill="none" xmlns="http://www.w3.org/2000/svg">
<path d="M25 12C24.4 12.3 23.8 12.4 23.1 12.5C23.8 12.1 24.3 11.5 24.5 10.7C23.9 11.1 23.2 11.3 22.4 11.5C21.8 10.9 20.9 10.5 20 10.5C18.3 10.5 16.8 12 16.8 13.8C16.8 14.1 16.8 14.3 16.9 14.5C14.2 14.4 11.7 13.1 10.1 11.1C9.8 11.6 9.7 12.1 9.7 12.8C9.7 13.9 10.3 14.9 11.2 15.5C10.7 15.5 10.2 15.3 9.7 15.1C9.7 16.7 10.8 18 12.3 18.3C12 18.4 11.7 18.4 11.4 18.4C11.2 18.4 11 18.4 10.8 18.3C11.2 19.6 12.4 20.6 13.9 20.6C12.8 21.5 11.4 22 9.8 22H9C10.5 22.9 12.2 23.5 14 23.5C20 23.5 23.3 18.5 23.3 14.2V13.8C24 13.3 24.6 12.7 25 12Z" fill="#6B8299"/>
<rect x="1" y="1" width="32" height="32" rx="12" stroke="#E3E6EC"/>
</svg>
