<svg width="24" height="24" viewBox="0 0 24 24" fill="none" xmlns="http://www.w3.org/2000/svg">
<g clip-path="url(#clip0_3481_111079)">
<path d="M20.5947 22.7825H3.40394C2.22415 22.7825 1.12825 22.1716 0.508046 21.1679C-0.112346 20.1643 -0.168762 18.911 0.358947 17.8556L8.95431 3.13969C9.53111 1.98646 10.7098 1.25781 11.9993 1.25781C13.2888 1.25781 14.4675 1.98646 15.0443 3.13969L23.6397 17.8556C24.1674 18.911 24.111 20.1643 23.4906 21.1679C22.8704 22.1716 21.7746 22.7825 20.5947 22.7825Z" fill="#F0C419"/>
<path d="M20.5969 22.7826H11.9995V1.25788C13.2921 1.24982 14.4756 1.98139 15.0462 3.1414L23.6393 17.8568C24.1678 18.9115 24.1121 20.1647 23.4922 21.1683C22.8722 22.1721 21.7767 22.7829 20.5969 22.7826Z" fill="#F29C1F"/>
<path d="M13.6553 19.0575C13.6553 19.9721 12.9138 20.7134 11.9994 20.7134C11.085 20.7134 10.3438 19.9721 10.3438 19.0575C10.3438 18.1431 11.085 17.4019 11.9994 17.4019C12.9138 17.4019 13.6553 18.1431 13.6553 19.0575Z" fill="#35495E"/>
<path d="M13.6553 19.0575C13.6553 19.4968 13.481 19.9179 13.1705 20.2285C12.8598 20.539 12.4387 20.7134 11.9995 20.7134V17.4019C12.4387 17.4017 12.8598 17.576 13.1705 17.8867C13.481 18.1972 13.6553 18.6185 13.6553 19.0575Z" fill="#2C3E50"/>
<path d="M11.9994 4.56934C12.9138 4.56934 13.6553 5.31062 13.6553 6.22518V14.0899C13.6553 15.0043 12.9138 15.7455 11.9994 15.7455C11.085 15.7455 10.3438 15.0043 10.3438 14.0899V6.22518C10.3438 5.31062 11.085 4.56934 11.9994 4.56934Z" fill="#35495E"/>
<path d="M13.6553 6.22518V14.0899C13.6553 14.5291 13.481 14.9502 13.1705 15.2607C12.8598 15.5714 12.4387 15.7457 11.9995 15.7456V4.56934C12.4387 4.56879 12.8604 4.74298 13.1711 5.05363C13.4815 5.36429 13.6559 5.78576 13.6553 6.22518Z" fill="#2C3E50"/>
</g>
<defs>
<clipPath id="clip0_3481_111079">
<rect width="24" height="24" fill="white"/>
</clipPath>
</defs>
</svg>
