<svg width="34" height="34" viewBox="0 0 34 34" fill="none" xmlns="http://www.w3.org/2000/svg">
<rect x="1" y="1" width="32" height="32" rx="12" stroke="#E3E6EC"/>
<path d="M17 10C14.0429 10 10 12.235 10 17C10 21.6437 13.8886 24 17 24C22.3382 24 24 19.3232 24 17C24 13.5717 21.3764 10 17 10ZM15.3768 10.6587C14.6465 11.2815 14.0402 12.3122 13.6488 13.5909C13.1417 13.2906 12.676 12.9185 12.2626 12.4858C13.1169 11.5902 14.1972 10.9618 15.3768 10.6587ZM11.9622 12.822C12.4252 13.3043 12.9516 13.715 13.5248 14.0402C13.3098 14.8752 13.1831 15.8012 13.1665 16.774H10.4575C10.5071 15.3217 11.0362 13.9354 11.9622 12.822ZM11.9622 21.178C11.0335 20.0646 10.5071 18.6783 10.4575 17.226H13.1665C13.1831 18.2016 13.3098 19.1248 13.5248 19.9598C12.9543 20.2878 12.428 20.6957 11.9622 21.178ZM12.2626 21.5169C12.676 21.0843 13.1417 20.7122 13.6488 20.4118C14.0402 21.6878 14.6465 22.7213 15.3768 23.3441C14.1972 23.0382 13.1169 22.4098 12.2626 21.5169ZM16.774 23.5315C15.6 23.3827 14.5886 22.0709 14.0429 20.1913C14.8862 19.7642 15.8177 19.5244 16.774 19.4886V23.5315ZM16.774 19.0394C15.7764 19.0724 14.8063 19.3177 13.9272 19.7476C13.7425 18.976 13.6323 18.1244 13.6157 17.226H16.774V19.0394V19.0394ZM16.774 16.774H13.6157C13.6323 15.8756 13.7425 15.024 13.9272 14.2524C14.8091 14.6823 15.7791 14.9276 16.774 14.9606V16.774ZM16.774 14.5114C15.815 14.4783 14.8862 14.2358 14.0429 13.8087C14.5886 11.9264 15.6 10.6173 16.774 10.4685V14.5114ZM22.0378 12.822C22.9638 13.9354 23.4929 15.3217 23.5425 16.774H20.8362C20.8197 15.7984 20.6929 14.8752 20.478 14.0402C21.0484 13.7122 21.5748 13.3043 22.0378 12.822ZM21.7374 12.4831C21.324 12.9157 20.8583 13.2878 20.3512 13.5882C19.9598 12.3122 19.3535 11.2815 18.6232 10.6559C19.8028 10.9618 20.8831 11.5902 21.7374 12.4831ZM17.226 10.4685C18.4 10.6173 19.4114 11.9291 19.9571 13.8087C19.1138 14.2358 18.185 14.4756 17.226 14.5114V10.4685V10.4685ZM17.226 14.9606C18.2236 14.9276 19.1937 14.6823 20.0728 14.2524C20.2575 15.024 20.3677 15.8756 20.3843 16.774H17.226V14.9606ZM17.226 17.226H20.3843C20.3677 18.1244 20.2575 18.976 20.0728 19.7476C19.1937 19.315 18.2236 19.0697 17.226 19.0394V17.226V17.226ZM17.226 23.5315V19.4886C18.185 19.5217 19.1138 19.7642 19.9571 20.1913C19.4114 22.0736 18.4 23.3827 17.226 23.5315ZM18.6232 23.3413C19.3535 22.7185 19.9598 21.6878 20.3512 20.4091C20.8583 20.7094 21.324 21.0815 21.7374 21.5142C20.8831 22.4098 19.8028 23.0382 18.6232 23.3413ZM22.0378 21.178C21.5748 20.6957 21.0484 20.2878 20.478 19.9598C20.6929 19.1248 20.8197 18.1988 20.8362 17.226H23.5425C23.4929 18.6783 22.9638 20.0646 22.0378 21.178Z" fill="#6B8299" stroke="#6B8299" stroke-width="0.3"/>
</svg>
